<?xml version="1.0" encoding="UTF-8"?>
<svg xmlns="http://www.w3.org/2000/svg" xmlns:xlink="http://www.w3.org/1999/xlink" width="288px" height="295.2px" viewBox="0 0 288 295.2" version="1.1" id="Fig:dens">
  <metadata xmlns:gridsvg="http://www.stat.auckland.ac.nz/~paul/R/gridSVG/">
    <gridsvg:generator name="gridSVG" version="1.7-4" time="2022-12-22 11:02:34"/>
    <gridsvg:argument name="name" value="results/norm_f/QCDir.NormF/dens.svg"/>
    <gridsvg:argument name="exportCoords" value="none"/>
    <gridsvg:argument name="exportMappings" value="none"/>
    <gridsvg:argument name="exportJS" value="none"/>
    <gridsvg:argument name="res" value="72"/>
    <gridsvg:argument name="prefix" value="Fig:dens"/>
    <gridsvg:argument name="addClasses" value="FALSE"/>
    <gridsvg:argument name="indent" value="TRUE"/>
    <gridsvg:argument name="htmlWrapper" value="FALSE"/>
    <gridsvg:argument name="usePaths" value="none"/>
    <gridsvg:argument name="uniqueNames" value="TRUE"/>
    <gridsvg:separator name="id.sep" value="."/>
    <gridsvg:separator name="gPath.sep" value="::"/>
    <gridsvg:separator name="vpPath.sep" value="::"/>
  </metadata>
  <g transform="translate(0, 295.2) scale(1, -1)">
    <g id="Fig:densgridSVG" fill="none" stroke="rgb(0,0,0)" stroke-dasharray="none" stroke-width="0.75" font-size="12" font-family="Helvetica, Arial, FreeSans, Liberation Sans, Nimbus Sans L, sans-serif" opacity="1" stroke-linecap="round" stroke-linejoin="round" stroke-miterlimit="10" stroke-opacity="1" fill-opacity="0" font-weight="normal" font-style="normal">
      <g id="Fig:densplot_01.background.1">
        <rect id="Fig:densplot_01.background.1.1" x="0" y="0" width="288" height="295.2" transform="" fill="none" stroke="none" stroke-opacity="0" fill-opacity="0"/>
      </g>
      <g id="Fig:densplot_01.toplevel.vp.1" font-size="12">
        <g id="Fig:densplot_01.main.vp.1">
          <g id="Fig:densGRID.VP.521.1">
            <g id="Fig:densplot_01.key.frame.1">
              <g id="Fig:densGRID.VP.522.1">
                <g id="Fig:densGRID.cellGrob.1494.1">
                  <g id="Fig:densplot_01.key.background.1">
                    <rect id="Fig:densplot_01.key.background.1.1" x="100.64" y="254.71" width="86.71" height="34.49" transform="" fill="none" opacity="1" stroke="none" stroke-opacity="0" fill-opacity="0"/>
                  </g>
                </g>
              </g>
              <g id="Fig:densGRID.VP.523.1">
                <g id="Fig:densGRID.cellGrob.1495.1">
                  <g id="Fig:densplot_01.key.rect.1.1.1">
                    <rect id="Fig:densplot_01.key.rect.1.1.1.1" x="107.32" y="277.7" width="33.36" height="11.5" transform="" opacity="1" fill="rgb(228,26,28)" stroke="rgb(0,0,0)" stroke-opacity="1" fill-opacity="1"/>
                  </g>
                </g>
              </g>
              <g id="Fig:densGRID.VP.524.1">
                <g id="Fig:densGRID.cellGrob.1496.1">
                  <g id="Fig:densplot_01.key.rect.1.2.1">
                    <rect id="Fig:densplot_01.key.rect.1.2.1.1" x="107.32" y="266.21" width="33.36" height="11.5" transform="" opacity="1" fill="rgb(55,126,184)" stroke="rgb(0,0,0)" stroke-opacity="1" fill-opacity="1"/>
                  </g>
                </g>
              </g>
              <g id="Fig:densGRID.VP.525.1">
                <g id="Fig:densGRID.cellGrob.1497.1">
                  <g id="Fig:densplot_01.key.rect.1.3.1">
                    <rect id="Fig:densplot_01.key.rect.1.3.1.1" x="107.32" y="254.71" width="33.36" height="11.5" transform="" opacity="1" fill="rgb(77,175,74)" stroke="rgb(0,0,0)" stroke-opacity="1" fill-opacity="1"/>
                  </g>
                </g>
              </g>
              <g id="Fig:densGRID.VP.526.1">
                <g id="Fig:densGRID.cellGrob.1498.1">
                  <g id="Fig:densplot_01.key.text.2.1.1">
                    <g id="Fig:densplot_01.key.text.2.1.1.1" transform="translate(154.02, 283.45)" stroke-width="0.1">
                      <g id="Fig:densplot_01.key.text.2.1.1.1.scale" transform="scale(1, -1)">
                        <text x="0" y="0" id="Fig:densplot_01.key.text.2.1.1.1.text" text-anchor="start" stroke="rgb(0,0,0)" opacity="1" fill="rgb(0,0,0)" stroke-opacity="1" fill-opacity="1" font-size="12" font-weight="normal" font-style="normal">
                          <tspan id="Fig:densplot_01.key.text.2.1.1.1.tspan.1" dy="4.31" x="0">CTL</tspan>
                        </text>
                      </g>
                    </g>
                  </g>
                </g>
              </g>
              <g id="Fig:densGRID.VP.527.1">
                <g id="Fig:densGRID.cellGrob.1499.1">
                  <g id="Fig:densplot_01.key.text.2.2.1">
                    <g id="Fig:densplot_01.key.text.2.2.1.1" transform="translate(154.02, 271.96)" stroke-width="0.1">
                      <g id="Fig:densplot_01.key.text.2.2.1.1.scale" transform="scale(1, -1)">
                        <text x="0" y="0" id="Fig:densplot_01.key.text.2.2.1.1.text" text-anchor="start" stroke="rgb(0,0,0)" opacity="1" fill="rgb(0,0,0)" stroke-opacity="1" fill-opacity="1" font-size="12" font-weight="normal" font-style="normal">
                          <tspan id="Fig:densplot_01.key.text.2.2.1.1.tspan.1" dy="4.31" x="0">PD1</tspan>
                        </text>
                      </g>
                    </g>
                  </g>
                </g>
              </g>
              <g id="Fig:densGRID.VP.528.1">
                <g id="Fig:densGRID.cellGrob.1500.1">
                  <g id="Fig:densplot_01.key.text.2.3.1">
                    <g id="Fig:densplot_01.key.text.2.3.1.1" transform="translate(154.02, 260.46)" stroke-width="0.1">
                      <g id="Fig:densplot_01.key.text.2.3.1.1.scale" transform="scale(1, -1)">
                        <text x="0" y="0" id="Fig:densplot_01.key.text.2.3.1.1.text" text-anchor="start" stroke="rgb(0,0,0)" opacity="1" fill="rgb(0,0,0)" stroke-opacity="1" fill-opacity="1" font-size="12" font-weight="normal" font-style="normal">
                          <tspan id="Fig:densplot_01.key.text.2.3.1.1.tspan.1" dy="4.31" x="0">CMP</tspan>
                        </text>
                      </g>
                    </g>
                  </g>
                </g>
              </g>
            </g>
          </g>
        </g>
        <g id="Fig:densplot_01.ylab.vp.1">
          <g id="Fig:densplot_01.ylab.1">
            <g id="Fig:densplot_01.ylab.1.1" transform="translate(16.31, 145.45)" stroke-width="0.1">
              <g id="Fig:densplot_01.ylab.1.1.scale" transform="scale(1, -1)">
                <text x="0" y="0" id="Fig:densplot_01.ylab.1.1.text" transform="rotate(-90)" text-anchor="middle" opacity="1" stroke="rgb(0,0,0)" fill="rgb(0,0,0)" stroke-opacity="1" fill-opacity="1" font-size="12" font-weight="normal" font-style="normal">
                  <tspan id="Fig:densplot_01.ylab.1.1.tspan.1" dy="4.31" x="0">Density</tspan>
                </text>
              </g>
            </g>
          </g>
        </g>
        <g id="Fig:densplot_01.figure.vp.1"/>
        <defs>
          <clipPath id="Fig:densplot_01.panel.1.1.vp.1.clipPath">
            <rect x="50.8" y="48.19" width="225.2" height="194.52" fill="none" stroke="none"/>
          </clipPath>
        </defs>
        <g id="Fig:densplot_01.panel.1.1.vp.1" clip-path="url(#Fig:densplot_01.panel.1.1.vp.1.clipPath)"/>
        <g id="Fig:densplot_01.strip.1.1.off.vp.1"/>
        <g id="Fig:densplot_01.strip.left.1.1.off.vp.1">
          <g id="Fig:densplot_01.ticks.left.panel.1.1.1">
            <polyline id="Fig:densplot_01.ticks.left.panel.1.1.1.1" points="50.8,60.11 45.13,60.11" stroke="rgb(0,0,0)" opacity="1" stroke-dasharray="none" stroke-width="0.75" stroke-opacity="1" fill="none"/>
            <polyline id="Fig:densplot_01.ticks.left.panel.1.1.1.2" points="50.8,104.54 45.13,104.54" stroke="rgb(0,0,0)" opacity="1" stroke-dasharray="none" stroke-width="0.75" stroke-opacity="1" fill="none"/>
            <polyline id="Fig:densplot_01.ticks.left.panel.1.1.1.3" points="50.8,148.97 45.13,148.97" stroke="rgb(0,0,0)" opacity="1" stroke-dasharray="none" stroke-width="0.75" stroke-opacity="1" fill="none"/>
            <polyline id="Fig:densplot_01.ticks.left.panel.1.1.1.4" points="50.8,193.4 45.13,193.4" stroke="rgb(0,0,0)" opacity="1" stroke-dasharray="none" stroke-width="0.75" stroke-opacity="1" fill="none"/>
            <polyline id="Fig:densplot_01.ticks.left.panel.1.1.1.5" points="50.8,237.82 45.13,237.82" stroke="rgb(0,0,0)" opacity="1" stroke-dasharray="none" stroke-width="0.75" stroke-opacity="1" fill="none"/>
          </g>
          <g id="Fig:densplot_01.ticklabels.left.panel.1.1.1">
            <g id="Fig:densplot_01.ticklabels.left.panel.1.1.1.1" transform="translate(39.47, 60.11)" stroke-width="0.1">
              <g id="Fig:densplot_01.ticklabels.left.panel.1.1.1.1.scale" transform="scale(1, -1)">
                <text x="0" y="0" id="Fig:densplot_01.ticklabels.left.panel.1.1.1.1.text" transform="rotate(-90)" text-anchor="middle" stroke="rgb(0,0,0)" opacity="1" fill="rgb(0,0,0)" stroke-opacity="1" fill-opacity="1" font-size="9.6" font-weight="normal" font-style="normal">
                  <tspan id="Fig:densplot_01.ticklabels.left.panel.1.1.1.1.tspan.1" dy="0" x="0">0.00</tspan>
                </text>
              </g>
            </g>
            <g id="Fig:densplot_01.ticklabels.left.panel.1.1.1.2" transform="translate(39.47, 104.54)" stroke-width="0.1">
              <g id="Fig:densplot_01.ticklabels.left.panel.1.1.1.2.scale" transform="scale(1, -1)">
                <text x="0" y="0" id="Fig:densplot_01.ticklabels.left.panel.1.1.1.2.text" transform="rotate(-90)" text-anchor="middle" stroke="rgb(0,0,0)" opacity="1" fill="rgb(0,0,0)" stroke-opacity="1" fill-opacity="1" font-size="9.6" font-weight="normal" font-style="normal">
                  <tspan id="Fig:densplot_01.ticklabels.left.panel.1.1.1.2.tspan.1" dy="0" x="0">0.05</tspan>
                </text>
              </g>
            </g>
            <g id="Fig:densplot_01.ticklabels.left.panel.1.1.1.3" transform="translate(39.47, 148.97)" stroke-width="0.1">
              <g id="Fig:densplot_01.ticklabels.left.panel.1.1.1.3.scale" transform="scale(1, -1)">
                <text x="0" y="0" id="Fig:densplot_01.ticklabels.left.panel.1.1.1.3.text" transform="rotate(-90)" text-anchor="middle" stroke="rgb(0,0,0)" opacity="1" fill="rgb(0,0,0)" stroke-opacity="1" fill-opacity="1" font-size="9.6" font-weight="normal" font-style="normal">
                  <tspan id="Fig:densplot_01.ticklabels.left.panel.1.1.1.3.tspan.1" dy="0" x="0">0.10</tspan>
                </text>
              </g>
            </g>
            <g id="Fig:densplot_01.ticklabels.left.panel.1.1.1.4" transform="translate(39.47, 193.4)" stroke-width="0.1">
              <g id="Fig:densplot_01.ticklabels.left.panel.1.1.1.4.scale" transform="scale(1, -1)">
                <text x="0" y="0" id="Fig:densplot_01.ticklabels.left.panel.1.1.1.4.text" transform="rotate(-90)" text-anchor="middle" stroke="rgb(0,0,0)" opacity="1" fill="rgb(0,0,0)" stroke-opacity="1" fill-opacity="1" font-size="9.6" font-weight="normal" font-style="normal">
                  <tspan id="Fig:densplot_01.ticklabels.left.panel.1.1.1.4.tspan.1" dy="0" x="0">0.15</tspan>
                </text>
              </g>
            </g>
            <g id="Fig:densplot_01.ticklabels.left.panel.1.1.1.5" transform="translate(39.47, 237.82)" stroke-width="0.1">
              <g id="Fig:densplot_01.ticklabels.left.panel.1.1.1.5.scale" transform="scale(1, -1)">
                <text x="0" y="0" id="Fig:densplot_01.ticklabels.left.panel.1.1.1.5.text" transform="rotate(-90)" text-anchor="middle" stroke="rgb(0,0,0)" opacity="1" fill="rgb(0,0,0)" stroke-opacity="1" fill-opacity="1" font-size="9.6" font-weight="normal" font-style="normal">
                  <tspan id="Fig:densplot_01.ticklabels.left.panel.1.1.1.5.tspan.1" dy="0" x="0">0.20</tspan>
                </text>
              </g>
            </g>
          </g>
        </g>
        <g id="Fig:densplot_01.panel.1.1.off.vp.1">
          <g id="Fig:densplot_01.ticks.bottom.panel.1.1.1">
            <polyline id="Fig:densplot_01.ticks.bottom.panel.1.1.1.1" points="61.65,48.19 61.65,42.52" stroke="rgb(0,0,0)" opacity="1" stroke-dasharray="none" stroke-width="0.75" stroke-opacity="1" fill="none"/>
            <polyline id="Fig:densplot_01.ticks.bottom.panel.1.1.1.2" points="94.18,48.19 94.18,42.52" stroke="rgb(0,0,0)" opacity="1" stroke-dasharray="none" stroke-width="0.75" stroke-opacity="1" fill="none"/>
            <polyline id="Fig:densplot_01.ticks.bottom.panel.1.1.1.3" points="126.71,48.19 126.71,42.52" stroke="rgb(0,0,0)" opacity="1" stroke-dasharray="none" stroke-width="0.75" stroke-opacity="1" fill="none"/>
            <polyline id="Fig:densplot_01.ticks.bottom.panel.1.1.1.4" points="159.24,48.19 159.24,42.52" stroke="rgb(0,0,0)" opacity="1" stroke-dasharray="none" stroke-width="0.75" stroke-opacity="1" fill="none"/>
            <polyline id="Fig:densplot_01.ticks.bottom.panel.1.1.1.5" points="191.77,48.19 191.77,42.52" stroke="rgb(0,0,0)" opacity="1" stroke-dasharray="none" stroke-width="0.75" stroke-opacity="1" fill="none"/>
            <polyline id="Fig:densplot_01.ticks.bottom.panel.1.1.1.6" points="224.3,48.19 224.3,42.52" stroke="rgb(0,0,0)" opacity="1" stroke-dasharray="none" stroke-width="0.75" stroke-opacity="1" fill="none"/>
            <polyline id="Fig:densplot_01.ticks.bottom.panel.1.1.1.7" points="256.83,48.19 256.83,42.52" stroke="rgb(0,0,0)" opacity="1" stroke-dasharray="none" stroke-width="0.75" stroke-opacity="1" fill="none"/>
          </g>
          <g id="Fig:densplot_01.ticklabels.bottom.panel.1.1.1">
            <g id="Fig:densplot_01.ticklabels.bottom.panel.1.1.1.1" transform="translate(61.65, 36.85)" stroke-width="0.1">
              <g id="Fig:densplot_01.ticklabels.bottom.panel.1.1.1.1.scale" transform="scale(1, -1)">
                <text x="0" y="0" id="Fig:densplot_01.ticklabels.bottom.panel.1.1.1.1.text" text-anchor="middle" stroke="rgb(0,0,0)" opacity="1" fill="rgb(0,0,0)" stroke-opacity="1" fill-opacity="1" font-size="9.6" font-weight="normal" font-style="normal">
                  <tspan id="Fig:densplot_01.ticklabels.bottom.panel.1.1.1.1.tspan.1" dy="7.18" x="0">0</tspan>
                </text>
              </g>
            </g>
            <g id="Fig:densplot_01.ticklabels.bottom.panel.1.1.1.2" transform="translate(94.18, 36.85)" stroke-width="0.1">
              <g id="Fig:densplot_01.ticklabels.bottom.panel.1.1.1.2.scale" transform="scale(1, -1)">
                <text x="0" y="0" id="Fig:densplot_01.ticklabels.bottom.panel.1.1.1.2.text" text-anchor="middle" stroke="rgb(0,0,0)" opacity="1" fill="rgb(0,0,0)" stroke-opacity="1" fill-opacity="1" font-size="9.6" font-weight="normal" font-style="normal">
                  <tspan id="Fig:densplot_01.ticklabels.bottom.panel.1.1.1.2.tspan.1" dy="7.18" x="0">2</tspan>
                </text>
              </g>
            </g>
            <g id="Fig:densplot_01.ticklabels.bottom.panel.1.1.1.3" transform="translate(126.71, 36.85)" stroke-width="0.1">
              <g id="Fig:densplot_01.ticklabels.bottom.panel.1.1.1.3.scale" transform="scale(1, -1)">
                <text x="0" y="0" id="Fig:densplot_01.ticklabels.bottom.panel.1.1.1.3.text" text-anchor="middle" stroke="rgb(0,0,0)" opacity="1" fill="rgb(0,0,0)" stroke-opacity="1" fill-opacity="1" font-size="9.6" font-weight="normal" font-style="normal">
                  <tspan id="Fig:densplot_01.ticklabels.bottom.panel.1.1.1.3.tspan.1" dy="7.18" x="0">4</tspan>
                </text>
              </g>
            </g>
            <g id="Fig:densplot_01.ticklabels.bottom.panel.1.1.1.4" transform="translate(159.24, 36.85)" stroke-width="0.1">
              <g id="Fig:densplot_01.ticklabels.bottom.panel.1.1.1.4.scale" transform="scale(1, -1)">
                <text x="0" y="0" id="Fig:densplot_01.ticklabels.bottom.panel.1.1.1.4.text" text-anchor="middle" stroke="rgb(0,0,0)" opacity="1" fill="rgb(0,0,0)" stroke-opacity="1" fill-opacity="1" font-size="9.6" font-weight="normal" font-style="normal">
                  <tspan id="Fig:densplot_01.ticklabels.bottom.panel.1.1.1.4.tspan.1" dy="7.18" x="0">6</tspan>
                </text>
              </g>
            </g>
            <g id="Fig:densplot_01.ticklabels.bottom.panel.1.1.1.5" transform="translate(191.77, 36.85)" stroke-width="0.1">
              <g id="Fig:densplot_01.ticklabels.bottom.panel.1.1.1.5.scale" transform="scale(1, -1)">
                <text x="0" y="0" id="Fig:densplot_01.ticklabels.bottom.panel.1.1.1.5.text" text-anchor="middle" stroke="rgb(0,0,0)" opacity="1" fill="rgb(0,0,0)" stroke-opacity="1" fill-opacity="1" font-size="9.6" font-weight="normal" font-style="normal">
                  <tspan id="Fig:densplot_01.ticklabels.bottom.panel.1.1.1.5.tspan.1" dy="7.18" x="0">8</tspan>
                </text>
              </g>
            </g>
            <g id="Fig:densplot_01.ticklabels.bottom.panel.1.1.1.6" transform="translate(224.3, 36.85)" stroke-width="0.1">
              <g id="Fig:densplot_01.ticklabels.bottom.panel.1.1.1.6.scale" transform="scale(1, -1)">
                <text x="0" y="0" id="Fig:densplot_01.ticklabels.bottom.panel.1.1.1.6.text" text-anchor="middle" stroke="rgb(0,0,0)" opacity="1" fill="rgb(0,0,0)" stroke-opacity="1" fill-opacity="1" font-size="9.6" font-weight="normal" font-style="normal">
                  <tspan id="Fig:densplot_01.ticklabels.bottom.panel.1.1.1.6.tspan.1" dy="7.18" x="0">10</tspan>
                </text>
              </g>
            </g>
            <g id="Fig:densplot_01.ticklabels.bottom.panel.1.1.1.7" transform="translate(256.83, 36.85)" stroke-width="0.1">
              <g id="Fig:densplot_01.ticklabels.bottom.panel.1.1.1.7.scale" transform="scale(1, -1)">
                <text x="0" y="0" id="Fig:densplot_01.ticklabels.bottom.panel.1.1.1.7.text" text-anchor="middle" stroke="rgb(0,0,0)" opacity="1" fill="rgb(0,0,0)" stroke-opacity="1" fill-opacity="1" font-size="9.6" font-weight="normal" font-style="normal">
                  <tspan id="Fig:densplot_01.ticklabels.bottom.panel.1.1.1.7.tspan.1" dy="7.18" x="0">12</tspan>
                </text>
              </g>
            </g>
          </g>
        </g>
        <defs>
          <clipPath id="Fig:densplot_01.panel.1.1.vp.2.clipPath">
            <rect x="50.8" y="48.19" width="225.2" height="194.52" fill="none" stroke="none"/>
          </clipPath>
        </defs>
        <g id="Fig:densplot_01.panel.1.1.vp.2" clip-path="url(#Fig:densplot_01.panel.1.1.vp.2.clipPath)">
          <g id="Fig:densplot_01.xyplot.lines.group.1.panel.1.1.1">
            <polyline id="Fig:densplot_01.xyplot.lines.group.1.panel.1.1.1.1" points="64.8,60.14 65.18,60.15 65.57,60.16 65.96,60.18 66.34,60.2 66.73,60.22 67.11,60.25 67.5,60.28 67.89,60.33 68.27,60.38 68.66,60.44 69.04,60.52 69.43,60.61 69.82,60.72 70.2,60.85 70.59,61 70.97,61.19 71.36,61.4 71.75,61.64 72.13,61.92 72.52,62.25 72.9,62.63 73.29,63.06 73.68,63.54 74.06,64.09 74.45,64.7 74.83,65.4 75.22,66.17 75.61,67.03 75.99,67.96 76.38,68.99 76.76,70.13 77.15,71.37 77.54,72.71 77.92,74.16 78.31,75.71 78.69,77.38 79.08,79.17 79.47,81.08 79.85,83.11 80.24,85.24 80.62,87.49 81.01,89.84 81.4,92.33 81.78,94.93 82.17,97.62 82.55,100.42 82.94,103.31 83.33,106.3 83.71,109.39 84.1,112.56 84.48,115.81 84.87,119.13 85.26,122.52 85.64,125.97 86.03,129.47 86.41,133.03 86.8,136.61 87.19,140.23 87.57,143.86 87.96,147.51 88.34,151.17 88.73,154.81 89.12,158.44 89.5,162.05 89.89,165.62 90.27,169.15 90.66,172.62 91.05,176.02 91.43,179.36 91.82,182.61 92.2,185.79 92.59,188.87 92.98,191.82 93.36,194.68 93.75,197.42 94.13,200.05 94.52,202.56 94.9,204.94 95.29,207.17 95.68,209.27 96.06,211.25 96.45,213.1 96.83,214.83 97.22,216.42 97.61,217.86 97.99,219.18 98.38,220.38 98.76,221.47 99.15,222.44 99.54,223.29 99.92,224.01 100.31,224.64 100.69,225.17 101.08,225.61 101.47,225.95 101.85,226.2 102.24,226.36 102.62,226.44 103.01,226.45 103.4,226.39 103.78,226.27 104.17,226.08 104.55,225.82 104.94,225.5 105.33,225.14 105.71,224.72 106.1,224.26 106.48,223.75 106.87,223.2 107.26,222.6 107.64,221.97 108.03,221.31 108.41,220.61 108.8,219.88 109.19,219.12 109.57,218.34 109.96,217.53 110.34,216.69 110.73,215.84 111.12,214.97 111.5,214.07 111.89,213.16 112.27,212.24 112.66,211.3 113.05,210.34 113.43,209.37 113.82,208.39 114.2,207.39 114.59,206.38 114.98,205.35 115.36,204.31 115.75,203.25 116.13,202.17 116.52,201.08 116.91,199.98 117.29,198.86 117.68,197.72 118.06,196.56 118.45,195.39 118.84,194.21 119.22,193.02 119.61,191.81 119.99,190.6 120.38,189.38 120.77,188.15 121.15,186.92 121.54,185.69 121.92,184.47 122.31,183.24 122.7,182.03 123.08,180.83 123.47,179.64 123.85,178.46 124.24,177.3 124.63,176.15 125.01,175.02 125.4,173.91 125.78,172.82 126.17,171.75 126.56,170.69 126.94,169.65 127.33,168.63 127.71,167.62 128.1,166.62 128.48,165.64 128.87,164.67 129.26,163.7 129.64,162.75 130.03,161.81 130.41,160.87 130.8,159.95 131.19,159.02 131.57,158.11 131.96,157.2 132.34,156.3 132.73,155.41 133.12,154.53 133.5,153.66 133.89,152.8 134.27,151.96 134.66,151.13 135.05,150.32 135.43,149.52 135.82,148.75 136.2,148 136.59,147.27 136.98,146.56 137.36,145.88 137.75,145.23 138.13,144.6 138.52,144 138.91,143.43 139.29,142.88 139.68,142.36 140.06,141.87 140.45,141.4 140.84,140.96 141.22,140.55 141.61,140.16 141.99,139.78 142.38,139.43 142.77,139.09 143.15,138.77 143.54,138.46 143.92,138.16 144.31,137.87 144.7,137.59 145.08,137.32 145.47,137.04 145.85,136.77 146.24,136.5 146.63,136.23 147.01,135.96 147.4,135.69 147.78,135.42 148.17,135.14 148.56,134.86 148.94,134.58 149.33,134.3 149.71,134.02 150.1,133.74 150.49,133.47 150.87,133.2 151.26,132.94 151.64,132.68 152.03,132.44 152.42,132.21 152.8,132 153.19,131.8 153.57,131.62 153.96,131.47 154.35,131.33 154.73,131.23 155.12,131.14 155.5,131.09 155.89,131.06 156.28,131.05 156.66,131.08 157.05,131.13 157.43,131.21 157.82,131.31 158.21,131.44 158.59,131.59 158.98,131.77 159.36,131.97 159.75,132.18 160.14,132.41 160.52,132.65 160.91,132.91 161.29,133.17 161.68,133.45 162.07,133.73 162.45,134.01 162.84,134.29 163.22,134.58 163.61,134.86 163.99,135.14 164.38,135.41 164.77,135.68 165.15,135.94 165.54,136.2 165.92,136.45 166.31,136.7 166.7,136.95 167.08,137.19 167.47,137.43 167.85,137.67 168.24,137.92 168.63,138.18 169.01,138.44 169.4,138.72 169.78,139 170.17,139.31 170.56,139.63 170.94,139.97 171.33,140.34 171.71,140.73 172.1,141.14 172.49,141.58 172.87,142.05 173.26,142.54 173.64,143.06 174.03,143.6 174.42,144.16 174.8,144.73 175.19,145.33 175.57,145.94 175.96,146.55 176.35,147.18 176.73,147.8 177.12,148.42 177.5,149.03 177.89,149.63 178.28,150.22 178.66,150.78 179.05,151.32 179.43,151.84 179.82,152.32 180.21,152.77 180.59,153.19 180.98,153.57 181.36,153.92 181.75,154.23 182.14,154.5 182.52,154.74 182.91,154.94 183.29,155.11 183.68,155.24 184.07,155.35 184.45,155.43 184.84,155.49 185.22,155.52 185.61,155.54 186,155.54 186.38,155.53 186.77,155.5 187.15,155.47 187.54,155.42 187.93,155.37 188.31,155.31 188.7,155.25 189.08,155.17 189.47,155.09 189.86,155.01 190.24,154.92 190.63,154.81 191.01,154.7 191.4,154.58 191.79,154.45 192.17,154.3 192.56,154.14 192.94,153.96 193.33,153.77 193.72,153.56 194.1,153.34 194.49,153.09 194.87,152.83 195.26,152.55 195.65,152.25 196.03,151.93 196.42,151.59 196.8,151.23 197.19,150.86 197.57,150.47 197.96,150.05 198.35,149.62 198.73,149.17 199.12,148.7 199.5,148.22 199.89,147.72 200.28,147.2 200.66,146.67 201.05,146.12 201.43,145.56 201.82,144.98 202.21,144.39 202.59,143.79 202.98,143.18 203.36,142.56 203.75,141.92 204.14,141.28 204.52,140.64 204.91,139.98 205.29,139.32 205.68,138.65 206.07,137.98 206.45,137.31 206.84,136.63 207.22,135.96 207.61,135.27 208,134.59 208.38,133.91 208.77,133.22 209.15,132.53 209.54,131.84 209.93,131.15 210.31,130.45 210.7,129.75 211.08,129.05 211.47,128.35 211.86,127.64 212.24,126.92 212.63,126.2 213.01,125.47 213.4,124.74 213.79,124 214.17,123.26 214.56,122.51 214.94,121.75 215.33,120.99 215.72,120.23 216.1,119.46 216.49,118.68 216.87,117.9 217.26,117.12 217.65,116.33 218.03,115.54 218.42,114.76 218.8,113.97 219.19,113.18 219.58,112.39 219.96,111.61 220.35,110.83 220.73,110.05 221.12,109.28 221.51,108.52 221.89,107.76 222.28,107 222.66,106.26 223.05,105.52 223.44,104.79 223.82,104.07 224.21,103.35 224.59,102.64 224.98,101.94 225.37,101.25 225.75,100.57 226.14,99.89 226.52,99.23 226.91,98.56 227.3,97.91 227.68,97.26 228.07,96.62 228.45,95.99 228.84,95.36 229.23,94.74 229.61,94.12 230,93.51 230.38,92.91 230.77,92.32 231.16,91.73 231.54,91.15 231.93,90.58 232.31,90.02 232.7,89.46 233.08,88.91 233.47,88.37 233.86,87.84 234.24,87.32 234.63,86.8 235.01,86.29 235.4,85.79 235.79,85.29 236.17,84.8 236.56,84.31 236.94,83.83 237.33,83.35 237.72,82.87 238.1,82.39 238.49,81.91 238.87,81.42 239.26,80.93 239.65,80.44 240.03,79.93 240.42,79.42 240.8,78.91 241.19,78.38 241.58,77.84 241.96,77.29 242.35,76.72 242.73,76.15 243.12,75.56 243.51,74.97 243.89,74.36 244.28,73.74 244.66,73.12 245.05,72.49 245.44,71.86 245.82,71.23 246.21,70.6 246.59,69.97 246.98,69.35 247.37,68.74 247.75,68.14 248.14,67.55 248.52,66.98 248.91,66.43 249.3,65.91 249.68,65.4 250.07,64.92 250.45,64.46 250.84,64.03 251.23,63.63 251.61,63.25 252,62.91 252.38,62.58 252.77,62.29 253.16,62.02 253.54,61.78 253.93,61.56 254.31,61.37 254.7,61.19 255.09,61.03 255.47,60.9 255.86,60.78 256.24,60.68 256.63,60.58 257.02,60.51 257.4,60.44 257.79,60.38 258.17,60.34 258.56,60.29 258.95,60.26 259.33,60.23 259.72,60.21 260.1,60.19 260.49,60.17 260.88,60.16 261.26,60.15 261.65,60.14 262.03,60.14" stroke-dasharray="none" stroke="rgb(228,26,28)" stroke-width="0.75" opacity="1" stroke-opacity="1" fill="none"/>
          </g>
          <g id="Fig:densplot_01.xyplot.lines.group.2.panel.1.1.1">
            <polyline id="Fig:densplot_01.xyplot.lines.group.2.panel.1.1.1.1" points="64.63,60.15 65.02,60.16 65.4,60.17 65.79,60.18 66.18,60.2 66.56,60.23 66.95,60.26 67.34,60.29 67.72,60.34 68.11,60.39 68.5,60.46 68.88,60.54 69.27,60.64 69.66,60.76 70.04,60.89 70.43,61.06 70.82,61.25 71.2,61.48 71.59,61.74 71.98,62.04 72.36,62.39 72.75,62.79 73.14,63.26 73.52,63.78 73.91,64.37 74.3,65.03 74.68,65.78 75.07,66.62 75.46,67.55 75.84,68.58 76.23,69.71 76.62,70.95 77,72.3 77.39,73.79 77.78,75.39 78.16,77.12 78.55,78.98 78.94,80.96 79.32,83.07 79.71,85.34 80.09,87.74 80.48,90.26 80.87,92.91 81.25,95.68 81.64,98.58 82.03,101.62 82.41,104.76 82.8,108.01 83.19,111.35 83.57,114.79 83.96,118.32 84.35,121.94 84.73,125.61 85.12,129.35 85.51,133.13 85.89,136.95 86.28,140.8 86.67,144.67 87.05,148.53 87.44,152.39 87.83,156.23 88.21,160.05 88.6,163.81 88.99,167.52 89.37,171.16 89.76,174.73 90.15,178.21 90.53,181.61 90.92,184.88 91.31,188.03 91.69,191.08 92.08,193.99 92.47,196.79 92.85,199.45 93.24,201.94 93.62,204.3 94.01,206.52 94.4,208.61 94.78,210.55 95.17,212.36 95.56,214.01 95.94,215.53 96.33,216.92 96.72,218.2 97.1,219.35 97.49,220.39 97.88,221.3 98.26,222.11 98.65,222.82 99.04,223.43 99.42,223.96 99.81,224.4 100.2,224.74 100.58,225.01 100.97,225.21 101.36,225.33 101.74,225.38 102.13,225.36 102.52,225.27 102.9,225.12 103.29,224.91 103.68,224.64 104.06,224.32 104.45,223.93 104.84,223.48 105.22,222.99 105.61,222.44 106,221.85 106.38,221.22 106.77,220.54 107.16,219.81 107.54,219.05 107.93,218.25 108.31,217.42 108.7,216.56 109.09,215.67 109.47,214.76 109.86,213.82 110.25,212.86 110.63,211.88 111.02,210.89 111.41,209.88 111.79,208.86 112.18,207.83 112.57,206.78 112.95,205.73 113.34,204.68 113.73,203.61 114.11,202.54 114.5,201.47 114.89,200.39 115.27,199.3 115.66,198.22 116.05,197.13 116.43,196.03 116.82,194.93 117.21,193.83 117.59,192.73 117.98,191.62 118.37,190.51 118.75,189.4 119.14,188.28 119.53,187.15 119.91,186.02 120.3,184.89 120.69,183.75 121.07,182.6 121.46,181.45 121.84,180.3 122.23,179.14 122.62,177.97 123,176.81 123.39,175.63 123.78,174.46 124.16,173.29 124.55,172.12 124.94,170.95 125.32,169.78 125.71,168.62 126.1,167.47 126.48,166.32 126.87,165.18 127.26,164.06 127.64,162.96 128.03,161.86 128.42,160.79 128.8,159.73 129.19,158.69 129.58,157.67 129.96,156.67 130.35,155.69 130.74,154.74 131.12,153.81 131.51,152.89 131.9,152.01 132.28,151.15 132.67,150.31 133.06,149.49 133.44,148.7 133.83,147.93 134.22,147.19 134.6,146.47 134.99,145.78 135.38,145.11 135.76,144.46 136.15,143.83 136.53,143.24 136.92,142.67 137.31,142.12 137.69,141.59 138.08,141.08 138.47,140.6 138.85,140.15 139.24,139.72 139.63,139.31 140.01,138.92 140.4,138.55 140.79,138.2 141.17,137.87 141.56,137.56 141.95,137.26 142.33,136.98 142.72,136.72 143.11,136.46 143.49,136.22 143.88,135.99 144.27,135.77 144.65,135.55 145.04,135.35 145.43,135.14 145.81,134.95 146.2,134.76 146.59,134.57 146.97,134.38 147.36,134.2 147.75,134.03 148.13,133.85 148.52,133.68 148.91,133.52 149.29,133.36 149.68,133.2 150.07,133.05 150.45,132.9 150.84,132.76 151.22,132.62 151.61,132.49 152,132.37 152.38,132.26 152.77,132.15 153.16,132.05 153.54,131.96 153.93,131.88 154.32,131.8 154.7,131.73 155.09,131.68 155.48,131.63 155.86,131.59 156.25,131.56 156.64,131.54 157.02,131.53 157.41,131.52 157.8,131.54 158.18,131.56 158.57,131.59 158.96,131.63 159.34,131.69 159.73,131.76 160.12,131.85 160.5,131.95 160.89,132.06 161.28,132.19 161.66,132.34 162.05,132.51 162.44,132.69 162.82,132.89 163.21,133.11 163.6,133.34 163.98,133.6 164.37,133.87 164.75,134.16 165.14,134.47 165.53,134.8 165.91,135.15 166.3,135.51 166.69,135.9 167.07,136.29 167.46,136.71 167.85,137.13 168.23,137.58 168.62,138.03 169.01,138.5 169.39,138.98 169.78,139.47 170.17,139.97 170.55,140.47 170.94,140.98 171.33,141.5 171.71,142.02 172.1,142.54 172.49,143.06 172.87,143.58 173.26,144.1 173.65,144.62 174.03,145.13 174.42,145.64 174.81,146.14 175.19,146.64 175.58,147.13 175.97,147.61 176.35,148.08 176.74,148.55 177.13,149.01 177.51,149.45 177.9,149.89 178.29,150.31 178.67,150.73 179.06,151.13 179.44,151.52 179.83,151.9 180.22,152.27 180.6,152.62 180.99,152.96 181.38,153.28 181.76,153.6 182.15,153.89 182.54,154.17 182.92,154.44 183.31,154.69 183.7,154.93 184.08,155.15 184.47,155.36 184.86,155.55 185.24,155.72 185.63,155.89 186.02,156.03 186.4,156.17 186.79,156.28 187.18,156.39 187.56,156.47 187.95,156.55 188.34,156.61 188.72,156.65 189.11,156.68 189.5,156.69 189.88,156.68 190.27,156.66 190.66,156.62 191.04,156.55 191.43,156.47 191.82,156.36 192.2,156.23 192.59,156.08 192.98,155.91 193.36,155.7 193.75,155.47 194.13,155.22 194.52,154.94 194.91,154.64 195.29,154.32 195.68,153.96 196.07,153.58 196.45,153.18 196.84,152.76 197.23,152.32 197.61,151.86 198,151.38 198.39,150.88 198.77,150.37 199.16,149.84 199.55,149.3 199.93,148.75 200.32,148.19 200.71,147.62 201.09,147.04 201.48,146.45 201.87,145.85 202.25,145.25 202.64,144.64 203.03,144.02 203.41,143.4 203.8,142.77 204.19,142.14 204.57,141.5 204.96,140.85 205.35,140.19 205.73,139.52 206.12,138.85 206.51,138.17 206.89,137.48 207.28,136.78 207.66,136.07 208.05,135.35 208.44,134.62 208.82,133.88 209.21,133.13 209.6,132.38 209.98,131.62 210.37,130.85 210.76,130.08 211.14,129.3 211.53,128.51 211.92,127.72 212.3,126.93 212.69,126.14 213.08,125.35 213.46,124.56 213.85,123.76 214.24,122.97 214.62,122.18 215.01,121.4 215.4,120.61 215.78,119.83 216.17,119.05 216.56,118.28 216.94,117.51 217.33,116.74 217.72,115.97 218.1,115.21 218.49,114.44 218.88,113.68 219.26,112.93 219.65,112.17 220.04,111.41 220.42,110.66 220.81,109.91 221.2,109.16 221.58,108.41 221.97,107.66 222.35,106.92 222.74,106.18 223.13,105.44 223.51,104.71 223.9,103.98 224.29,103.25 224.67,102.54 225.06,101.83 225.45,101.12 225.83,100.43 226.22,99.74 226.61,99.06 226.99,98.39 227.38,97.73 227.77,97.08 228.15,96.44 228.54,95.81 228.93,95.19 229.31,94.57 229.7,93.97 230.09,93.38 230.47,92.8 230.86,92.23 231.25,91.67 231.63,91.11 232.02,90.57 232.41,90.04 232.79,89.51 233.18,88.99 233.57,88.47 233.95,87.97 234.34,87.47 234.73,86.97 235.11,86.48 235.5,86 235.88,85.52 236.27,85.04 236.66,84.56 237.04,84.09 237.43,83.62 237.82,83.14 238.2,82.66 238.59,82.18 238.98,81.7 239.36,81.21 239.75,80.71 240.14,80.21 240.52,79.7 240.91,79.18 241.3,78.64 241.68,78.1 242.07,77.54 242.46,76.97 242.84,76.39 243.23,75.8 243.62,75.2 244,74.58 244.39,73.96 244.78,73.33 245.16,72.7 245.55,72.06 245.94,71.42 246.32,70.78 246.71,70.14 247.1,69.51 247.48,68.89 247.87,68.28 248.26,67.69 248.64,67.11 249.03,66.55 249.42,66.01 249.8,65.5 250.19,65.01 250.57,64.54 250.96,64.11 251.35,63.7 251.73,63.31 252.12,62.96 252.51,62.63 252.89,62.34 253.28,62.06 253.67,61.82 254.05,61.59 254.44,61.39 254.83,61.21 255.21,61.06 255.6,60.92 255.99,60.79 256.37,60.69 256.76,60.59 257.15,60.52 257.53,60.45 257.92,60.39 258.31,60.34 258.69,60.3 259.08,60.26 259.47,60.24 259.85,60.21 260.24,60.19 260.63,60.18 261.01,60.16 261.4,60.15 261.79,60.14 262.17,60.14" stroke-dasharray="none" stroke="rgb(228,26,28)" stroke-width="0.75" opacity="1" stroke-opacity="1" fill="none"/>
          </g>
          <g id="Fig:densplot_01.xyplot.lines.group.3.panel.1.1.1">
            <polyline id="Fig:densplot_01.xyplot.lines.group.3.panel.1.1.1.1" points="64.81,60.15 65.2,60.16 65.58,60.17 65.97,60.19 66.36,60.21 66.74,60.23 67.13,60.27 67.51,60.3 67.9,60.35 68.28,60.41 68.67,60.48 69.06,60.56 69.44,60.66 69.83,60.78 70.21,60.92 70.6,61.09 70.99,61.28 71.37,61.51 71.76,61.77 72.14,62.07 72.53,62.42 72.92,62.83 73.3,63.28 73.69,63.8 74.07,64.37 74.46,65.02 74.85,65.75 75.23,66.57 75.62,67.47 76,68.45 76.39,69.53 76.78,70.72 77.16,72.02 77.55,73.43 77.93,74.95 78.32,76.58 78.7,78.32 79.09,80.18 79.48,82.19 79.86,84.3 80.25,86.54 80.63,88.88 81.02,91.34 81.41,93.92 81.79,96.63 82.18,99.44 82.56,102.34 82.95,105.34 83.34,108.43 83.72,111.61 84.11,114.88 84.49,118.22 84.88,121.62 85.27,125.07 85.65,128.56 86.04,132.11 86.42,135.68 86.81,139.27 87.19,142.87 87.58,146.48 87.97,150.08 88.35,153.66 88.74,157.22 89.12,160.74 89.51,164.23 89.9,167.66 90.28,171.04 90.67,174.34 91.05,177.57 91.44,180.72 91.83,183.78 92.21,186.76 92.6,189.64 92.98,192.4 93.37,195.06 93.76,197.61 94.14,200.05 94.53,202.38 94.91,204.6 95.3,206.68 95.68,208.65 96.07,210.5 96.46,212.24 96.84,213.87 97.23,215.39 97.61,216.78 98,218.06 98.39,219.25 98.77,220.33 99.16,221.32 99.54,222.21 99.93,223 100.32,223.69 100.7,224.31 101.09,224.84 101.47,225.3 101.86,225.68 102.25,225.97 102.63,226.19 103.02,226.35 103.4,226.44 103.79,226.46 104.18,226.42 104.56,226.31 104.95,226.14 105.33,225.92 105.72,225.64 106.1,225.31 106.49,224.92 106.88,224.48 107.26,223.99 107.65,223.46 108.03,222.89 108.42,222.27 108.81,221.62 109.19,220.92 109.58,220.19 109.96,219.44 110.35,218.65 110.74,217.83 111.12,216.99 111.51,216.13 111.89,215.24 112.28,214.33 112.67,213.4 113.05,212.46 113.44,211.5 113.82,210.52 114.21,209.52 114.59,208.51 114.98,207.49 115.37,206.46 115.75,205.41 116.14,204.34 116.52,203.27 116.91,202.19 117.3,201.09 117.68,199.99 118.07,198.87 118.45,197.75 118.84,196.61 119.23,195.48 119.61,194.33 120,193.18 120.38,192.03 120.77,190.87 121.16,189.71 121.54,188.54 121.93,187.37 122.31,186.2 122.7,185.03 123.08,183.85 123.47,182.67 123.86,181.49 124.24,180.31 124.63,179.12 125.01,177.93 125.4,176.74 125.79,175.54 126.17,174.35 126.56,173.15 126.94,171.95 127.33,170.74 127.72,169.54 128.1,168.34 128.49,167.13 128.87,165.93 129.26,164.73 129.65,163.54 130.03,162.35 130.42,161.18 130.8,160 131.19,158.85 131.58,157.7 131.96,156.57 132.35,155.46 132.73,154.36 133.12,153.29 133.5,152.24 133.89,151.21 134.28,150.21 134.66,149.24 135.05,148.29 135.43,147.38 135.82,146.49 136.21,145.64 136.59,144.82 136.98,144.04 137.36,143.28 137.75,142.55 138.14,141.86 138.52,141.2 138.91,140.57 139.29,139.96 139.68,139.39 140.07,138.84 140.45,138.31 140.84,137.81 141.22,137.33 141.61,136.88 141.99,136.44 142.38,136.02 142.77,135.61 143.15,135.22 143.54,134.85 143.92,134.5 144.31,134.15 144.7,133.82 145.08,133.5 145.47,133.2 145.85,132.91 146.24,132.63 146.63,132.37 147.01,132.12 147.4,131.88 147.78,131.67 148.17,131.46 148.56,131.27 148.94,131.1 149.33,130.94 149.71,130.8 150.1,130.68 150.48,130.57 150.87,130.48 151.26,130.4 151.64,130.33 152.03,130.27 152.41,130.23 152.8,130.2 153.19,130.17 153.57,130.16 153.96,130.15 154.34,130.15 154.73,130.16 155.12,130.17 155.5,130.19 155.89,130.21 156.27,130.23 156.66,130.27 157.05,130.3 157.43,130.35 157.82,130.4 158.2,130.45 158.59,130.52 158.97,130.59 159.36,130.68 159.75,130.77 160.13,130.88 160.52,130.99 160.9,131.12 161.29,131.26 161.68,131.41 162.06,131.57 162.45,131.75 162.83,131.94 163.22,132.13 163.61,132.34 163.99,132.56 164.38,132.8 164.76,133.04 165.15,133.29 165.54,133.55 165.92,133.82 166.31,134.1 166.69,134.39 167.08,134.7 167.47,135.02 167.85,135.35 168.24,135.7 168.62,136.06 169.01,136.44 169.39,136.84 169.78,137.26 170.17,137.7 170.55,138.17 170.94,138.65 171.32,139.16 171.71,139.69 172.1,140.24 172.48,140.8 172.87,141.39 173.25,142 173.64,142.62 174.03,143.25 174.41,143.89 174.8,144.54 175.18,145.19 175.57,145.84 175.96,146.48 176.34,147.12 176.73,147.75 177.11,148.37 177.5,148.97 177.88,149.55 178.27,150.11 178.66,150.64 179.04,151.15 179.43,151.64 179.81,152.09 180.2,152.51 180.59,152.91 180.97,153.27 181.36,153.61 181.74,153.92 182.13,154.19 182.52,154.44 182.9,154.66 183.29,154.85 183.67,155.02 184.06,155.17 184.45,155.29 184.83,155.39 185.22,155.48 185.6,155.54 185.99,155.6 186.37,155.64 186.76,155.66 187.15,155.68 187.53,155.69 187.92,155.69 188.3,155.69 188.69,155.68 189.08,155.66 189.46,155.64 189.85,155.62 190.23,155.59 190.62,155.56 191.01,155.52 191.39,155.48 191.78,155.42 192.16,155.36 192.55,155.29 192.94,155.2 193.32,155.09 193.71,154.97 194.09,154.83 194.48,154.66 194.87,154.48 195.25,154.27 195.64,154.03 196.02,153.76 196.41,153.47 196.79,153.15 197.18,152.79 197.57,152.42 197.95,152 198.34,151.56 198.72,151.09 199.11,150.6 199.5,150.09 199.88,149.54 200.27,148.98 200.65,148.39 201.04,147.79 201.43,147.17 201.81,146.53 202.2,145.88 202.58,145.22 202.97,144.54 203.36,143.85 203.74,143.16 204.13,142.46 204.51,141.75 204.9,141.04 205.28,140.32 205.67,139.59 206.06,138.86 206.44,138.13 206.83,137.4 207.21,136.66 207.6,135.92 207.99,135.17 208.37,134.43 208.76,133.68 209.14,132.93 209.53,132.19 209.92,131.44 210.3,130.69 210.69,129.93 211.07,129.18 211.46,128.43 211.85,127.68 212.23,126.93 212.62,126.18 213,125.43 213.39,124.68 213.77,123.92 214.16,123.17 214.55,122.41 214.93,121.65 215.32,120.89 215.7,120.12 216.09,119.36 216.48,118.58 216.86,117.8 217.25,117.02 217.63,116.23 218.02,115.44 218.41,114.65 218.79,113.85 219.18,113.05 219.56,112.24 219.95,111.44 220.34,110.63 220.72,109.82 221.11,109.02 221.49,108.22 221.88,107.42 222.27,106.63 222.65,105.84 223.04,105.07 223.42,104.3 223.81,103.54 224.19,102.8 224.58,102.06 224.97,101.34 225.35,100.63 225.74,99.93 226.12,99.25 226.51,98.58 226.9,97.91 227.28,97.27 227.67,96.63 228.05,96.01 228.44,95.39 228.83,94.79 229.21,94.19 229.6,93.6 229.98,93.02 230.37,92.45 230.76,91.89 231.14,91.33 231.53,90.77 231.91,90.23 232.3,89.69 232.68,89.15 233.07,88.62 233.46,88.09 233.84,87.57 234.23,87.06 234.61,86.55 235,86.05 235.39,85.56 235.77,85.06 236.16,84.58 236.54,84.1 236.93,83.62 237.32,83.15 237.7,82.68 238.09,82.21 238.47,81.74 238.86,81.27 239.25,80.8 239.63,80.33 240.02,79.85 240.4,79.36 240.79,78.86 241.17,78.36 241.56,77.85 241.95,77.32 242.33,76.78 242.72,76.23 243.1,75.67 243.49,75.09 243.88,74.51 244.26,73.91 244.65,73.3 245.03,72.69 245.42,72.07 245.81,71.44 246.19,70.82 246.58,70.19 246.96,69.57 247.35,68.96 247.74,68.35 248.12,67.76 248.51,67.19 248.89,66.63 249.28,66.09 249.67,65.57 250.05,65.08 250.44,64.61 250.82,64.17 251.21,63.76 251.59,63.37 251.98,63.01 252.37,62.67 252.75,62.37 253.14,62.09 253.52,61.84 253.91,61.62 254.3,61.41 254.68,61.23 255.07,61.07 255.45,60.93 255.84,60.8 256.23,60.69 256.61,60.6 257,60.52 257.38,60.45 257.77,60.39 258.16,60.34 258.54,60.3 258.93,60.26 259.31,60.24 259.7,60.21 260.08,60.19 260.47,60.18 260.86,60.16 261.24,60.15 261.63,60.14 262.01,60.14" stroke-dasharray="none" stroke="rgb(228,26,28)" stroke-width="0.75" opacity="1" stroke-opacity="1" fill="none"/>
          </g>
          <g id="Fig:densplot_01.xyplot.lines.group.4.panel.1.1.1">
            <polyline id="Fig:densplot_01.xyplot.lines.group.4.panel.1.1.1.1" points="64.73,60.15 65.12,60.16 65.51,60.17 65.89,60.19 66.28,60.21 66.66,60.24 67.05,60.27 67.44,60.31 67.82,60.36 68.21,60.42 68.6,60.49 68.98,60.58 69.37,60.68 69.75,60.8 70.14,60.95 70.53,61.12 70.91,61.33 71.3,61.56 71.69,61.84 72.07,62.15 72.46,62.52 72.84,62.94 73.23,63.42 73.62,63.96 74,64.57 74.39,65.24 74.77,66.01 75.16,66.87 75.55,67.82 75.93,68.85 76.32,69.99 76.71,71.22 77.09,72.59 77.48,74.06 77.86,75.65 78.25,77.35 78.64,79.16 79.02,81.09 79.41,83.17 79.8,85.36 80.18,87.66 80.57,90.07 80.95,92.6 81.34,95.23 81.73,97.98 82.11,100.83 82.5,103.77 82.89,106.79 83.27,109.89 83.66,113.07 84.04,116.32 84.43,119.64 84.82,123 85.2,126.4 85.59,129.84 85.98,133.31 86.36,136.81 86.75,140.32 87.13,143.83 87.52,147.35 87.91,150.85 88.29,154.35 88.68,157.81 89.06,161.26 89.45,164.66 89.84,168.03 90.22,171.36 90.61,174.63 91,177.84 91.38,180.98 91.77,184.06 92.15,187.07 92.54,190.01 92.93,192.86 93.31,195.61 93.7,198.28 94.09,200.86 94.47,203.34 94.86,205.73 95.24,207.99 95.63,210.15 96.02,212.2 96.4,214.15 96.79,215.99 97.18,217.72 97.56,219.31 97.95,220.79 98.33,222.15 98.72,223.4 99.11,224.54 99.49,225.57 99.88,226.46 100.27,227.23 100.65,227.9 101.04,228.46 101.42,228.92 101.81,229.27 102.2,229.49 102.58,229.62 102.97,229.65 103.35,229.59 103.74,229.45 104.13,229.22 104.51,228.89 104.9,228.48 105.29,228.01 105.67,227.48 106.06,226.88 106.44,226.22 106.83,225.51 107.22,224.75 107.6,223.96 107.99,223.13 108.38,222.27 108.76,221.38 109.15,220.48 109.53,219.55 109.92,218.62 110.31,217.68 110.69,216.73 111.08,215.78 111.47,214.83 111.85,213.89 112.24,212.94 112.62,212 113.01,211.06 113.4,210.12 113.78,209.19 114.17,208.26 114.56,207.33 114.94,206.4 115.33,205.47 115.71,204.53 116.1,203.58 116.49,202.62 116.87,201.65 117.26,200.66 117.65,199.66 118.03,198.64 118.42,197.6 118.8,196.53 119.19,195.45 119.58,194.34 119.96,193.21 120.35,192.05 120.73,190.87 121.12,189.66 121.51,188.44 121.89,187.2 122.28,185.94 122.67,184.66 123.05,183.37 123.44,182.07 123.82,180.76 124.21,179.45 124.6,178.14 124.98,176.83 125.37,175.53 125.76,174.24 126.14,172.96 126.53,171.69 126.91,170.44 127.3,169.21 127.69,168.01 128.07,166.82 128.46,165.67 128.85,164.53 129.23,163.43 129.62,162.35 130,161.31 130.39,160.29 130.78,159.3 131.16,158.33 131.55,157.39 131.94,156.47 132.32,155.58 132.71,154.7 133.09,153.85 133.48,153.01 133.87,152.19 134.25,151.38 134.64,150.58 135.02,149.8 135.41,149.03 135.8,148.26 136.18,147.51 136.57,146.77 136.96,146.03 137.34,145.31 137.73,144.59 138.11,143.89 138.5,143.2 138.89,142.52 139.27,141.85 139.66,141.2 140.05,140.57 140.43,139.95 140.82,139.36 141.2,138.78 141.59,138.23 141.98,137.69 142.36,137.18 142.75,136.68 143.14,136.21 143.52,135.76 143.91,135.33 144.29,134.92 144.68,134.52 145.07,134.14 145.45,133.79 145.84,133.44 146.23,133.11 146.61,132.79 147,132.48 147.38,132.18 147.77,131.9 148.16,131.62 148.54,131.35 148.93,131.09 149.31,130.83 149.7,130.58 150.09,130.35 150.47,130.12 150.86,129.9 151.25,129.69 151.63,129.5 152.02,129.31 152.4,129.14 152.79,128.98 153.18,128.84 153.56,128.71 153.95,128.6 154.34,128.5 154.72,128.43 155.11,128.37 155.49,128.34 155.88,128.32 156.27,128.32 156.65,128.34 157.04,128.38 157.43,128.44 157.81,128.52 158.2,128.61 158.58,128.72 158.97,128.85 159.36,128.99 159.74,129.15 160.13,129.32 160.52,129.5 160.9,129.69 161.29,129.89 161.67,130.11 162.06,130.33 162.45,130.56 162.83,130.81 163.22,131.06 163.61,131.32 163.99,131.59 164.38,131.86 164.76,132.15 165.15,132.45 165.54,132.76 165.92,133.08 166.31,133.42 166.69,133.76 167.08,134.12 167.47,134.5 167.85,134.88 168.24,135.28 168.63,135.7 169.01,136.13 169.4,136.58 169.78,137.03 170.17,137.5 170.56,137.99 170.94,138.49 171.33,139 171.72,139.51 172.1,140.04 172.49,140.57 172.87,141.11 173.26,141.66 173.65,142.21 174.03,142.76 174.42,143.31 174.81,143.86 175.19,144.4 175.58,144.94 175.96,145.48 176.35,146.01 176.74,146.53 177.12,147.05 177.51,147.55 177.9,148.04 178.28,148.52 178.67,148.99 179.05,149.44 179.44,149.88 179.83,150.3 180.21,150.71 180.6,151.1 180.98,151.48 181.37,151.84 181.76,152.18 182.14,152.5 182.53,152.8 182.92,153.09 183.3,153.36 183.69,153.61 184.07,153.84 184.46,154.06 184.85,154.25 185.23,154.43 185.62,154.6 186.01,154.74 186.39,154.87 186.78,154.98 187.16,155.08 187.55,155.16 187.94,155.23 188.32,155.28 188.71,155.32 189.1,155.35 189.48,155.36 189.87,155.36 190.25,155.35 190.64,155.33 191.03,155.29 191.41,155.24 191.8,155.18 192.19,155.1 192.57,155.01 192.96,154.91 193.34,154.78 193.73,154.64 194.12,154.48 194.5,154.3 194.89,154.1 195.27,153.88 195.66,153.62 196.05,153.34 196.43,153.03 196.82,152.69 197.21,152.33 197.59,151.93 197.98,151.49 198.36,151.02 198.75,150.52 199.14,149.99 199.52,149.43 199.91,148.84 200.3,148.22 200.68,147.57 201.07,146.9 201.45,146.21 201.84,145.51 202.23,144.79 202.61,144.05 203,143.31 203.39,142.56 203.77,141.81 204.16,141.06 204.54,140.31 204.93,139.56 205.32,138.82 205.7,138.08 206.09,137.36 206.48,136.64 206.86,135.92 207.25,135.22 207.63,134.53 208.02,133.85 208.41,133.17 208.79,132.5 209.18,131.83 209.57,131.17 209.95,130.51 210.34,129.85 210.72,129.2 211.11,128.54 211.5,127.88 211.88,127.21 212.27,126.54 212.65,125.87 213.04,125.19 213.43,124.5 213.81,123.81 214.2,123.11 214.59,122.4 214.97,121.69 215.36,120.96 215.74,120.24 216.13,119.5 216.52,118.76 216.9,118.02 217.29,117.27 217.68,116.51 218.06,115.76 218.45,114.99 218.83,114.23 219.22,113.47 219.61,112.7 219.99,111.93 220.38,111.16 220.77,110.39 221.15,109.62 221.54,108.86 221.92,108.09 222.31,107.33 222.7,106.57 223.08,105.81 223.47,105.06 223.86,104.31 224.24,103.56 224.63,102.82 225.01,102.08 225.4,101.35 225.79,100.62 226.17,99.9 226.56,99.19 226.94,98.48 227.33,97.78 227.72,97.09 228.1,96.4 228.49,95.72 228.88,95.05 229.26,94.39 229.65,93.74 230.03,93.09 230.42,92.46 230.81,91.83 231.19,91.22 231.58,90.61 231.97,90.01 232.35,89.43 232.74,88.85 233.12,88.29 233.51,87.73 233.9,87.19 234.28,86.65 234.67,86.13 235.06,85.61 235.44,85.1 235.83,84.6 236.21,84.11 236.6,83.62 236.99,83.14 237.37,82.67 237.76,82.2 238.15,81.73 238.53,81.26 238.92,80.79 239.3,80.32 239.69,79.84 240.08,79.36 240.46,78.87 240.85,78.38 241.23,77.88 241.62,77.37 242.01,76.85 242.39,76.31 242.78,75.77 243.17,75.22 243.55,74.65 243.94,74.08 244.32,73.5 244.71,72.91 245.1,72.31 245.48,71.71 245.87,71.1 246.26,70.5 246.64,69.9 247.03,69.3 247.41,68.71 247.8,68.12 248.19,67.55 248.57,67 248.96,66.46 249.35,65.94 249.73,65.44 250.12,64.96 250.5,64.51 250.89,64.09 251.28,63.68 251.66,63.31 252.05,62.96 252.44,62.63 252.82,62.34 253.21,62.07 253.59,61.83 253.98,61.6 254.37,61.4 254.75,61.22 255.14,61.06 255.53,60.93 255.91,60.8 256.3,60.7 256.68,60.6 257.07,60.52 257.46,60.45 257.84,60.39 258.23,60.34 258.61,60.3 259,60.27 259.39,60.24 259.77,60.21 260.16,60.19 260.55,60.18 260.93,60.16 261.32,60.15 261.7,60.14 262.09,60.14" stroke-dasharray="none" stroke="rgb(228,26,28)" stroke-width="0.75" opacity="1" stroke-opacity="1" fill="none"/>
          </g>
          <g id="Fig:densplot_01.xyplot.lines.group.5.panel.1.1.1">
            <polyline id="Fig:densplot_01.xyplot.lines.group.5.panel.1.1.1.1" points="64.71,60.15 65.1,60.16 65.49,60.18 65.87,60.2 66.26,60.22 66.65,60.25 67.03,60.28 67.42,60.33 67.8,60.38 68.19,60.45 68.58,60.52 68.96,60.62 69.35,60.73 69.74,60.86 70.12,61.02 70.51,61.21 70.9,61.43 71.28,61.68 71.67,61.97 72.05,62.31 72.44,62.7 72.83,63.15 73.21,63.66 73.6,64.23 73.99,64.87 74.37,65.59 74.76,66.4 75.14,67.31 75.53,68.3 75.92,69.39 76.3,70.59 76.69,71.88 77.08,73.31 77.46,74.86 77.85,76.52 78.23,78.3 78.62,80.19 79.01,82.21 79.39,84.37 79.78,86.65 80.17,89.05 80.55,91.57 80.94,94.19 81.33,96.93 81.71,99.79 82.1,102.76 82.48,105.81 82.87,108.95 83.26,112.17 83.64,115.47 84.03,118.84 84.42,122.27 84.8,125.75 85.19,129.26 85.57,132.81 85.96,136.38 86.35,139.97 86.73,143.55 87.12,147.13 87.51,150.7 87.89,154.24 88.28,157.75 88.67,161.21 89.05,164.62 89.44,167.97 89.82,171.26 90.21,174.49 90.6,177.62 90.98,180.67 91.37,183.62 91.76,186.48 92.14,189.25 92.53,191.92 92.91,194.47 93.3,196.9 93.69,199.23 94.07,201.45 94.46,203.57 94.85,205.58 95.23,207.46 95.62,209.23 96,210.89 96.39,212.45 96.78,213.91 97.16,215.28 97.55,216.53 97.94,217.68 98.32,218.75 98.71,219.72 99.1,220.61 99.48,221.41 99.87,222.12 100.25,222.74 100.64,223.29 101.03,223.75 101.41,224.14 101.8,224.46 102.19,224.68 102.57,224.82 102.96,224.9 103.34,224.9 103.73,224.82 104.12,224.68 104.5,224.45 104.89,224.16 105.28,223.8 105.66,223.38 106.05,222.9 106.43,222.36 106.82,221.75 107.21,221.1 107.59,220.4 107.98,219.66 108.37,218.88 108.75,218.07 109.14,217.22 109.53,216.34 109.91,215.45 110.3,214.54 110.68,213.61 111.07,212.66 111.46,211.71 111.84,210.75 112.23,209.78 112.62,208.8 113,207.83 113.39,206.84 113.77,205.86 114.16,204.86 114.55,203.87 114.93,202.87 115.32,201.86 115.71,200.85 116.09,199.83 116.48,198.8 116.86,197.77 117.25,196.72 117.64,195.67 118.02,194.6 118.41,193.52 118.8,192.44 119.18,191.34 119.57,190.23 119.96,189.12 120.34,187.99 120.73,186.85 121.11,185.71 121.5,184.56 121.89,183.4 122.27,182.24 122.66,181.08 123.05,179.91 123.43,178.75 123.82,177.58 124.2,176.42 124.59,175.25 124.98,174.1 125.36,172.94 125.75,171.8 126.14,170.66 126.52,169.53 126.91,168.42 127.3,167.31 127.68,166.22 128.07,165.14 128.45,164.08 128.84,163.03 129.23,162 129.61,160.99 130,160 130.39,159.03 130.77,158.07 131.16,157.13 131.54,156.22 131.93,155.32 132.32,154.45 132.7,153.59 133.09,152.75 133.48,151.93 133.86,151.12 134.25,150.34 134.63,149.57 135.02,148.82 135.41,148.09 135.79,147.37 136.18,146.67 136.57,145.99 136.95,145.32 137.34,144.67 137.73,144.04 138.11,143.42 138.5,142.82 138.88,142.24 139.27,141.68 139.66,141.14 140.04,140.62 140.43,140.12 140.82,139.64 141.2,139.18 141.59,138.75 141.97,138.33 142.36,137.94 142.75,137.56 143.13,137.21 143.52,136.88 143.91,136.57 144.29,136.27 144.68,135.99 145.06,135.73 145.45,135.48 145.84,135.25 146.22,135.02 146.61,134.81 147,134.6 147.38,134.4 147.77,134.21 148.16,134.02 148.54,133.83 148.93,133.65 149.31,133.47 149.7,133.29 150.09,133.12 150.47,132.95 150.86,132.78 151.25,132.61 151.63,132.45 152.02,132.29 152.4,132.14 152.79,131.99 153.18,131.86 153.56,131.73 153.95,131.6 154.34,131.49 154.72,131.39 155.11,131.3 155.49,131.22 155.88,131.16 156.27,131.11 156.65,131.07 157.04,131.05 157.43,131.05 157.81,131.06 158.2,131.09 158.59,131.13 158.97,131.2 159.36,131.28 159.74,131.38 160.13,131.49 160.52,131.63 160.9,131.78 161.29,131.95 161.68,132.15 162.06,132.36 162.45,132.59 162.83,132.83 163.22,133.1 163.61,133.38 163.99,133.68 164.38,134 164.77,134.33 165.15,134.68 165.54,135.05 165.93,135.43 166.31,135.82 166.7,136.23 167.08,136.65 167.47,137.09 167.86,137.53 168.24,137.98 168.63,138.45 169.02,138.93 169.4,139.41 169.79,139.9 170.17,140.39 170.56,140.89 170.95,141.4 171.33,141.91 171.72,142.42 172.11,142.93 172.49,143.45 172.88,143.96 173.26,144.47 173.65,144.98 174.04,145.48 174.42,145.98 174.81,146.47 175.2,146.95 175.58,147.42 175.97,147.88 176.36,148.33 176.74,148.77 177.13,149.19 177.51,149.6 177.9,149.99 178.29,150.37 178.67,150.73 179.06,151.07 179.45,151.39 179.83,151.69 180.22,151.98 180.6,152.25 180.99,152.5 181.38,152.73 181.76,152.94 182.15,153.14 182.54,153.31 182.92,153.47 183.31,153.62 183.69,153.75 184.08,153.87 184.47,153.96 184.85,154.05 185.24,154.12 185.63,154.17 186.01,154.22 186.4,154.25 186.79,154.27 187.17,154.27 187.56,154.26 187.94,154.25 188.33,154.22 188.72,154.18 189.1,154.12 189.49,154.06 189.88,153.99 190.26,153.91 190.65,153.82 191.03,153.71 191.42,153.6 191.81,153.48 192.19,153.35 192.58,153.21 192.97,153.06 193.35,152.9 193.74,152.73 194.12,152.55 194.51,152.36 194.9,152.16 195.28,151.95 195.67,151.73 196.06,151.49 196.44,151.25 196.83,150.99 197.22,150.71 197.6,150.43 197.99,150.12 198.37,149.8 198.76,149.46 199.15,149.1 199.53,148.73 199.92,148.33 200.31,147.92 200.69,147.48 201.08,147.02 201.46,146.54 201.85,146.04 202.24,145.52 202.62,144.98 203.01,144.41 203.4,143.82 203.78,143.21 204.17,142.59 204.55,141.94 204.94,141.27 205.33,140.59 205.71,139.9 206.1,139.18 206.49,138.46 206.87,137.73 207.26,136.99 207.65,136.23 208.03,135.48 208.42,134.72 208.8,133.95 209.19,133.18 209.58,132.41 209.96,131.64 210.35,130.87 210.74,130.1 211.12,129.32 211.51,128.55 211.89,127.78 212.28,127.01 212.67,126.23 213.05,125.46 213.44,124.68 213.83,123.9 214.21,123.12 214.6,122.33 214.99,121.54 215.37,120.75 215.76,119.95 216.14,119.15 216.53,118.35 216.92,117.54 217.3,116.73 217.69,115.91 218.08,115.1 218.46,114.28 218.85,113.46 219.23,112.65 219.62,111.83 220.01,111.02 220.39,110.21 220.78,109.41 221.17,108.61 221.55,107.82 221.94,107.03 222.32,106.26 222.71,105.49 223.1,104.73 223.48,103.99 223.87,103.26 224.26,102.54 224.64,101.83 225.03,101.13 225.42,100.45 225.8,99.79 226.19,99.13 226.57,98.49 226.96,97.87 227.35,97.25 227.73,96.65 228.12,96.07 228.51,95.49 228.89,94.92 229.28,94.37 229.66,93.82 230.05,93.28 230.44,92.75 230.82,92.22 231.21,91.7 231.6,91.18 231.98,90.67 232.37,90.16 232.75,89.65 233.14,89.14 233.53,88.63 233.91,88.12 234.3,87.61 234.69,87.1 235.07,86.59 235.46,86.08 235.85,85.57 236.23,85.05 236.62,84.54 237,84.02 237.39,83.5 237.78,82.98 238.16,82.45 238.55,81.93 238.94,81.4 239.32,80.87 239.71,80.33 240.09,79.79 240.48,79.24 240.87,78.69 241.25,78.12 241.64,77.56 242.03,76.98 242.41,76.4 242.8,75.81 243.18,75.21 243.57,74.6 243.96,73.99 244.34,73.37 244.73,72.75 245.12,72.13 245.5,71.5 245.89,70.88 246.28,70.26 246.66,69.64 247.05,69.03 247.43,68.43 247.82,67.85 248.21,67.28 248.59,66.72 248.98,66.19 249.37,65.68 249.75,65.18 250.14,64.71 250.52,64.27 250.91,63.86 251.3,63.47 251.68,63.11 252.07,62.77 252.46,62.46 252.84,62.18 253.23,61.93 253.62,61.69 254,61.48 254.39,61.3 254.77,61.13 255.16,60.98 255.55,60.85 255.93,60.74 256.32,60.64 256.71,60.55 257.09,60.48 257.48,60.42 257.86,60.36 258.25,60.32 258.64,60.28 259.02,60.25 259.41,60.22 259.8,60.2 260.18,60.18 260.57,60.17 260.95,60.16 261.34,60.15 261.73,60.14 262.11,60.13" stroke-dasharray="none" stroke="rgb(55,126,184)" stroke-width="0.75" opacity="1" stroke-opacity="1" fill="none"/>
          </g>
          <g id="Fig:densplot_01.xyplot.lines.group.6.panel.1.1.1">
            <polyline id="Fig:densplot_01.xyplot.lines.group.6.panel.1.1.1.1" points="64.76,60.14 65.14,60.15 65.53,60.17 65.92,60.18 66.3,60.2 66.69,60.22 67.08,60.25 67.46,60.29 67.85,60.33 68.23,60.39 68.62,60.46 69.01,60.54 69.39,60.63 69.78,60.75 70.16,60.89 70.55,61.05 70.94,61.25 71.32,61.47 71.71,61.73 72.09,62.04 72.48,62.39 72.87,62.8 73.25,63.26 73.64,63.79 74.02,64.38 74.41,65.05 74.8,65.8 75.18,66.64 75.57,67.57 75.95,68.59 76.34,69.7 76.73,70.94 77.11,72.29 77.5,73.75 77.88,75.33 78.27,77.01 78.66,78.82 79.04,80.76 79.43,82.83 79.82,85.02 80.2,87.32 80.59,89.73 80.97,92.26 81.36,94.91 81.75,97.68 82.13,100.54 82.52,103.5 82.9,106.54 83.29,109.67 83.68,112.89 84.06,116.18 84.45,119.53 84.83,122.94 85.22,126.39 85.61,129.88 85.99,133.42 86.38,136.97 86.76,140.54 87.15,144.11 87.54,147.69 87.92,151.25 88.31,154.8 88.69,158.32 89.08,161.8 89.47,165.24 89.85,168.63 90.24,171.97 90.62,175.22 91.01,178.4 91.4,181.51 91.78,184.53 92.17,187.46 92.56,190.3 92.94,193.01 93.33,195.62 93.71,198.12 94.1,200.51 94.49,202.79 94.87,204.95 95.26,206.97 95.64,208.87 96.03,210.66 96.42,212.34 96.8,213.9 97.19,215.33 97.57,216.64 97.96,217.84 98.35,218.93 98.73,219.92 99.12,220.81 99.5,221.58 99.89,222.25 100.28,222.82 100.66,223.31 101.05,223.7 101.43,224.01 101.82,224.23 102.21,224.36 102.59,224.42 102.98,224.4 103.36,224.32 103.75,224.16 104.14,223.93 104.52,223.63 104.91,223.28 105.3,222.86 105.68,222.4 106.07,221.88 106.45,221.31 106.84,220.69 107.23,220.02 107.61,219.32 108,218.57 108.38,217.79 108.77,216.98 109.16,216.12 109.54,215.24 109.93,214.34 110.31,213.41 110.7,212.46 111.09,211.48 111.47,210.48 111.86,209.47 112.24,208.44 112.63,207.41 113.02,206.36 113.4,205.29 113.79,204.23 114.17,203.15 114.56,202.07 114.95,200.99 115.33,199.9 115.72,198.82 116.1,197.73 116.49,196.64 116.88,195.56 117.26,194.47 117.65,193.38 118.04,192.29 118.42,191.21 118.81,190.12 119.19,189.03 119.58,187.93 119.97,186.83 120.35,185.73 120.74,184.63 121.12,183.52 121.51,182.4 121.9,181.28 122.28,180.15 122.67,179.02 123.05,177.88 123.44,176.74 123.83,175.6 124.21,174.45 124.6,173.3 124.98,172.15 125.37,171.01 125.76,169.87 126.14,168.73 126.53,167.6 126.91,166.48 127.3,165.38 127.69,164.28 128.07,163.21 128.46,162.15 128.84,161.11 129.23,160.09 129.62,159.09 130,158.12 130.39,157.17 130.78,156.25 131.16,155.35 131.55,154.49 131.93,153.65 132.32,152.84 132.71,152.05 133.09,151.3 133.48,150.56 133.86,149.86 134.25,149.18 134.64,148.53 135.02,147.9 135.41,147.29 135.79,146.71 136.18,146.14 136.57,145.6 136.95,145.08 137.34,144.57 137.72,144.08 138.11,143.61 138.5,143.16 138.88,142.72 139.27,142.31 139.65,141.91 140.04,141.52 140.43,141.15 140.81,140.81 141.2,140.48 141.58,140.16 141.97,139.87 142.36,139.59 142.74,139.32 143.13,139.08 143.52,138.85 143.9,138.63 144.29,138.42 144.67,138.23 145.06,138.05 145.45,137.88 145.83,137.71 146.22,137.55 146.6,137.39 146.99,137.23 147.38,137.07 147.76,136.91 148.15,136.74 148.53,136.57 148.92,136.4 149.31,136.21 149.69,136.02 150.08,135.82 150.46,135.61 150.85,135.4 151.24,135.18 151.62,134.95 152.01,134.72 152.39,134.49 152.78,134.27 153.17,134.04 153.55,133.83 153.94,133.62 154.32,133.42 154.71,133.23 155.1,133.07 155.48,132.92 155.87,132.79 156.25,132.69 156.64,132.6 157.03,132.55 157.41,132.52 157.8,132.52 158.19,132.55 158.57,132.61 158.96,132.69 159.34,132.8 159.73,132.94 160.12,133.11 160.5,133.29 160.89,133.5 161.27,133.73 161.66,133.98 162.05,134.25 162.43,134.53 162.82,134.83 163.2,135.13 163.59,135.45 163.98,135.77 164.36,136.11 164.75,136.44 165.13,136.78 165.52,137.13 165.91,137.48 166.29,137.83 166.68,138.19 167.06,138.55 167.45,138.91 167.84,139.28 168.22,139.66 168.61,140.04 168.99,140.43 169.38,140.83 169.77,141.24 170.15,141.66 170.54,142.09 170.93,142.53 171.31,142.99 171.7,143.45 172.08,143.93 172.47,144.41 172.86,144.91 173.24,145.42 173.63,145.93 174.01,146.45 174.4,146.97 174.79,147.49 175.17,148.01 175.56,148.53 175.94,149.04 176.33,149.55 176.72,150.05 177.1,150.53 177.49,151.01 177.87,151.46 178.26,151.91 178.65,152.34 179.03,152.75 179.42,153.14 179.8,153.51 180.19,153.87 180.58,154.2 180.96,154.52 181.35,154.81 181.73,155.09 182.12,155.35 182.51,155.58 182.89,155.8 183.28,156 183.67,156.18 184.05,156.34 184.44,156.47 184.82,156.59 185.21,156.69 185.6,156.77 185.98,156.83 186.37,156.88 186.75,156.89 187.14,156.89 187.53,156.87 187.91,156.83 188.3,156.77 188.68,156.69 189.07,156.59 189.46,156.47 189.84,156.34 190.23,156.18 190.61,156.01 191,155.82 191.39,155.62 191.77,155.4 192.16,155.16 192.54,154.91 192.93,154.65 193.32,154.37 193.7,154.08 194.09,153.78 194.47,153.47 194.86,153.14 195.25,152.81 195.63,152.46 196.02,152.11 196.41,151.74 196.79,151.37 197.18,150.99 197.56,150.6 197.95,150.2 198.34,149.8 198.72,149.38 199.11,148.96 199.49,148.53 199.88,148.1 200.27,147.66 200.65,147.2 201.04,146.75 201.42,146.28 201.81,145.81 202.2,145.32 202.58,144.83 202.97,144.33 203.35,143.81 203.74,143.29 204.13,142.76 204.51,142.21 204.9,141.65 205.28,141.07 205.67,140.48 206.06,139.87 206.44,139.25 206.83,138.62 207.21,137.96 207.6,137.29 207.99,136.6 208.37,135.9 208.76,135.18 209.15,134.45 209.53,133.7 209.92,132.93 210.3,132.15 210.69,131.36 211.08,130.56 211.46,129.75 211.85,128.93 212.23,128.1 212.62,127.26 213.01,126.42 213.39,125.57 213.78,124.72 214.16,123.86 214.55,123 214.94,122.15 215.32,121.29 215.71,120.43 216.09,119.57 216.48,118.72 216.87,117.87 217.25,117.02 217.64,116.17 218.02,115.33 218.41,114.49 218.8,113.66 219.18,112.83 219.57,112.01 219.95,111.19 220.34,110.37 220.73,109.56 221.11,108.76 221.5,107.97 221.89,107.18 222.27,106.4 222.66,105.63 223.04,104.87 223.43,104.12 223.82,103.38 224.2,102.65 224.59,101.93 224.97,101.22 225.36,100.52 225.75,99.83 226.13,99.15 226.52,98.49 226.9,97.83 227.29,97.18 227.68,96.54 228.06,95.92 228.45,95.29 228.83,94.68 229.22,94.07 229.61,93.47 229.99,92.87 230.38,92.28 230.76,91.69 231.15,91.11 231.54,90.53 231.92,89.95 232.31,89.38 232.69,88.81 233.08,88.24 233.47,87.68 233.85,87.13 234.24,86.58 234.63,86.04 235.01,85.5 235.4,84.97 235.78,84.45 236.17,83.93 236.56,83.42 236.94,82.91 237.33,82.41 237.71,81.92 238.1,81.43 238.49,80.94 238.87,80.46 239.26,79.97 239.64,79.48 240.03,79 240.42,78.5 240.8,78 241.19,77.5 241.57,76.98 241.96,76.46 242.35,75.92 242.73,75.38 243.12,74.82 243.5,74.26 243.89,73.68 244.28,73.1 244.66,72.51 245.05,71.91 245.43,71.31 245.82,70.7 246.21,70.1 246.59,69.5 246.98,68.91 247.37,68.32 247.75,67.74 248.14,67.18 248.52,66.63 248.91,66.11 249.3,65.6 249.68,65.11 250.07,64.65 250.45,64.21 250.84,63.8 251.23,63.42 251.61,63.06 252,62.73 252.38,62.42 252.77,62.14 253.16,61.89 253.54,61.66 253.93,61.46 254.31,61.27 254.7,61.1 255.09,60.96 255.47,60.83 255.86,60.72 256.24,60.63 256.63,60.54 257.02,60.47 257.4,60.41 257.79,60.36 258.17,60.31 258.56,60.28 258.95,60.25 259.33,60.22 259.72,60.2 260.11,60.18 260.49,60.17 260.88,60.16 261.26,60.15 261.65,60.14 262.04,60.13" stroke-dasharray="none" stroke="rgb(55,126,184)" stroke-width="0.75" opacity="1" stroke-opacity="1" fill="none"/>
          </g>
          <g id="Fig:densplot_01.xyplot.lines.group.7.panel.1.1.1">
            <polyline id="Fig:densplot_01.xyplot.lines.group.7.panel.1.1.1.1" points="65.01,60.15 65.4,60.16 65.78,60.17 66.17,60.19 66.55,60.21 66.94,60.24 67.32,60.27 67.71,60.31 68.09,60.37 68.48,60.43 68.86,60.5 69.25,60.59 69.63,60.7 70.02,60.83 70.4,60.98 70.79,61.16 71.17,61.36 71.56,61.61 71.94,61.9 72.33,62.23 72.71,62.6 73.1,63.03 73.48,63.52 73.87,64.07 74.25,64.7 74.64,65.4 75.02,66.18 75.41,67.03 75.79,67.98 76.18,69.04 76.56,70.19 76.95,71.44 77.33,72.79 77.72,74.24 78.1,75.81 78.49,77.5 78.87,79.3 79.26,81.2 79.64,83.21 80.03,85.33 80.41,87.56 80.8,89.9 81.18,92.34 81.57,94.86 81.95,97.48 82.34,100.18 82.72,102.96 83.11,105.82 83.49,108.75 83.88,111.73 84.26,114.77 84.65,117.85 85.03,120.98 85.42,124.15 85.8,127.34 86.19,130.54 86.57,133.77 86.96,136.99 87.34,140.22 87.73,143.44 88.11,146.65 88.5,149.84 88.88,153 89.27,156.13 89.65,159.23 90.04,162.27 90.42,165.26 90.81,168.21 91.19,171.09 91.58,173.91 91.96,176.66 92.35,179.33 92.73,181.92 93.12,184.43 93.5,186.86 93.89,189.21 94.27,191.46 94.66,193.62 95.04,195.68 95.43,197.65 95.81,199.54 96.2,201.34 96.58,203.04 96.97,204.64 97.35,206.16 97.74,207.59 98.12,208.94 98.51,210.21 98.89,211.39 99.28,212.49 99.66,213.52 100.05,214.47 100.43,215.35 100.82,216.17 101.2,216.92 101.59,217.59 101.97,218.2 102.36,218.75 102.74,219.24 103.13,219.67 103.51,220.03 103.9,220.34 104.28,220.58 104.67,220.78 105.05,220.92 105.44,221 105.82,221.03 106.21,221.01 106.59,220.93 106.98,220.8 107.36,220.63 107.75,220.41 108.13,220.14 108.52,219.82 108.9,219.47 109.29,219.07 109.67,218.63 110.06,218.15 110.44,217.64 110.83,217.09 111.21,216.5 111.6,215.88 111.98,215.23 112.37,214.55 112.75,213.83 113.14,213.09 113.52,212.31 113.91,211.51 114.29,210.68 114.68,209.83 115.06,208.95 115.45,208.04 115.83,207.11 116.22,206.16 116.6,205.18 116.99,204.19 117.37,203.17 117.76,202.14 118.14,201.09 118.53,200.02 118.91,198.94 119.3,197.85 119.68,196.75 120.07,195.65 120.45,194.53 120.84,193.41 121.22,192.29 121.61,191.17 121.99,190.05 122.38,188.93 122.76,187.82 123.15,186.71 123.53,185.6 123.92,184.5 124.3,183.41 124.69,182.32 125.07,181.24 125.46,180.17 125.84,179.1 126.23,178.03 126.61,176.97 127,175.92 127.38,174.86 127.77,173.81 128.15,172.76 128.54,171.71 128.92,170.66 129.31,169.61 129.69,168.56 130.08,167.51 130.46,166.45 130.85,165.4 131.23,164.35 131.62,163.31 132,162.26 132.39,161.23 132.77,160.2 133.16,159.18 133.54,158.18 133.93,157.19 134.31,156.22 134.7,155.27 135.08,154.34 135.47,153.43 135.86,152.56 136.24,151.72 136.63,150.91 137.01,150.13 137.4,149.39 137.78,148.68 138.17,148.01 138.55,147.38 138.94,146.78 139.32,146.22 139.71,145.7 140.09,145.2 140.48,144.75 140.86,144.32 141.25,143.93 141.63,143.56 142.02,143.22 142.4,142.9 142.79,142.61 143.17,142.34 143.56,142.08 143.94,141.84 144.33,141.61 144.71,141.4 145.1,141.19 145.48,141 145.87,140.81 146.25,140.62 146.64,140.44 147.02,140.25 147.41,140.07 147.79,139.89 148.18,139.7 148.56,139.5 148.95,139.31 149.33,139.11 149.72,138.9 150.1,138.68 150.49,138.47 150.87,138.24 151.26,138.01 151.64,137.78 152.03,137.55 152.41,137.32 152.8,137.09 153.18,136.86 153.57,136.64 153.95,136.43 154.34,136.23 154.72,136.05 155.11,135.89 155.49,135.74 155.88,135.61 156.26,135.51 156.65,135.43 157.03,135.38 157.42,135.36 157.8,135.37 158.19,135.41 158.57,135.47 158.96,135.57 159.34,135.7 159.73,135.85 160.11,136.03 160.5,136.23 160.88,136.46 161.27,136.71 161.65,136.98 162.04,137.26 162.42,137.56 162.81,137.87 163.19,138.2 163.58,138.53 163.96,138.86 164.35,139.21 164.73,139.55 165.12,139.89 165.5,140.24 165.89,140.58 166.27,140.92 166.66,141.25 167.04,141.58 167.43,141.91 167.81,142.23 168.2,142.55 168.58,142.85 168.97,143.16 169.35,143.46 169.74,143.75 170.12,144.04 170.51,144.32 170.89,144.6 171.28,144.88 171.66,145.15 172.05,145.43 172.43,145.7 172.82,145.97 173.2,146.24 173.59,146.51 173.97,146.78 174.36,147.04 174.74,147.31 175.13,147.58 175.51,147.85 175.9,148.11 176.28,148.38 176.67,148.64 177.05,148.9 177.44,149.15 177.82,149.4 178.21,149.64 178.59,149.87 178.98,150.1 179.36,150.32 179.75,150.52 180.13,150.71 180.52,150.89 180.9,151.06 181.29,151.22 181.67,151.36 182.06,151.49 182.44,151.6 182.83,151.7 183.21,151.79 183.6,151.87 183.98,151.93 184.37,151.98 184.75,152.02 185.14,152.05 185.52,152.07 185.91,152.08 186.29,152.08 186.68,152.07 187.06,152.05 187.45,152.02 187.83,151.98 188.22,151.94 188.6,151.88 188.99,151.82 189.37,151.75 189.76,151.68 190.14,151.59 190.53,151.5 190.91,151.4 191.3,151.29 191.68,151.18 192.07,151.06 192.45,150.93 192.84,150.79 193.22,150.65 193.61,150.5 193.99,150.34 194.38,150.17 194.76,150 195.15,149.81 195.53,149.62 195.92,149.41 196.3,149.19 196.69,148.96 197.07,148.71 197.46,148.46 197.84,148.18 198.23,147.89 198.61,147.58 199,147.26 199.38,146.91 199.77,146.54 200.15,146.16 200.54,145.75 200.92,145.31 201.31,144.85 201.69,144.37 202.08,143.87 202.46,143.34 202.85,142.78 203.23,142.2 203.62,141.59 204,140.96 204.39,140.31 204.77,139.64 205.16,138.94 205.54,138.23 205.93,137.49 206.31,136.74 206.7,135.97 207.08,135.18 207.47,134.39 207.85,133.58 208.24,132.76 208.62,131.94 209.01,131.1 209.39,130.27 209.78,129.43 210.16,128.59 210.55,127.74 210.93,126.9 211.32,126.05 211.7,125.21 212.09,124.37 212.47,123.54 212.86,122.7 213.24,121.87 213.63,121.04 214.01,120.22 214.4,119.4 214.78,118.59 215.17,117.78 215.55,116.98 215.94,116.18 216.32,115.39 216.71,114.61 217.09,113.83 217.48,113.07 217.86,112.31 218.25,111.56 218.63,110.82 219.02,110.09 219.4,109.37 219.79,108.66 220.17,107.96 220.56,107.26 220.94,106.58 221.33,105.9 221.71,105.23 222.1,104.57 222.48,103.91 222.87,103.26 223.25,102.62 223.64,101.98 224.02,101.34 224.41,100.71 224.79,100.08 225.18,99.46 225.56,98.83 225.95,98.21 226.33,97.59 226.72,96.97 227.1,96.36 227.49,95.74 227.87,95.13 228.26,94.52 228.64,93.91 229.03,93.3 229.41,92.7 229.8,92.09 230.18,91.5 230.57,90.9 230.95,90.32 231.34,89.73 231.72,89.16 232.11,88.59 232.49,88.02 232.88,87.47 233.26,86.92 233.65,86.38 234.03,85.85 234.42,85.33 234.8,84.81 235.19,84.31 235.57,83.81 235.96,83.32 236.34,82.84 236.73,82.36 237.11,81.89 237.5,81.42 237.88,80.96 238.27,80.5 238.65,80.04 239.04,79.57 239.42,79.11 239.81,78.64 240.19,78.16 240.58,77.68 240.96,77.19 241.35,76.7 241.74,76.19 242.12,75.68 242.51,75.15 242.89,74.61 243.28,74.07 243.66,73.51 244.05,72.95 244.43,72.38 244.82,71.8 245.2,71.22 245.59,70.64 245.97,70.06 246.36,69.48 246.74,68.9 247.13,68.34 247.51,67.78 247.9,67.23 248.28,66.7 248.67,66.18 249.05,65.68 249.44,65.21 249.82,64.75 250.21,64.32 250.59,63.91 250.98,63.52 251.36,63.16 251.75,62.83 252.13,62.52 252.52,62.24 252.9,61.98 253.29,61.74 253.67,61.53 254.06,61.34 254.44,61.17 254.83,61.02 255.21,60.88 255.6,60.77 255.98,60.66 256.37,60.58 256.75,60.5 257.14,60.43 257.52,60.38 257.91,60.33 258.29,60.29 258.68,60.26 259.06,60.23 259.45,60.21 259.83,60.19 260.22,60.17 260.6,60.16 260.99,60.15 261.37,60.14 261.76,60.14" stroke-dasharray="none" stroke="rgb(55,126,184)" stroke-width="0.75" opacity="1" stroke-opacity="1" fill="none"/>
          </g>
          <g id="Fig:densplot_01.xyplot.lines.group.8.panel.1.1.1">
            <polyline id="Fig:densplot_01.xyplot.lines.group.8.panel.1.1.1.1" points="64.65,60.15 65.04,60.17 65.42,60.18 65.81,60.2 66.2,60.22 66.58,60.25 66.97,60.29 67.36,60.34 67.74,60.39 68.13,60.46 68.51,60.54 68.9,60.64 69.29,60.76 69.67,60.89 70.06,61.06 70.45,61.25 70.83,61.48 71.22,61.75 71.61,62.06 71.99,62.42 72.38,62.82 72.77,63.29 73.15,63.83 73.54,64.44 73.93,65.12 74.31,65.88 74.7,66.73 75.09,67.69 75.47,68.74 75.86,69.9 76.24,71.17 76.63,72.55 77.02,74.04 77.4,75.69 77.79,77.45 78.18,79.34 78.56,81.35 78.95,83.49 79.34,85.75 79.72,88.17 80.11,90.7 80.5,93.35 80.88,96.12 81.27,98.99 81.66,101.98 82.04,105.08 82.43,108.27 82.81,111.54 83.2,114.89 83.59,118.3 83.97,121.78 84.36,125.31 84.75,128.88 85.13,132.48 85.52,136.11 85.91,139.75 86.29,143.39 86.68,147.03 87.07,150.66 87.45,154.26 87.84,157.84 88.23,161.38 88.61,164.87 89,168.3 89.38,171.68 89.77,174.99 90.16,178.24 90.54,181.42 90.93,184.5 91.32,187.49 91.7,190.4 92.09,193.21 92.48,195.93 92.86,198.55 93.25,201.04 93.64,203.43 94.02,205.7 94.41,207.87 94.8,209.93 95.18,211.87 95.57,213.67 95.95,215.35 96.34,216.92 96.73,218.36 97.11,219.7 97.5,220.91 97.89,221.99 98.27,222.95 98.66,223.81 99.05,224.55 99.43,225.2 99.82,225.73 100.21,226.15 100.59,226.47 100.98,226.71 101.37,226.86 101.75,226.92 102.14,226.9 102.53,226.8 102.91,226.63 103.3,226.39 103.68,226.1 104.07,225.75 104.46,225.33 104.84,224.86 105.23,224.35 105.62,223.8 106,223.2 106.39,222.57 106.78,221.91 107.16,221.2 107.55,220.47 107.94,219.72 108.32,218.94 108.71,218.13 109.1,217.3 109.48,216.45 109.87,215.58 110.25,214.69 110.64,213.78 111.03,212.85 111.41,211.9 111.8,210.93 112.19,209.94 112.57,208.94 112.96,207.91 113.35,206.87 113.73,205.8 114.12,204.71 114.51,203.6 114.89,202.48 115.28,201.34 115.67,200.18 116.05,199 116.44,197.8 116.82,196.59 117.21,195.37 117.6,194.14 117.98,192.9 118.37,191.64 118.76,190.39 119.14,189.13 119.53,187.86 119.92,186.6 120.3,185.33 120.69,184.07 121.08,182.82 121.46,181.57 121.85,180.33 122.24,179.09 122.62,177.87 123.01,176.66 123.39,175.45 123.78,174.27 124.17,173.09 124.55,171.93 124.94,170.78 125.33,169.65 125.71,168.54 126.1,167.44 126.49,166.35 126.87,165.28 127.26,164.24 127.65,163.21 128.03,162.19 128.42,161.19 128.81,160.21 129.19,159.25 129.58,158.31 129.96,157.38 130.35,156.47 130.74,155.58 131.12,154.7 131.51,153.84 131.9,153 132.28,152.17 132.67,151.36 133.06,150.56 133.44,149.77 133.83,149 134.22,148.24 134.6,147.5 134.99,146.77 135.38,146.04 135.76,145.33 136.15,144.64 136.54,143.95 136.92,143.27 137.31,142.61 137.69,141.96 138.08,141.32 138.47,140.69 138.85,140.08 139.24,139.48 139.63,138.9 140.01,138.33 140.4,137.78 140.79,137.25 141.17,136.74 141.56,136.24 141.95,135.77 142.33,135.32 142.72,134.89 143.11,134.48 143.49,134.09 143.88,133.73 144.26,133.39 144.65,133.07 145.04,132.77 145.42,132.5 145.81,132.25 146.2,132.02 146.58,131.81 146.97,131.62 147.36,131.44 147.74,131.28 148.13,131.14 148.52,131 148.9,130.88 149.29,130.78 149.68,130.68 150.06,130.59 150.45,130.51 150.83,130.43 151.22,130.36 151.61,130.3 151.99,130.24 152.38,130.19 152.77,130.15 153.15,130.11 153.54,130.07 153.93,130.05 154.31,130.03 154.7,130.02 155.09,130.02 155.47,130.04 155.86,130.06 156.25,130.1 156.63,130.15 157.02,130.22 157.4,130.31 157.79,130.41 158.18,130.53 158.56,130.66 158.95,130.82 159.34,130.99 159.72,131.19 160.11,131.39 160.5,131.62 160.88,131.86 161.27,132.12 161.66,132.39 162.04,132.68 162.43,132.98 162.82,133.29 163.2,133.61 163.59,133.94 163.98,134.29 164.36,134.64 164.75,135 165.13,135.36 165.52,135.74 165.91,136.12 166.29,136.5 166.68,136.9 167.07,137.3 167.45,137.71 167.84,138.12 168.23,138.54 168.61,138.97 169,139.4 169.39,139.84 169.77,140.29 170.16,140.75 170.55,141.21 170.93,141.68 171.32,142.16 171.7,142.64 172.09,143.12 172.48,143.61 172.86,144.1 173.25,144.59 173.64,145.08 174.02,145.57 174.41,146.05 174.8,146.53 175.18,147 175.57,147.46 175.96,147.92 176.34,148.36 176.73,148.79 177.12,149.21 177.5,149.61 177.89,150 178.27,150.37 178.66,150.72 179.05,151.06 179.43,151.38 179.82,151.69 180.21,151.97 180.59,152.25 180.98,152.5 181.37,152.74 181.75,152.97 182.14,153.17 182.53,153.36 182.91,153.54 183.3,153.7 183.69,153.85 184.07,153.98 184.46,154.1 184.84,154.2 185.23,154.28 185.62,154.35 186,154.41 186.39,154.45 186.78,154.48 187.16,154.49 187.55,154.49 187.94,154.47 188.32,154.45 188.71,154.4 189.1,154.35 189.48,154.29 189.87,154.22 190.26,154.14 190.64,154.05 191.03,153.95 191.41,153.85 191.8,153.74 192.19,153.62 192.57,153.5 192.96,153.37 193.35,153.24 193.73,153.09 194.12,152.94 194.51,152.78 194.89,152.61 195.28,152.43 195.67,152.23 196.05,152.02 196.44,151.79 196.83,151.55 197.21,151.29 197.6,151 197.99,150.69 198.37,150.36 198.76,150.01 199.14,149.63 199.53,149.23 199.92,148.8 200.3,148.35 200.69,147.87 201.08,147.37 201.46,146.84 201.85,146.29 202.24,145.72 202.62,145.13 203.01,144.52 203.4,143.89 203.78,143.25 204.17,142.59 204.56,141.91 204.94,141.22 205.33,140.51 205.71,139.8 206.1,139.07 206.49,138.34 206.87,137.59 207.26,136.84 207.65,136.08 208.03,135.31 208.42,134.53 208.81,133.75 209.19,132.96 209.58,132.17 209.97,131.37 210.35,130.57 210.74,129.76 211.13,128.95 211.51,128.14 211.9,127.33 212.28,126.52 212.67,125.71 213.06,124.9 213.44,124.08 213.83,123.28 214.22,122.47 214.6,121.67 214.99,120.87 215.38,120.08 215.76,119.29 216.15,118.51 216.54,117.73 216.92,116.95 217.31,116.18 217.7,115.41 218.08,114.65 218.47,113.9 218.85,113.14 219.24,112.39 219.63,111.65 220.01,110.91 220.4,110.17 220.79,109.43 221.17,108.7 221.56,107.97 221.95,107.25 222.33,106.53 222.72,105.81 223.11,105.1 223.49,104.39 223.88,103.69 224.27,102.99 224.65,102.3 225.04,101.61 225.42,100.94 225.81,100.26 226.2,99.6 226.58,98.94 226.97,98.29 227.36,97.64 227.74,97.01 228.13,96.38 228.52,95.76 228.9,95.14 229.29,94.54 229.68,93.94 230.06,93.34 230.45,92.76 230.84,92.18 231.22,91.61 231.61,91.04 232,90.48 232.38,89.93 232.77,89.38 233.15,88.83 233.54,88.29 233.93,87.76 234.31,87.23 234.7,86.71 235.09,86.19 235.47,85.67 235.86,85.16 236.25,84.65 236.63,84.15 237.02,83.64 237.41,83.14 237.79,82.64 238.18,82.14 238.57,81.63 238.95,81.13 239.34,80.62 239.72,80.11 240.11,79.59 240.5,79.06 240.88,78.53 241.27,77.99 241.66,77.44 242.04,76.88 242.43,76.32 242.82,75.74 243.2,75.15 243.59,74.56 243.98,73.95 244.36,73.34 244.75,72.73 245.14,72.11 245.52,71.48 245.91,70.86 246.29,70.24 246.68,69.63 247.07,69.02 247.45,68.42 247.84,67.83 248.23,67.26 248.61,66.71 249,66.17 249.39,65.66 249.77,65.16 250.16,64.7 250.55,64.26 250.93,63.84 251.32,63.45 251.71,63.09 252.09,62.75 252.48,62.45 252.86,62.17 253.25,61.92 253.64,61.68 254.02,61.47 254.41,61.29 254.8,61.12 255.18,60.98 255.57,60.85 255.96,60.73 256.34,60.64 256.73,60.55 257.12,60.48 257.5,60.42 257.89,60.36 258.28,60.32 258.66,60.28 259.05,60.25 259.44,60.22 259.82,60.2 260.21,60.18 260.59,60.17 260.98,60.16 261.37,60.15 261.75,60.14 262.14,60.13" stroke-dasharray="none" stroke="rgb(55,126,184)" stroke-width="0.75" opacity="1" stroke-opacity="1" fill="none"/>
          </g>
          <g id="Fig:densplot_01.xyplot.lines.group.9.panel.1.1.1">
            <polyline id="Fig:densplot_01.xyplot.lines.group.9.panel.1.1.1.1" points="64.85,60.15 65.23,60.16 65.62,60.17 66.01,60.19 66.39,60.21 66.78,60.24 67.16,60.27 67.55,60.31 67.93,60.36 68.32,60.42 68.71,60.49 69.09,60.58 69.48,60.68 69.86,60.81 70.25,60.96 70.64,61.13 71.02,61.33 71.41,61.57 71.79,61.84 72.18,62.16 72.56,62.53 72.95,62.95 73.34,63.42 73.72,63.96 74.11,64.56 74.49,65.24 74.88,66.01 75.26,66.85 75.65,67.79 76.04,68.81 76.42,69.92 76.81,71.16 77.19,72.5 77.58,73.95 77.96,75.51 78.35,77.18 78.74,78.96 79.12,80.88 79.51,82.92 79.89,85.06 80.28,87.32 80.67,89.69 81.05,92.17 81.44,94.79 81.82,97.5 82.21,100.31 82.59,103.22 82.98,106.21 83.37,109.29 83.75,112.47 84.14,115.72 84.52,119.04 84.91,122.42 85.29,125.85 85.68,129.32 86.07,132.85 86.45,136.4 86.84,139.98 87.22,143.56 87.61,147.16 87.99,150.75 88.38,154.34 88.77,157.9 89.15,161.43 89.54,164.92 89.92,168.38 90.31,171.78 90.7,175.11 91.08,178.37 91.47,181.56 91.85,184.66 92.24,187.69 92.62,190.61 93.01,193.43 93.4,196.14 93.78,198.75 94.17,201.26 94.55,203.66 94.94,205.94 95.32,208.09 95.71,210.14 96.1,212.07 96.48,213.89 96.87,215.61 97.25,217.21 97.64,218.68 98.03,220.05 98.41,221.32 98.8,222.49 99.18,223.56 99.57,224.51 99.95,225.36 100.34,226.12 100.73,226.78 101.11,227.35 101.5,227.83 101.88,228.21 102.27,228.49 102.65,228.68 103.04,228.79 103.43,228.82 103.81,228.77 104.2,228.62 104.58,228.39 104.97,228.09 105.35,227.71 105.74,227.26 106.13,226.75 106.51,226.15 106.9,225.5 107.28,224.79 107.67,224.03 108.06,223.22 108.44,222.36 108.83,221.45 109.21,220.51 109.6,219.53 109.98,218.52 110.37,217.49 110.76,216.44 111.14,215.36 111.53,214.27 111.91,213.17 112.3,212.06 112.68,210.94 113.07,209.82 113.46,208.69 113.84,207.57 114.23,206.44 114.61,205.31 115,204.19 115.38,203.07 115.77,201.95 116.16,200.83 116.54,199.72 116.93,198.61 117.31,197.51 117.7,196.4 118.09,195.3 118.47,194.2 118.86,193.1 119.24,192 119.63,190.9 120.01,189.79 120.4,188.68 120.79,187.57 121.17,186.45 121.56,185.32 121.94,184.19 122.33,183.05 122.71,181.9 123.1,180.74 123.49,179.58 123.87,178.4 124.26,177.22 124.64,176.03 125.03,174.83 125.41,173.63 125.8,172.43 126.19,171.22 126.57,170.02 126.96,168.81 127.34,167.61 127.73,166.42 128.12,165.24 128.5,164.07 128.89,162.91 129.27,161.77 129.66,160.65 130.04,159.55 130.43,158.47 130.82,157.42 131.2,156.4 131.59,155.4 131.97,154.44 132.36,153.51 132.74,152.6 133.13,151.73 133.52,150.89 133.9,150.08 134.29,149.31 134.67,148.57 135.06,147.85 135.44,147.17 135.83,146.52 136.22,145.89 136.6,145.3 136.99,144.72 137.37,144.18 137.76,143.65 138.15,143.15 138.53,142.67 138.92,142.21 139.3,141.76 139.69,141.34 140.07,140.92 140.46,140.52 140.85,140.13 141.23,139.76 141.62,139.39 142,139.04 142.39,138.69 142.77,138.34 143.16,138.01 143.55,137.68 143.93,137.36 144.32,137.04 144.7,136.72 145.09,136.41 145.48,136.11 145.86,135.82 146.25,135.52 146.63,135.24 147.02,134.96 147.4,134.69 147.79,134.43 148.18,134.18 148.56,133.94 148.95,133.71 149.33,133.49 149.72,133.28 150.1,133.08 150.49,132.9 150.88,132.73 151.26,132.57 151.65,132.43 152.03,132.3 152.42,132.18 152.8,132.08 153.19,131.99 153.58,131.91 153.96,131.85 154.35,131.8 154.73,131.76 155.12,131.73 155.51,131.71 155.89,131.71 156.28,131.71 156.66,131.73 157.05,131.76 157.43,131.8 157.82,131.85 158.21,131.91 158.59,131.99 158.98,132.07 159.36,132.17 159.75,132.29 160.13,132.42 160.52,132.56 160.91,132.71 161.29,132.88 161.68,133.07 162.06,133.27 162.45,133.49 162.83,133.71 163.22,133.96 163.61,134.22 163.99,134.49 164.38,134.78 164.76,135.08 165.15,135.39 165.54,135.72 165.92,136.06 166.31,136.41 166.69,136.78 167.08,137.16 167.46,137.55 167.85,137.95 168.24,138.37 168.62,138.8 169.01,139.25 169.39,139.7 169.78,140.18 170.16,140.66 170.55,141.16 170.94,141.68 171.32,142.21 171.71,142.75 172.09,143.3 172.48,143.87 172.86,144.45 173.25,145.04 173.64,145.63 174.02,146.23 174.41,146.83 174.79,147.44 175.18,148.04 175.57,148.63 175.95,149.22 176.34,149.79 176.72,150.36 177.11,150.9 177.49,151.42 177.88,151.92 178.27,152.39 178.65,152.84 179.04,153.25 179.42,153.64 179.81,153.98 180.19,154.3 180.58,154.57 180.97,154.82 181.35,155.03 181.74,155.2 182.12,155.34 182.51,155.44 182.89,155.52 183.28,155.57 183.67,155.59 184.05,155.58 184.44,155.55 184.82,155.49 185.21,155.42 185.6,155.34 185.98,155.23 186.37,155.12 186.75,155 187.14,154.87 187.52,154.73 187.91,154.59 188.3,154.44 188.68,154.3 189.07,154.15 189.45,154.01 189.84,153.86 190.22,153.72 190.61,153.58 191,153.44 191.38,153.3 191.77,153.17 192.15,153.03 192.54,152.89 192.93,152.75 193.31,152.61 193.7,152.47 194.08,152.32 194.47,152.16 194.85,152 195.24,151.82 195.63,151.63 196.01,151.43 196.4,151.21 196.78,150.98 197.17,150.73 197.55,150.45 197.94,150.16 198.33,149.84 198.71,149.49 199.1,149.13 199.48,148.74 199.87,148.32 200.25,147.87 200.64,147.4 201.03,146.9 201.41,146.38 201.8,145.83 202.18,145.26 202.57,144.66 202.96,144.04 203.34,143.4 203.73,142.74 204.11,142.06 204.5,141.37 204.88,140.66 205.27,139.93 205.66,139.19 206.04,138.45 206.43,137.69 206.81,136.93 207.2,136.16 207.58,135.38 207.97,134.61 208.36,133.83 208.74,133.04 209.13,132.26 209.51,131.48 209.9,130.69 210.28,129.91 210.67,129.12 211.06,128.34 211.44,127.56 211.83,126.77 212.21,125.99 212.6,125.2 212.99,124.41 213.37,123.63 213.76,122.84 214.14,122.04 214.53,121.25 214.91,120.45 215.3,119.65 215.69,118.85 216.07,118.05 216.46,117.24 216.84,116.43 217.23,115.62 217.61,114.81 218,114 218.39,113.19 218.77,112.38 219.16,111.58 219.54,110.78 219.93,109.98 220.31,109.18 220.7,108.4 221.09,107.62 221.47,106.85 221.86,106.08 222.24,105.33 222.63,104.58 223.02,103.84 223.4,103.11 223.79,102.4 224.17,101.69 224.56,100.99 224.94,100.3 225.33,99.62 225.72,98.95 226.1,98.29 226.49,97.64 226.87,96.99 227.26,96.36 227.64,95.73 228.03,95.12 228.42,94.51 228.8,93.91 229.19,93.31 229.57,92.73 229.96,92.15 230.34,91.58 230.73,91.03 231.12,90.48 231.5,89.94 231.89,89.4 232.27,88.88 232.66,88.37 233.05,87.86 233.43,87.37 233.82,86.88 234.2,86.4 234.59,85.92 234.97,85.45 235.36,84.99 235.75,84.53 236.13,84.07 236.52,83.62 236.9,83.17 237.29,82.71 237.67,82.26 238.06,81.8 238.45,81.34 238.83,80.87 239.22,80.39 239.6,79.91 239.99,79.42 240.38,78.91 240.76,78.4 241.15,77.88 241.53,77.34 241.92,76.79 242.3,76.23 242.69,75.66 243.08,75.08 243.46,74.49 243.85,73.89 244.23,73.27 244.62,72.66 245,72.04 245.39,71.42 245.78,70.79 246.16,70.17 246.55,69.56 246.93,68.95 247.32,68.35 247.7,67.76 248.09,67.19 248.48,66.64 248.86,66.11 249.25,65.59 249.63,65.11 250.02,64.64 250.41,64.2 250.79,63.79 251.18,63.4 251.56,63.04 251.95,62.71 252.33,62.41 252.72,62.13 253.11,61.88 253.49,61.65 253.88,61.44 254.26,61.26 254.65,61.09 255.03,60.95 255.42,60.82 255.81,60.71 256.19,60.62 256.58,60.54 256.96,60.46 257.35,60.4 257.73,60.35 258.12,60.31 258.51,60.27 258.89,60.24 259.28,60.22 259.66,60.2 260.05,60.18 260.44,60.17 260.82,60.15 261.21,60.15 261.59,60.14 261.98,60.13" stroke-dasharray="none" stroke="rgb(77,175,74)" stroke-width="0.75" opacity="1" stroke-opacity="1" fill="none"/>
          </g>
          <g id="Fig:densplot_01.xyplot.lines.group.10.panel.1.1.1">
            <polyline id="Fig:densplot_01.xyplot.lines.group.10.panel.1.1.1.1" points="64.73,60.15 65.12,60.15 65.5,60.17 65.89,60.18 66.28,60.2 66.66,60.23 67.05,60.25 67.44,60.29 67.82,60.33 68.21,60.39 68.59,60.46 68.98,60.54 69.37,60.63 69.75,60.74 70.14,60.88 70.53,61.04 70.91,61.23 71.3,61.45 71.68,61.71 72.07,62 72.46,62.35 72.84,62.74 73.23,63.2 73.62,63.71 74,64.29 74.39,64.93 74.77,65.67 75.16,66.49 75.55,67.4 75.93,68.41 76.32,69.51 76.71,70.71 77.09,72.04 77.48,73.49 77.86,75.05 78.25,76.73 78.64,78.54 79.02,80.46 79.41,82.53 79.8,84.73 80.18,87.06 80.57,89.5 80.95,92.07 81.34,94.75 81.73,97.58 82.11,100.51 82.5,103.55 82.89,106.69 83.27,109.92 83.66,113.23 84.04,116.64 84.43,120.13 84.82,123.67 85.2,127.27 85.59,130.91 85.97,134.59 86.36,138.3 86.75,142.02 87.13,145.76 87.52,149.49 87.91,153.21 88.29,156.92 88.68,160.59 89.06,164.22 89.45,167.81 89.84,171.35 90.22,174.82 90.61,178.23 91,181.55 91.38,184.79 91.77,187.94 92.15,191 92.54,193.97 92.93,196.83 93.31,199.57 93.7,202.2 94.09,204.72 94.47,207.13 94.86,209.42 95.24,211.58 95.63,213.62 96.02,215.53 96.4,217.33 96.79,219.01 97.18,220.58 97.56,222.01 97.95,223.32 98.33,224.52 98.72,225.61 99.11,226.6 99.49,227.47 99.88,228.23 100.27,228.88 100.65,229.43 101.04,229.89 101.42,230.25 101.81,230.53 102.2,230.69 102.58,230.77 102.97,230.76 103.36,230.67 103.74,230.5 104.13,230.25 104.51,229.92 104.9,229.51 105.29,229.03 105.67,228.48 106.06,227.87 106.44,227.2 106.83,226.46 107.22,225.67 107.6,224.82 107.99,223.94 108.38,223 108.76,222.03 109.15,221.02 109.53,219.98 109.92,218.91 110.31,217.81 110.69,216.69 111.08,215.56 111.47,214.4 111.85,213.23 112.24,212.04 112.62,210.85 113.01,209.64 113.4,208.42 113.78,207.2 114.17,205.96 114.56,204.71 114.94,203.45 115.33,202.19 115.71,200.91 116.1,199.63 116.49,198.33 116.87,197.02 117.26,195.71 117.65,194.39 118.03,193.05 118.42,191.71 118.8,190.37 119.19,189.02 119.58,187.67 119.96,186.32 120.35,184.97 120.74,183.62 121.12,182.29 121.51,180.95 121.89,179.63 122.28,178.32 122.67,177.03 123.05,175.75 123.44,174.49 123.83,173.24 124.21,172.02 124.6,170.81 124.98,169.63 125.37,168.47 125.76,167.32 126.14,166.2 126.53,165.09 126.91,164 127.3,162.93 127.69,161.87 128.07,160.83 128.46,159.8 128.85,158.77 129.23,157.76 129.62,156.76 130,155.76 130.39,154.77 130.78,153.79 131.16,152.82 131.55,151.86 131.94,150.9 132.32,149.96 132.71,149.04 133.09,148.13 133.48,147.23 133.87,146.36 134.25,145.51 134.64,144.69 135.03,143.9 135.41,143.14 135.8,142.41 136.18,141.71 136.57,141.06 136.96,140.44 137.34,139.86 137.73,139.31 138.12,138.81 138.5,138.33 138.89,137.9 139.27,137.5 139.66,137.13 140.05,136.79 140.43,136.46 140.82,136.17 141.21,135.89 141.59,135.63 141.98,135.38 142.36,135.14 142.75,134.91 143.14,134.68 143.52,134.46 143.91,134.24 144.3,134.01 144.68,133.79 145.07,133.56 145.45,133.33 145.84,133.09 146.23,132.85 146.61,132.62 147,132.38 147.38,132.14 147.77,131.9 148.16,131.66 148.54,131.42 148.93,131.19 149.32,130.97 149.7,130.75 150.09,130.54 150.47,130.34 150.86,130.15 151.25,129.97 151.63,129.81 152.02,129.65 152.41,129.52 152.79,129.4 153.18,129.29 153.56,129.21 153.95,129.14 154.34,129.09 154.72,129.06 155.11,129.06 155.5,129.08 155.88,129.12 156.27,129.18 156.65,129.26 157.04,129.37 157.43,129.51 157.81,129.67 158.2,129.85 158.59,130.06 158.97,130.29 159.36,130.55 159.74,130.82 160.13,131.12 160.52,131.44 160.9,131.78 161.29,132.14 161.68,132.51 162.06,132.91 162.45,133.31 162.83,133.73 163.22,134.15 163.61,134.59 163.99,135.04 164.38,135.49 164.77,135.95 165.15,136.41 165.54,136.88 165.92,137.35 166.31,137.81 166.7,138.28 167.08,138.74 167.47,139.21 167.85,139.67 168.24,140.12 168.63,140.58 169.01,141.02 169.4,141.47 169.79,141.91 170.17,142.35 170.56,142.79 170.94,143.22 171.33,143.65 171.72,144.08 172.1,144.51 172.49,144.94 172.88,145.37 173.26,145.8 173.65,146.23 174.03,146.66 174.42,147.09 174.81,147.52 175.19,147.96 175.58,148.39 175.97,148.83 176.35,149.26 176.74,149.7 177.12,150.13 177.51,150.55 177.9,150.97 178.28,151.39 178.67,151.79 179.06,152.19 179.44,152.57 179.83,152.94 180.21,153.3 180.6,153.64 180.99,153.97 181.37,154.27 181.76,154.56 182.15,154.83 182.53,155.08 182.92,155.31 183.3,155.52 183.69,155.71 184.08,155.88 184.46,156.03 184.85,156.16 185.24,156.28 185.62,156.38 186.01,156.47 186.39,156.54 186.78,156.6 187.17,156.64 187.55,156.67 187.94,156.69 188.32,156.7 188.71,156.7 189.1,156.68 189.48,156.65 189.87,156.62 190.26,156.57 190.64,156.5 191.03,156.43 191.41,156.34 191.8,156.23 192.19,156.11 192.57,155.98 192.96,155.83 193.35,155.66 193.73,155.47 194.12,155.26 194.5,155.03 194.89,154.79 195.28,154.52 195.66,154.23 196.05,153.92 196.44,153.59 196.82,153.24 197.21,152.87 197.59,152.49 197.98,152.07 198.37,151.64 198.75,151.19 199.14,150.73 199.53,150.24 199.91,149.74 200.3,149.22 200.68,148.69 201.07,148.14 201.46,147.58 201.84,147 202.23,146.41 202.62,145.8 203,145.18 203.39,144.54 203.77,143.9 204.16,143.24 204.55,142.57 204.93,141.89 205.32,141.19 205.71,140.48 206.09,139.76 206.48,139.03 206.86,138.28 207.25,137.52 207.64,136.75 208.02,135.98 208.41,135.19 208.79,134.39 209.18,133.58 209.57,132.76 209.95,131.94 210.34,131.11 210.73,130.27 211.11,129.44 211.5,128.59 211.88,127.75 212.27,126.9 212.66,126.06 213.04,125.22 213.43,124.38 213.82,123.54 214.2,122.71 214.59,121.88 214.97,121.06 215.36,120.25 215.75,119.44 216.13,118.64 216.52,117.84 216.91,117.06 217.29,116.28 217.68,115.51 218.06,114.74 218.45,113.98 218.84,113.23 219.22,112.48 219.61,111.74 220,111 220.38,110.26 220.77,109.53 221.15,108.8 221.54,108.07 221.93,107.34 222.31,106.62 222.7,105.9 223.09,105.18 223.47,104.46 223.86,103.75 224.24,103.04 224.63,102.33 225.02,101.63 225.4,100.93 225.79,100.24 226.18,99.55 226.56,98.87 226.95,98.2 227.33,97.53 227.72,96.87 228.11,96.22 228.49,95.58 228.88,94.94 229.26,94.32 229.65,93.7 230.04,93.09 230.42,92.49 230.81,91.9 231.2,91.32 231.58,90.75 231.97,90.18 232.35,89.62 232.74,89.07 233.13,88.52 233.51,87.98 233.9,87.45 234.29,86.92 234.67,86.4 235.06,85.88 235.44,85.37 235.83,84.85 236.22,84.35 236.6,83.84 236.99,83.33 237.38,82.83 237.76,82.33 238.15,81.82 238.53,81.32 238.92,80.81 239.31,80.29 239.69,79.78 240.08,79.25 240.47,78.73 240.85,78.19 241.24,77.65 241.62,77.1 242.01,76.54 242.4,75.97 242.78,75.39 243.17,74.81 243.56,74.22 243.94,73.62 244.33,73.01 244.71,72.4 245.1,71.79 245.49,71.18 245.87,70.57 246.26,69.96 246.65,69.36 247.03,68.76 247.42,68.18 247.8,67.6 248.19,67.05 248.58,66.51 248.96,65.99 249.35,65.49 249.73,65.01 250.12,64.55 250.51,64.13 250.89,63.73 251.28,63.35 251.67,63 252.05,62.67 252.44,62.37 252.82,62.1 253.21,61.86 253.6,61.63 253.98,61.43 254.37,61.25 254.76,61.09 255.14,60.95 255.53,60.82 255.91,60.71 256.3,60.62 256.69,60.53 257.07,60.46 257.46,60.4 257.85,60.35 258.23,60.31 258.62,60.27 259,60.24 259.39,60.22 259.78,60.2 260.16,60.18 260.55,60.17 260.94,60.16 261.32,60.15 261.71,60.14 262.09,60.13" stroke-dasharray="none" stroke="rgb(77,175,74)" stroke-width="0.75" opacity="1" stroke-opacity="1" fill="none"/>
          </g>
          <g id="Fig:densplot_01.xyplot.lines.group.11.panel.1.1.1">
            <polyline id="Fig:densplot_01.xyplot.lines.group.11.panel.1.1.1.1" points="64.67,60.15 65.05,60.16 65.44,60.17 65.82,60.19 66.21,60.22 66.6,60.24 66.98,60.28 67.37,60.32 67.76,60.37 68.14,60.43 68.53,60.51 68.92,60.6 69.3,60.71 69.69,60.85 70.08,61 70.46,61.19 70.85,61.41 71.24,61.67 71.62,61.96 72.01,62.31 72.39,62.7 72.78,63.16 73.17,63.68 73.55,64.28 73.94,64.94 74.33,65.68 74.71,66.52 75.1,67.46 75.49,68.5 75.87,69.64 76.26,70.89 76.65,72.25 77.03,73.74 77.42,75.37 77.81,77.12 78.19,78.99 78.58,80.99 78.97,83.11 79.35,85.37 79.74,87.78 80.12,90.3 80.51,92.94 80.9,95.7 81.28,98.56 81.67,101.55 82.06,104.64 82.44,107.83 82.83,111.1 83.22,114.44 83.6,117.86 83.99,121.34 84.38,124.89 84.76,128.47 85.15,132.09 85.54,135.74 85.92,139.41 86.31,143.1 86.69,146.78 87.08,150.46 87.47,154.12 87.85,157.77 88.24,161.39 88.63,164.96 89.01,168.49 89.4,171.97 89.79,175.4 90.17,178.76 90.56,182.05 90.95,185.25 91.33,188.36 91.72,191.39 92.11,194.33 92.49,197.17 92.88,199.91 93.27,202.51 93.65,205.01 94.04,207.4 94.42,209.67 94.81,211.82 95.2,213.85 95.58,215.74 95.97,217.5 96.36,219.15 96.74,220.68 97.13,222.09 97.52,223.37 97.9,224.52 98.29,225.55 98.68,226.48 99.06,227.29 99.45,228.01 99.84,228.61 100.22,229.1 100.61,229.5 100.99,229.81 101.38,230.03 101.77,230.16 102.15,230.21 102.54,230.16 102.93,230.05 103.31,229.86 103.7,229.6 104.09,229.27 104.47,228.87 104.86,228.4 105.25,227.86 105.63,227.27 106.02,226.62 106.41,225.91 106.79,225.13 107.18,224.3 107.57,223.42 107.95,222.49 108.34,221.51 108.72,220.49 109.11,219.41 109.5,218.3 109.88,217.15 110.27,215.97 110.66,214.76 111.04,213.53 111.43,212.26 111.82,210.98 112.2,209.68 112.59,208.37 112.98,207.06 113.36,205.73 113.75,204.4 114.14,203.07 114.52,201.75 114.91,200.42 115.29,199.1 115.68,197.78 116.07,196.47 116.45,195.17 116.84,193.87 117.23,192.58 117.61,191.29 118,190.02 118.39,188.74 118.77,187.48 119.16,186.21 119.55,184.95 119.93,183.7 120.32,182.45 120.71,181.2 121.09,179.96 121.48,178.72 121.87,177.49 122.25,176.27 122.64,175.05 123.02,173.84 123.41,172.64 123.8,171.46 124.18,170.28 124.57,169.12 124.96,167.98 125.34,166.85 125.73,165.75 126.12,164.66 126.5,163.59 126.89,162.55 127.28,161.53 127.66,160.53 128.05,159.55 128.44,158.6 128.82,157.67 129.21,156.76 129.59,155.87 129.98,155.01 130.37,154.16 130.75,153.33 131.14,152.52 131.53,151.73 131.91,150.95 132.3,150.19 132.69,149.44 133.07,148.71 133.46,147.99 133.85,147.28 134.23,146.59 134.62,145.91 135.01,145.25 135.39,144.6 135.78,143.96 136.17,143.33 136.55,142.73 136.94,142.14 137.32,141.56 137.71,141 138.1,140.46 138.48,139.94 138.87,139.44 139.26,138.96 139.64,138.5 140.03,138.06 140.42,137.63 140.8,137.23 141.19,136.84 141.58,136.48 141.96,136.12 142.35,135.79 142.74,135.47 143.12,135.16 143.51,134.87 143.89,134.59 144.28,134.32 144.67,134.06 145.05,133.81 145.44,133.57 145.83,133.34 146.21,133.11 146.6,132.89 146.99,132.67 147.37,132.46 147.76,132.26 148.15,132.06 148.53,131.86 148.92,131.67 149.31,131.49 149.69,131.31 150.08,131.14 150.47,130.98 150.85,130.82 151.24,130.67 151.62,130.53 152.01,130.4 152.4,130.28 152.78,130.17 153.17,130.07 153.56,129.99 153.94,129.92 154.33,129.86 154.72,129.81 155.1,129.79 155.49,129.78 155.88,129.79 156.26,129.81 156.65,129.86 157.04,129.93 157.42,130.02 157.81,130.14 158.19,130.27 158.58,130.43 158.97,130.61 159.35,130.81 159.74,131.04 160.13,131.29 160.51,131.55 160.9,131.84 161.29,132.15 161.67,132.48 162.06,132.83 162.45,133.19 162.83,133.56 163.22,133.95 163.61,134.35 163.99,134.76 164.38,135.18 164.77,135.6 165.15,136.04 165.54,136.47 165.92,136.92 166.31,137.36 166.7,137.81 167.08,138.26 167.47,138.72 167.86,139.18 168.24,139.64 168.63,140.11 169.02,140.58 169.4,141.05 169.79,141.53 170.18,142.01 170.56,142.5 170.95,142.99 171.34,143.49 171.72,143.99 172.11,144.49 172.49,145 172.88,145.51 173.27,146.02 173.65,146.53 174.04,147.03 174.43,147.54 174.81,148.04 175.2,148.53 175.59,149.01 175.97,149.48 176.36,149.94 176.75,150.38 177.13,150.81 177.52,151.21 177.91,151.6 178.29,151.97 178.68,152.32 179.07,152.65 179.45,152.95 179.84,153.23 180.22,153.49 180.61,153.73 181,153.95 181.38,154.14 181.77,154.32 182.16,154.47 182.54,154.6 182.93,154.72 183.32,154.82 183.7,154.91 184.09,154.97 184.48,155.03 184.86,155.06 185.25,155.09 185.64,155.1 186.02,155.11 186.41,155.09 186.79,155.07 187.18,155.04 187.57,155 187.95,154.95 188.34,154.89 188.73,154.83 189.11,154.75 189.5,154.67 189.89,154.58 190.27,154.48 190.66,154.37 191.05,154.26 191.43,154.14 191.82,154.01 192.21,153.88 192.59,153.73 192.98,153.58 193.37,153.42 193.75,153.24 194.14,153.06 194.52,152.86 194.91,152.65 195.3,152.43 195.68,152.19 196.07,151.93 196.46,151.66 196.84,151.38 197.23,151.07 197.62,150.74 198,150.39 198.39,150.02 198.78,149.63 199.16,149.22 199.55,148.79 199.94,148.33 200.32,147.85 200.71,147.35 201.09,146.82 201.48,146.27 201.87,145.7 202.25,145.11 202.64,144.49 203.03,143.85 203.41,143.19 203.8,142.52 204.19,141.83 204.57,141.12 204.96,140.4 205.35,139.66 205.73,138.91 206.12,138.15 206.51,137.39 206.89,136.61 207.28,135.83 207.67,135.05 208.05,134.26 208.44,133.48 208.82,132.69 209.21,131.9 209.6,131.12 209.98,130.34 210.37,129.57 210.76,128.8 211.14,128.04 211.53,127.29 211.92,126.54 212.3,125.8 212.69,125.06 213.08,124.34 213.46,123.62 213.85,122.9 214.24,122.2 214.62,121.49 215.01,120.79 215.39,120.09 215.78,119.4 216.17,118.7 216.55,118.01 216.94,117.31 217.33,116.61 217.71,115.9 218.1,115.19 218.49,114.47 218.87,113.75 219.26,113.01 219.65,112.27 220.03,111.53 220.42,110.77 220.81,110.01 221.19,109.24 221.58,108.46 221.97,107.68 222.35,106.89 222.74,106.1 223.12,105.31 223.51,104.52 223.9,103.73 224.28,102.94 224.67,102.15 225.06,101.38 225.44,100.61 225.83,99.84 226.22,99.09 226.6,98.35 226.99,97.62 227.38,96.91 227.76,96.21 228.15,95.53 228.54,94.86 228.92,94.2 229.31,93.56 229.7,92.94 230.08,92.34 230.47,91.74 230.85,91.16 231.24,90.59 231.63,90.04 232.01,89.49 232.4,88.96 232.79,88.43 233.17,87.92 233.56,87.41 233.95,86.9 234.33,86.41 234.72,85.91 235.11,85.42 235.49,84.94 235.88,84.45 236.27,83.97 236.65,83.49 237.04,83.01 237.42,82.52 237.81,82.04 238.2,81.56 238.58,81.07 238.97,80.58 239.36,80.08 239.74,79.58 240.13,79.07 240.52,78.56 240.9,78.04 241.29,77.51 241.68,76.97 242.06,76.43 242.45,75.87 242.84,75.31 243.22,74.74 243.61,74.16 244,73.57 244.38,72.98 244.77,72.38 245.15,71.78 245.54,71.18 245.93,70.57 246.31,69.97 246.7,69.38 247.09,68.79 247.47,68.21 247.86,67.64 248.25,67.09 248.63,66.55 249.02,66.03 249.41,65.53 249.79,65.05 250.18,64.6 250.57,64.17 250.95,63.77 251.34,63.39 251.72,63.04 252.11,62.71 252.5,62.41 252.88,62.14 253.27,61.89 253.66,61.66 254.04,61.45 254.43,61.27 254.82,61.11 255.2,60.97 255.59,60.84 255.98,60.73 256.36,60.63 256.75,60.55 257.14,60.47 257.52,60.41 257.91,60.36 258.3,60.32 258.68,60.28 259.07,60.25 259.45,60.22 259.84,60.2 260.23,60.18 260.61,60.17 261,60.16 261.39,60.15 261.77,60.14 262.16,60.13" stroke-dasharray="none" stroke="rgb(77,175,74)" stroke-width="0.75" opacity="1" stroke-opacity="1" fill="none"/>
          </g>
        </g>
        <g id="Fig:densplot_01.panel.1.1.off.vp.2">
          <g id="Fig:densplot_01.border.panel.1.1.1">
            <rect id="Fig:densplot_01.border.panel.1.1.1.1" x="50.8" y="48.19" width="225.2" height="194.52" transform="" stroke="rgb(0,0,0)" stroke-dasharray="none" stroke-width="0.75" opacity="1" fill="none" stroke-opacity="1" fill-opacity="0"/>
          </g>
        </g>
        <g id="Fig:densplot_01..1"/>
      </g>
    </g>
  </g>
</svg>