<?xml version="1.0" encoding="UTF-8"?>
<svg xmlns="http://www.w3.org/2000/svg" xmlns:xlink="http://www.w3.org/1999/xlink" width="288px" height="295.2px" viewBox="0 0 288 295.2" version="1.1" id="Fig:dens">
  <metadata xmlns:gridsvg="http://www.stat.auckland.ac.nz/~paul/R/gridSVG/">
    <gridsvg:generator name="gridSVG" version="1.7-4" time="2022-12-22 10:59:00"/>
    <gridsvg:argument name="name" value="results/raw/QCDir.Raw/dens.svg"/>
    <gridsvg:argument name="exportCoords" value="none"/>
    <gridsvg:argument name="exportMappings" value="none"/>
    <gridsvg:argument name="exportJS" value="none"/>
    <gridsvg:argument name="res" value="72"/>
    <gridsvg:argument name="prefix" value="Fig:dens"/>
    <gridsvg:argument name="addClasses" value="FALSE"/>
    <gridsvg:argument name="indent" value="TRUE"/>
    <gridsvg:argument name="htmlWrapper" value="FALSE"/>
    <gridsvg:argument name="usePaths" value="none"/>
    <gridsvg:argument name="uniqueNames" value="TRUE"/>
    <gridsvg:separator name="id.sep" value="."/>
    <gridsvg:separator name="gPath.sep" value="::"/>
    <gridsvg:separator name="vpPath.sep" value="::"/>
  </metadata>
  <g transform="translate(0, 295.2) scale(1, -1)">
    <g id="Fig:densgridSVG" fill="none" stroke="rgb(0,0,0)" stroke-dasharray="none" stroke-width="0.75" font-size="12" font-family="Helvetica, Arial, FreeSans, Liberation Sans, Nimbus Sans L, sans-serif" opacity="1" stroke-linecap="round" stroke-linejoin="round" stroke-miterlimit="10" stroke-opacity="1" fill-opacity="0" font-weight="normal" font-style="normal">
      <g id="Fig:densplot_01.background.1">
        <rect id="Fig:densplot_01.background.1.1" x="0" y="0" width="288" height="295.2" transform="" fill="none" stroke="none" stroke-opacity="0" fill-opacity="0"/>
      </g>
      <g id="Fig:densplot_01.toplevel.vp.1" font-size="12">
        <g id="Fig:densplot_01.main.vp.1">
          <g id="Fig:densGRID.VP.29.1">
            <g id="Fig:dens.key.frame.1">
              <g id="Fig:densGRID.VP.30.1">
                <g id="Fig:densGRID.cellGrob.36.1">
                  <g id="Fig:dens.key.background.1">
                    <rect id="Fig:dens.key.background.1.1" x="100.64" y="254.71" width="86.71" height="34.49" transform="" fill="none" opacity="1" stroke="none" stroke-opacity="0" fill-opacity="0"/>
                  </g>
                </g>
              </g>
              <g id="Fig:densGRID.VP.31.1">
                <g id="Fig:densGRID.cellGrob.37.1">
                  <g id="Fig:dens.key.rect.1.1.1">
                    <rect id="Fig:dens.key.rect.1.1.1.1" x="107.32" y="277.7" width="33.36" height="11.5" transform="" opacity="1" fill="rgb(228,26,28)" stroke="rgb(0,0,0)" stroke-opacity="1" fill-opacity="1"/>
                  </g>
                </g>
              </g>
              <g id="Fig:densGRID.VP.32.1">
                <g id="Fig:densGRID.cellGrob.38.1">
                  <g id="Fig:dens.key.rect.1.2.1">
                    <rect id="Fig:dens.key.rect.1.2.1.1" x="107.32" y="266.21" width="33.36" height="11.5" transform="" opacity="1" fill="rgb(55,126,184)" stroke="rgb(0,0,0)" stroke-opacity="1" fill-opacity="1"/>
                  </g>
                </g>
              </g>
              <g id="Fig:densGRID.VP.33.1">
                <g id="Fig:densGRID.cellGrob.39.1">
                  <g id="Fig:dens.key.rect.1.3.1">
                    <rect id="Fig:dens.key.rect.1.3.1.1" x="107.32" y="254.71" width="33.36" height="11.5" transform="" opacity="1" fill="rgb(77,175,74)" stroke="rgb(0,0,0)" stroke-opacity="1" fill-opacity="1"/>
                  </g>
                </g>
              </g>
              <g id="Fig:densGRID.VP.34.1">
                <g id="Fig:densGRID.cellGrob.40.1">
                  <g id="Fig:dens.key.text.2.1.1">
                    <g id="Fig:dens.key.text.2.1.1.1" transform="translate(154.02, 283.45)" stroke-width="0.1">
                      <g id="Fig:dens.key.text.2.1.1.1.scale" transform="scale(1, -1)">
                        <text x="0" y="0" id="Fig:dens.key.text.2.1.1.1.text" text-anchor="start" stroke="rgb(0,0,0)" opacity="1" fill="rgb(0,0,0)" stroke-opacity="1" fill-opacity="1" font-size="12" font-weight="normal" font-style="normal">
                          <tspan id="Fig:dens.key.text.2.1.1.1.tspan.1" dy="4.31" x="0">CTL</tspan>
                        </text>
                      </g>
                    </g>
                  </g>
                </g>
              </g>
              <g id="Fig:densGRID.VP.35.1">
                <g id="Fig:densGRID.cellGrob.41.1">
                  <g id="Fig:dens.key.text.2.2.1">
                    <g id="Fig:dens.key.text.2.2.1.1" transform="translate(154.02, 271.96)" stroke-width="0.1">
                      <g id="Fig:dens.key.text.2.2.1.1.scale" transform="scale(1, -1)">
                        <text x="0" y="0" id="Fig:dens.key.text.2.2.1.1.text" text-anchor="start" stroke="rgb(0,0,0)" opacity="1" fill="rgb(0,0,0)" stroke-opacity="1" fill-opacity="1" font-size="12" font-weight="normal" font-style="normal">
                          <tspan id="Fig:dens.key.text.2.2.1.1.tspan.1" dy="4.31" x="0">PD1</tspan>
                        </text>
                      </g>
                    </g>
                  </g>
                </g>
              </g>
              <g id="Fig:densGRID.VP.36.1">
                <g id="Fig:densGRID.cellGrob.42.1">
                  <g id="Fig:dens.key.text.2.3.1">
                    <g id="Fig:dens.key.text.2.3.1.1" transform="translate(154.02, 260.46)" stroke-width="0.1">
                      <g id="Fig:dens.key.text.2.3.1.1.scale" transform="scale(1, -1)">
                        <text x="0" y="0" id="Fig:dens.key.text.2.3.1.1.text" text-anchor="start" stroke="rgb(0,0,0)" opacity="1" fill="rgb(0,0,0)" stroke-opacity="1" fill-opacity="1" font-size="12" font-weight="normal" font-style="normal">
                          <tspan id="Fig:dens.key.text.2.3.1.1.tspan.1" dy="4.31" x="0">CMP</tspan>
                        </text>
                      </g>
                    </g>
                  </g>
                </g>
              </g>
            </g>
          </g>
        </g>
        <g id="Fig:densplot_01.ylab.vp.1">
          <g id="Fig:densplot_01.ylab.1">
            <g id="Fig:densplot_01.ylab.1.1" transform="translate(16.31, 145.45)" stroke-width="0.1">
              <g id="Fig:densplot_01.ylab.1.1.scale" transform="scale(1, -1)">
                <text x="0" y="0" id="Fig:densplot_01.ylab.1.1.text" transform="rotate(-90)" text-anchor="middle" opacity="1" stroke="rgb(0,0,0)" fill="rgb(0,0,0)" stroke-opacity="1" fill-opacity="1" font-size="12" font-weight="normal" font-style="normal">
                  <tspan id="Fig:densplot_01.ylab.1.1.tspan.1" dy="4.31" x="0">Density</tspan>
                </text>
              </g>
            </g>
          </g>
        </g>
        <g id="Fig:densplot_01.figure.vp.1"/>
        <defs>
          <clipPath id="Fig:densplot_01.panel.1.1.vp.1.clipPath">
            <rect x="50.8" y="48.19" width="225.2" height="194.52" fill="none" stroke="none"/>
          </clipPath>
        </defs>
        <g id="Fig:densplot_01.panel.1.1.vp.1" clip-path="url(#Fig:densplot_01.panel.1.1.vp.1.clipPath)"/>
        <g id="Fig:densplot_01.strip.1.1.off.vp.1"/>
        <g id="Fig:densplot_01.strip.left.1.1.off.vp.1">
          <g id="Fig:densplot_01.ticks.left.panel.1.1.1">
            <polyline id="Fig:densplot_01.ticks.left.panel.1.1.1.1" points="50.8,60.13 45.13,60.13" stroke="rgb(0,0,0)" opacity="1" stroke-dasharray="none" stroke-width="0.75" stroke-opacity="1" fill="none"/>
            <polyline id="Fig:densplot_01.ticks.left.panel.1.1.1.2" points="50.8,93.94 45.13,93.94" stroke="rgb(0,0,0)" opacity="1" stroke-dasharray="none" stroke-width="0.75" stroke-opacity="1" fill="none"/>
            <polyline id="Fig:densplot_01.ticks.left.panel.1.1.1.3" points="50.8,127.74 45.13,127.74" stroke="rgb(0,0,0)" opacity="1" stroke-dasharray="none" stroke-width="0.75" stroke-opacity="1" fill="none"/>
            <polyline id="Fig:densplot_01.ticks.left.panel.1.1.1.4" points="50.8,161.55 45.13,161.55" stroke="rgb(0,0,0)" opacity="1" stroke-dasharray="none" stroke-width="0.75" stroke-opacity="1" fill="none"/>
            <polyline id="Fig:densplot_01.ticks.left.panel.1.1.1.5" points="50.8,195.35 45.13,195.35" stroke="rgb(0,0,0)" opacity="1" stroke-dasharray="none" stroke-width="0.75" stroke-opacity="1" fill="none"/>
            <polyline id="Fig:densplot_01.ticks.left.panel.1.1.1.6" points="50.8,229.15 45.13,229.15" stroke="rgb(0,0,0)" opacity="1" stroke-dasharray="none" stroke-width="0.75" stroke-opacity="1" fill="none"/>
          </g>
          <g id="Fig:densplot_01.ticklabels.left.panel.1.1.1">
            <g id="Fig:densplot_01.ticklabels.left.panel.1.1.1.1" transform="translate(39.47, 60.13)" stroke-width="0.1">
              <g id="Fig:densplot_01.ticklabels.left.panel.1.1.1.1.scale" transform="scale(1, -1)">
                <text x="0" y="0" id="Fig:densplot_01.ticklabels.left.panel.1.1.1.1.text" transform="rotate(-90)" text-anchor="middle" stroke="rgb(0,0,0)" opacity="1" fill="rgb(0,0,0)" stroke-opacity="1" fill-opacity="1" font-size="9.6" font-weight="normal" font-style="normal">
                  <tspan id="Fig:densplot_01.ticklabels.left.panel.1.1.1.1.tspan.1" dy="0" x="0">0.000</tspan>
                </text>
              </g>
            </g>
            <g id="Fig:densplot_01.ticklabels.left.panel.1.1.1.2" transform="translate(39.47, 93.94)" stroke-width="0.1">
              <g id="Fig:densplot_01.ticklabels.left.panel.1.1.1.2.scale" transform="scale(1, -1)">
                <text x="0" y="0" id="Fig:densplot_01.ticklabels.left.panel.1.1.1.2.text" transform="rotate(-90)" text-anchor="middle" stroke="rgb(0,0,0)" opacity="1" fill="rgb(0,0,0)" stroke-opacity="1" fill-opacity="1" font-size="9.6" font-weight="normal" font-style="normal">
                  <tspan id="Fig:densplot_01.ticklabels.left.panel.1.1.1.2.tspan.1" dy="0" x="0">0.005</tspan>
                </text>
              </g>
            </g>
            <g id="Fig:densplot_01.ticklabels.left.panel.1.1.1.3" transform="translate(39.47, 127.74)" stroke-width="0.1">
              <g id="Fig:densplot_01.ticklabels.left.panel.1.1.1.3.scale" transform="scale(1, -1)">
                <text x="0" y="0" id="Fig:densplot_01.ticklabels.left.panel.1.1.1.3.text" transform="rotate(-90)" text-anchor="middle" stroke="rgb(0,0,0)" opacity="1" fill="rgb(0,0,0)" stroke-opacity="1" fill-opacity="1" font-size="9.6" font-weight="normal" font-style="normal">
                  <tspan id="Fig:densplot_01.ticklabels.left.panel.1.1.1.3.tspan.1" dy="0" x="0">0.010</tspan>
                </text>
              </g>
            </g>
            <g id="Fig:densplot_01.ticklabels.left.panel.1.1.1.4" transform="translate(39.47, 161.55)" stroke-width="0.1">
              <g id="Fig:densplot_01.ticklabels.left.panel.1.1.1.4.scale" transform="scale(1, -1)">
                <text x="0" y="0" id="Fig:densplot_01.ticklabels.left.panel.1.1.1.4.text" transform="rotate(-90)" text-anchor="middle" stroke="rgb(0,0,0)" opacity="1" fill="rgb(0,0,0)" stroke-opacity="1" fill-opacity="1" font-size="9.6" font-weight="normal" font-style="normal">
                  <tspan id="Fig:densplot_01.ticklabels.left.panel.1.1.1.4.tspan.1" dy="0" x="0">0.015</tspan>
                </text>
              </g>
            </g>
            <g id="Fig:densplot_01.ticklabels.left.panel.1.1.1.5" transform="translate(39.47, 195.35)" stroke-width="0.1">
              <g id="Fig:densplot_01.ticklabels.left.panel.1.1.1.5.scale" transform="scale(1, -1)">
                <text x="0" y="0" id="Fig:densplot_01.ticklabels.left.panel.1.1.1.5.text" transform="rotate(-90)" text-anchor="middle" stroke="rgb(0,0,0)" opacity="1" fill="rgb(0,0,0)" stroke-opacity="1" fill-opacity="1" font-size="9.6" font-weight="normal" font-style="normal">
                  <tspan id="Fig:densplot_01.ticklabels.left.panel.1.1.1.5.tspan.1" dy="0" x="0">0.020</tspan>
                </text>
              </g>
            </g>
            <g id="Fig:densplot_01.ticklabels.left.panel.1.1.1.6" transform="translate(39.47, 229.15)" stroke-width="0.1">
              <g id="Fig:densplot_01.ticklabels.left.panel.1.1.1.6.scale" transform="scale(1, -1)">
                <text x="0" y="0" id="Fig:densplot_01.ticklabels.left.panel.1.1.1.6.text" transform="rotate(-90)" text-anchor="middle" stroke="rgb(0,0,0)" opacity="1" fill="rgb(0,0,0)" stroke-opacity="1" fill-opacity="1" font-size="9.6" font-weight="normal" font-style="normal">
                  <tspan id="Fig:densplot_01.ticklabels.left.panel.1.1.1.6.tspan.1" dy="0" x="0">0.025</tspan>
                </text>
              </g>
            </g>
          </g>
        </g>
        <g id="Fig:densplot_01.panel.1.1.off.vp.1">
          <g id="Fig:densplot_01.ticks.bottom.panel.1.1.1">
            <polyline id="Fig:densplot_01.ticks.bottom.panel.1.1.1.1" points="65.42,48.19 65.42,42.52" stroke="rgb(0,0,0)" opacity="1" stroke-dasharray="none" stroke-width="0.75" stroke-opacity="1" fill="none"/>
            <polyline id="Fig:densplot_01.ticks.bottom.panel.1.1.1.2" points="104.63,48.19 104.63,42.52" stroke="rgb(0,0,0)" opacity="1" stroke-dasharray="none" stroke-width="0.75" stroke-opacity="1" fill="none"/>
            <polyline id="Fig:densplot_01.ticks.bottom.panel.1.1.1.3" points="143.84,48.19 143.84,42.52" stroke="rgb(0,0,0)" opacity="1" stroke-dasharray="none" stroke-width="0.75" stroke-opacity="1" fill="none"/>
            <polyline id="Fig:densplot_01.ticks.bottom.panel.1.1.1.4" points="183.04,48.19 183.04,42.52" stroke="rgb(0,0,0)" opacity="1" stroke-dasharray="none" stroke-width="0.75" stroke-opacity="1" fill="none"/>
            <polyline id="Fig:densplot_01.ticks.bottom.panel.1.1.1.5" points="222.25,48.19 222.25,42.52" stroke="rgb(0,0,0)" opacity="1" stroke-dasharray="none" stroke-width="0.75" stroke-opacity="1" fill="none"/>
            <polyline id="Fig:densplot_01.ticks.bottom.panel.1.1.1.6" points="261.46,48.19 261.46,42.52" stroke="rgb(0,0,0)" opacity="1" stroke-dasharray="none" stroke-width="0.75" stroke-opacity="1" fill="none"/>
          </g>
          <g id="Fig:densplot_01.ticklabels.bottom.panel.1.1.1">
            <g id="Fig:densplot_01.ticklabels.bottom.panel.1.1.1.1" transform="translate(65.42, 36.85)" stroke-width="0.1">
              <g id="Fig:densplot_01.ticklabels.bottom.panel.1.1.1.1.scale" transform="scale(1, -1)">
                <text x="0" y="0" id="Fig:densplot_01.ticklabels.bottom.panel.1.1.1.1.text" text-anchor="middle" stroke="rgb(0,0,0)" opacity="1" fill="rgb(0,0,0)" stroke-opacity="1" fill-opacity="1" font-size="9.6" font-weight="normal" font-style="normal">
                  <tspan id="Fig:densplot_01.ticklabels.bottom.panel.1.1.1.1.tspan.1" dy="7.18" x="0">0</tspan>
                </text>
              </g>
            </g>
            <g id="Fig:densplot_01.ticklabels.bottom.panel.1.1.1.2" transform="translate(104.63, 36.85)" stroke-width="0.1">
              <g id="Fig:densplot_01.ticklabels.bottom.panel.1.1.1.2.scale" transform="scale(1, -1)">
                <text x="0" y="0" id="Fig:densplot_01.ticklabels.bottom.panel.1.1.1.2.text" text-anchor="middle" stroke="rgb(0,0,0)" opacity="1" fill="rgb(0,0,0)" stroke-opacity="1" fill-opacity="1" font-size="9.6" font-weight="normal" font-style="normal">
                  <tspan id="Fig:densplot_01.ticklabels.bottom.panel.1.1.1.2.tspan.1" dy="7.18" x="0">500</tspan>
                </text>
              </g>
            </g>
            <g id="Fig:densplot_01.ticklabels.bottom.panel.1.1.1.3" transform="translate(143.84, 36.85)" stroke-width="0.1">
              <g id="Fig:densplot_01.ticklabels.bottom.panel.1.1.1.3.scale" transform="scale(1, -1)">
                <text x="0" y="0" id="Fig:densplot_01.ticklabels.bottom.panel.1.1.1.3.text" text-anchor="middle" stroke="rgb(0,0,0)" opacity="1" fill="rgb(0,0,0)" stroke-opacity="1" fill-opacity="1" font-size="9.6" font-weight="normal" font-style="normal">
                  <tspan id="Fig:densplot_01.ticklabels.bottom.panel.1.1.1.3.tspan.1" dy="7.18" x="0">1000</tspan>
                </text>
              </g>
            </g>
            <g id="Fig:densplot_01.ticklabels.bottom.panel.1.1.1.4" transform="translate(183.04, 36.85)" stroke-width="0.1">
              <g id="Fig:densplot_01.ticklabels.bottom.panel.1.1.1.4.scale" transform="scale(1, -1)">
                <text x="0" y="0" id="Fig:densplot_01.ticklabels.bottom.panel.1.1.1.4.text" text-anchor="middle" stroke="rgb(0,0,0)" opacity="1" fill="rgb(0,0,0)" stroke-opacity="1" fill-opacity="1" font-size="9.6" font-weight="normal" font-style="normal">
                  <tspan id="Fig:densplot_01.ticklabels.bottom.panel.1.1.1.4.tspan.1" dy="7.18" x="0">1500</tspan>
                </text>
              </g>
            </g>
            <g id="Fig:densplot_01.ticklabels.bottom.panel.1.1.1.5" transform="translate(222.25, 36.85)" stroke-width="0.1">
              <g id="Fig:densplot_01.ticklabels.bottom.panel.1.1.1.5.scale" transform="scale(1, -1)">
                <text x="0" y="0" id="Fig:densplot_01.ticklabels.bottom.panel.1.1.1.5.text" text-anchor="middle" stroke="rgb(0,0,0)" opacity="1" fill="rgb(0,0,0)" stroke-opacity="1" fill-opacity="1" font-size="9.6" font-weight="normal" font-style="normal">
                  <tspan id="Fig:densplot_01.ticklabels.bottom.panel.1.1.1.5.tspan.1" dy="7.18" x="0">2000</tspan>
                </text>
              </g>
            </g>
            <g id="Fig:densplot_01.ticklabels.bottom.panel.1.1.1.6" transform="translate(261.46, 36.85)" stroke-width="0.1">
              <g id="Fig:densplot_01.ticklabels.bottom.panel.1.1.1.6.scale" transform="scale(1, -1)">
                <text x="0" y="0" id="Fig:densplot_01.ticklabels.bottom.panel.1.1.1.6.text" text-anchor="middle" stroke="rgb(0,0,0)" opacity="1" fill="rgb(0,0,0)" stroke-opacity="1" fill-opacity="1" font-size="9.6" font-weight="normal" font-style="normal">
                  <tspan id="Fig:densplot_01.ticklabels.bottom.panel.1.1.1.6.tspan.1" dy="7.18" x="0">2500</tspan>
                </text>
              </g>
            </g>
          </g>
        </g>
        <defs>
          <clipPath id="Fig:densplot_01.panel.1.1.vp.2.clipPath">
            <rect x="50.8" y="48.19" width="225.2" height="194.52" fill="none" stroke="none"/>
          </clipPath>
        </defs>
        <g id="Fig:densplot_01.panel.1.1.vp.2" clip-path="url(#Fig:densplot_01.panel.1.1.vp.2.clipPath)">
          <g id="Fig:densplot_01.xyplot.lines.group.1.panel.1.1.1">
            <polyline id="Fig:densplot_01.xyplot.lines.group.1.panel.1.1.1.1" points="65.21,60.18 65.6,60.46 65.98,61.79 66.36,66.53 66.75,78.87 67.13,102.18 67.52,133.07 67.9,159.29 68.29,168.43 68.67,159.32 69.06,141.18 69.44,123.58 69.82,110.54 70.21,101.74 70.59,95.65 70.98,91.16 71.36,87.63 71.75,84.72 72.13,82.24 72.52,80.1 72.9,78.25 73.28,76.69 73.67,75.34 74.05,74.14 74.44,73.04 74.82,72.05 75.21,71.18 75.59,70.42 75.98,69.78 76.36,69.23 76.74,68.75 77.13,68.34 77.51,67.96 77.9,67.6 78.28,67.28 78.67,67 79.05,66.74 79.44,66.5 79.82,66.25 80.21,65.99 80.59,65.74 80.97,65.53 81.36,65.36 81.74,65.21 82.13,65.07 82.51,64.95 82.9,64.84 83.28,64.72 83.67,64.57 84.05,64.41 84.43,64.26 84.82,64.13 85.2,64.03 85.59,63.94 85.97,63.85 86.36,63.76 86.74,63.66 87.13,63.57 87.51,63.5 87.89,63.45 88.28,63.4 88.66,63.35 89.05,63.29 89.43,63.23 89.82,63.18 90.2,63.11 90.59,63.03 90.97,62.94 91.35,62.88 91.74,62.85 92.12,62.82 92.51,62.8 92.89,62.76 93.28,62.71 93.66,62.67 94.05,62.6 94.43,62.51 94.81,62.41 95.2,62.34 95.58,62.31 95.97,62.31 96.35,62.3 96.74,62.28 97.12,62.25 97.51,62.21 97.89,62.17 98.27,62.14 98.66,62.12 99.04,62.13 99.43,62.15 99.81,62.13 100.2,62.07 100.58,62 100.97,61.94 101.35,61.9 101.74,61.89 102.12,61.88 102.5,61.87 102.89,61.86 103.27,61.85 103.66,61.83 104.04,61.8 104.43,61.76 104.81,61.71 105.2,61.66 105.58,61.62 105.96,61.59 106.35,61.57 106.73,61.56 107.12,61.54 107.5,61.51 107.89,61.48 108.27,61.46 108.66,61.44 109.04,61.44 109.42,61.42 109.81,61.39 110.19,61.35 110.58,61.33 110.96,61.33 111.35,61.34 111.73,61.34 112.12,61.34 112.5,61.32 112.88,61.29 113.27,61.25 113.65,61.21 114.04,61.17 114.42,61.15 114.81,61.15 115.19,61.16 115.58,61.18 115.96,61.18 116.34,61.17 116.73,61.16 117.11,61.15 117.5,61.14 117.88,61.13 118.27,61.13 118.65,61.12 119.04,61.11 119.42,61.1 119.8,61.09 120.19,61.07 120.57,61.05 120.96,61.05 121.34,61.05 121.73,61.05 122.11,61.05 122.5,61.05 122.88,61.04 123.26,61.01 123.65,60.98 124.03,60.95 124.42,60.93 124.8,60.91 125.19,60.89 125.57,60.88 125.96,60.88 126.34,60.89 126.73,60.89 127.11,60.88 127.49,60.88 127.88,60.89 128.26,60.89 128.65,60.89 129.03,60.89 129.42,60.87 129.8,60.85 130.19,60.83 130.57,60.81 130.95,60.82 131.34,60.83 131.72,60.84 132.11,60.84 132.49,60.84 132.88,60.84 133.26,60.83 133.65,60.81 134.03,60.78 134.41,60.76 134.8,60.74 135.18,60.73 135.57,60.73 135.95,60.74 136.34,60.74 136.72,60.73 137.11,60.71 137.49,60.7 137.87,60.7 138.26,60.71 138.64,60.72 139.03,60.72 139.41,60.72 139.8,60.7 140.18,60.69 140.57,60.68 140.95,60.67 141.33,60.66 141.72,60.66 142.1,60.66 142.49,60.65 142.87,60.64 143.26,60.63 143.64,60.61 144.03,60.6 144.41,60.59 144.79,60.58 145.18,60.58 145.56,60.59 145.95,60.59 146.33,60.6 146.72,60.61 147.1,60.61 147.49,60.61 147.87,60.6 148.25,60.59 148.64,60.58 149.02,60.57 149.41,60.57 149.79,60.57 150.18,60.56 150.56,60.55 150.95,60.54 151.33,60.54 151.72,60.53 152.1,60.53 152.48,60.54 152.87,60.55 153.25,60.56 153.64,60.55 154.02,60.55 154.41,60.55 154.79,60.54 155.18,60.54 155.56,60.53 155.94,60.52 156.33,60.51 156.71,60.5 157.1,60.5 157.48,60.5 157.87,60.5 158.25,60.5 158.64,60.5 159.02,60.5 159.4,60.5 159.79,60.5 160.17,60.49 160.56,60.49 160.94,60.48 161.33,60.47 161.71,60.47 162.1,60.47 162.48,60.47 162.86,60.47 163.25,60.46 163.63,60.46 164.02,60.45 164.4,60.44 164.79,60.44 165.17,60.44 165.56,60.44 165.94,60.44 166.32,60.44 166.71,60.44 167.09,60.43 167.48,60.43 167.86,60.42 168.25,60.42 168.63,60.42 169.02,60.41 169.4,60.41 169.78,60.41 170.17,60.41 170.55,60.4 170.94,60.39 171.32,60.37 171.71,60.36 172.09,60.36 172.48,60.37 172.86,60.39 173.24,60.39 173.63,60.39 174.01,60.39 174.4,60.38 174.78,60.38 175.17,60.37 175.55,60.37 175.94,60.37 176.32,60.37 176.71,60.38 177.09,60.39 177.47,60.38 177.86,60.37 178.24,60.36 178.63,60.36 179.01,60.35 179.4,60.35 179.78,60.36 180.17,60.36 180.55,60.37 180.93,60.37 181.32,60.37 181.7,60.36 182.09,60.35 182.47,60.34 182.86,60.34 183.24,60.34 183.63,60.35 184.01,60.36 184.39,60.36 184.78,60.35 185.16,60.35 185.55,60.34 185.93,60.34 186.32,60.34 186.7,60.35 187.09,60.35 187.47,60.36 187.85,60.36 188.24,60.36 188.62,60.35 189.01,60.34 189.39,60.33 189.78,60.32 190.16,60.32 190.55,60.32 190.93,60.33 191.31,60.33 191.7,60.33 192.08,60.33 192.47,60.32 192.85,60.31 193.24,60.3 193.62,60.3 194.01,60.3 194.39,60.3 194.77,60.31 195.16,60.33 195.54,60.33 195.93,60.32 196.31,60.32 196.7,60.31 197.08,60.31 197.47,60.31 197.85,60.3 198.23,60.3 198.62,60.29 199,60.29 199.39,60.29 199.77,60.3 200.16,60.3 200.54,60.3 200.93,60.3 201.31,60.31 201.7,60.3 202.08,60.3 202.46,60.3 202.85,60.3 203.23,60.3 203.62,60.3 204,60.29 204.39,60.29 204.77,60.29 205.16,60.29 205.54,60.29 205.92,60.28 206.31,60.28 206.69,60.27 207.08,60.27 207.46,60.27 207.85,60.27 208.23,60.28 208.62,60.28 209,60.28 209.38,60.27 209.77,60.27 210.15,60.27 210.54,60.27 210.92,60.28 211.31,60.28 211.69,60.28 212.08,60.28 212.46,60.28 212.84,60.27 213.23,60.27 213.61,60.27 214,60.26 214.38,60.26 214.77,60.26 215.15,60.26 215.54,60.26 215.92,60.27 216.3,60.28 216.69,60.27 217.07,60.26 217.46,60.25 217.84,60.24 218.23,60.24 218.61,60.25 219,60.26 219.38,60.26 219.76,60.27 220.15,60.27 220.53,60.27 220.92,60.27 221.3,60.27 221.69,60.27 222.07,60.27 222.46,60.27 222.84,60.27 223.22,60.26 223.61,60.26 223.99,60.26 224.38,60.26 224.76,60.26 225.15,60.25 225.53,60.24 225.92,60.24 226.3,60.24 226.69,60.24 227.07,60.24 227.45,60.24 227.84,60.24 228.22,60.23 228.61,60.24 228.99,60.24 229.38,60.24 229.76,60.25 230.15,60.25 230.53,60.25 230.91,60.25 231.3,60.25 231.68,60.24 232.07,60.24 232.45,60.23 232.84,60.22 233.22,60.22 233.61,60.23 233.99,60.23 234.37,60.23 234.76,60.23 235.14,60.23 235.53,60.23 235.91,60.23 236.3,60.23 236.68,60.24 237.07,60.24 237.45,60.24 237.83,60.24 238.22,60.24 238.6,60.25 238.99,60.25 239.37,60.25 239.76,60.24 240.14,60.23 240.53,60.22 240.91,60.22 241.29,60.22 241.68,60.23 242.06,60.24 242.45,60.24 242.83,60.23 243.22,60.23 243.6,60.23 243.99,60.24 244.37,60.23 244.75,60.23 245.14,60.22 245.52,60.22 245.91,60.22 246.29,60.23 246.68,60.23 247.06,60.23 247.45,60.23 247.83,60.23 248.21,60.23 248.6,60.23 248.98,60.23 249.37,60.22 249.75,60.22 250.14,60.22 250.52,60.22 250.91,60.21 251.29,60.21 251.68,60.21 252.06,60.21 252.44,60.21 252.83,60.22 253.21,60.22 253.6,60.22 253.98,60.22 254.37,60.21 254.75,60.21 255.14,60.21 255.52,60.22 255.9,60.22 256.29,60.22 256.67,60.21 257.06,60.2 257.44,60.2 257.83,60.2 258.21,60.21 258.6,60.22 258.98,60.22 259.36,60.2 259.75,60.18 260.13,60.16 260.52,60.15 260.9,60.14 261.29,60.13 261.67,60.13" stroke-dasharray="none" stroke="rgb(228,26,28)" stroke-width="0.75" opacity="1" stroke-opacity="1" fill="none"/>
          </g>
          <g id="Fig:densplot_01.xyplot.lines.group.2.panel.1.1.1">
            <polyline id="Fig:densplot_01.xyplot.lines.group.2.panel.1.1.1.1" points="64.83,60.17 65.21,60.34 65.6,61.05 65.98,63.34 66.37,69.22 66.76,81.07 67.14,99.74 67.53,122.23 67.91,141.73 68.3,151.39 68.69,149.04 69.07,138.13 69.46,124.44 69.84,112.24 70.23,103.02 70.62,96.45 71,91.73 71.39,88.14 71.77,85.27 72.16,82.87 72.55,80.81 72.93,79.01 73.32,77.42 73.7,75.99 74.09,74.7 74.48,73.55 74.86,72.51 75.25,71.6 75.63,70.79 76.02,70.09 76.41,69.49 76.79,68.98 77.18,68.55 77.56,68.16 77.95,67.79 78.34,67.45 78.72,67.12 79.11,66.82 79.49,66.54 79.88,66.28 80.26,66.04 80.65,65.81 81.04,65.6 81.42,65.4 81.81,65.22 82.19,65.06 82.58,64.9 82.97,64.75 83.35,64.61 83.74,64.49 84.12,64.37 84.51,64.28 84.9,64.19 85.28,64.12 85.67,64.04 86.05,63.97 86.44,63.89 86.83,63.8 87.21,63.71 87.6,63.62 87.98,63.53 88.37,63.47 88.76,63.41 89.14,63.36 89.53,63.31 89.91,63.26 90.3,63.2 90.69,63.14 91.07,63.09 91.46,63.03 91.84,62.98 92.23,62.93 92.62,62.87 93,62.83 93.39,62.78 93.77,62.72 94.16,62.66 94.55,62.6 94.93,62.54 95.32,62.5 95.7,62.47 96.09,62.45 96.48,62.43 96.86,62.41 97.25,62.38 97.63,62.34 98.02,62.31 98.41,62.28 98.79,62.25 99.18,62.23 99.56,62.21 99.95,62.18 100.34,62.16 100.72,62.14 101.11,62.12 101.49,62.1 101.88,62.08 102.27,62.05 102.65,62 103.04,61.95 103.42,61.9 103.81,61.86 104.2,61.84 104.58,61.82 104.97,61.8 105.35,61.78 105.74,61.76 106.12,61.75 106.51,61.74 106.9,61.72 107.28,61.71 107.67,61.69 108.05,61.68 108.44,61.66 108.83,61.64 109.21,61.61 109.6,61.58 109.98,61.54 110.37,61.5 110.76,61.48 111.14,61.48 111.53,61.49 111.91,61.5 112.3,61.5 112.69,61.49 113.07,61.46 113.46,61.43 113.84,61.4 114.23,61.38 114.62,61.36 115,61.35 115.39,61.35 115.77,61.34 116.16,61.34 116.55,61.33 116.93,61.32 117.32,61.3 117.7,61.28 118.09,61.27 118.48,61.25 118.86,61.25 119.25,61.24 119.63,61.24 120.02,61.24 120.41,61.23 120.79,61.21 121.18,61.2 121.56,61.19 121.95,61.17 122.34,61.16 122.72,61.14 123.11,61.12 123.49,61.1 123.88,61.08 124.27,61.07 124.65,61.07 125.04,61.08 125.42,61.08 125.81,61.08 126.2,61.06 126.58,61.05 126.97,61.03 127.35,61.01 127.74,61 128.13,60.99 128.51,60.98 128.9,60.97 129.28,60.97 129.67,60.96 130.05,60.96 130.44,60.97 130.83,60.97 131.21,60.96 131.6,60.95 131.98,60.93 132.37,60.91 132.76,60.9 133.14,60.89 133.53,60.89 133.91,60.88 134.3,60.86 134.69,60.84 135.07,60.83 135.46,60.82 135.84,60.83 136.23,60.83 136.62,60.83 137,60.82 137.39,60.81 137.77,60.8 138.16,60.8 138.55,60.8 138.93,60.79 139.32,60.79 139.7,60.8 140.09,60.8 140.48,60.81 140.86,60.8 141.25,60.79 141.63,60.77 142.02,60.75 142.41,60.74 142.79,60.73 143.18,60.71 143.56,60.71 143.95,60.7 144.34,60.7 144.72,60.7 145.11,60.71 145.49,60.71 145.88,60.71 146.27,60.7 146.65,60.69 147.04,60.68 147.42,60.68 147.81,60.68 148.2,60.67 148.58,60.67 148.97,60.66 149.35,60.66 149.74,60.65 150.13,60.64 150.51,60.64 150.9,60.64 151.28,60.64 151.67,60.64 152.06,60.64 152.44,60.64 152.83,60.63 153.21,60.63 153.6,60.63 153.98,60.62 154.37,60.61 154.76,60.6 155.14,60.58 155.53,60.57 155.91,60.57 156.3,60.56 156.69,60.56 157.07,60.56 157.46,60.57 157.84,60.57 158.23,60.58 158.62,60.57 159,60.57 159.39,60.57 159.77,60.57 160.16,60.57 160.55,60.58 160.93,60.58 161.32,60.57 161.7,60.56 162.09,60.55 162.48,60.55 162.86,60.54 163.25,60.54 163.63,60.55 164.02,60.54 164.41,60.54 164.79,60.54 165.18,60.54 165.56,60.54 165.95,60.55 166.34,60.55 166.72,60.55 167.11,60.54 167.49,60.53 167.88,60.52 168.27,60.5 168.65,60.49 169.04,60.48 169.42,60.48 169.81,60.49 170.2,60.5 170.58,60.5 170.97,60.49 171.35,60.49 171.74,60.48 172.13,60.48 172.51,60.48 172.9,60.49 173.28,60.49 173.67,60.49 174.06,60.49 174.44,60.49 174.83,60.48 175.21,60.47 175.6,60.46 175.99,60.45 176.37,60.45 176.76,60.44 177.14,60.44 177.53,60.43 177.91,60.43 178.3,60.43 178.69,60.43 179.07,60.43 179.46,60.43 179.84,60.43 180.23,60.43 180.62,60.42 181,60.42 181.39,60.42 181.77,60.42 182.16,60.42 182.55,60.42 182.93,60.41 183.32,60.41 183.7,60.4 184.09,60.4 184.48,60.39 184.86,60.39 185.25,60.39 185.63,60.39 186.02,60.39 186.41,60.39 186.79,60.39 187.18,60.39 187.56,60.4 187.95,60.39 188.34,60.39 188.72,60.39 189.11,60.38 189.49,60.38 189.88,60.38 190.27,60.38 190.65,60.38 191.04,60.38 191.42,60.38 191.81,60.39 192.2,60.39 192.58,60.39 192.97,60.38 193.35,60.37 193.74,60.36 194.13,60.36 194.51,60.35 194.9,60.35 195.28,60.36 195.67,60.36 196.06,60.36 196.44,60.36 196.83,60.35 197.21,60.35 197.6,60.34 197.99,60.34 198.37,60.34 198.76,60.34 199.14,60.34 199.53,60.34 199.92,60.34 200.3,60.34 200.69,60.35 201.07,60.36 201.46,60.36 201.84,60.35 202.23,60.35 202.62,60.34 203,60.34 203.39,60.34 203.77,60.34 204.16,60.34 204.55,60.33 204.93,60.33 205.32,60.32 205.7,60.32 206.09,60.32 206.48,60.32 206.86,60.33 207.25,60.33 207.63,60.33 208.02,60.34 208.41,60.35 208.79,60.35 209.18,60.35 209.56,60.34 209.95,60.33 210.34,60.33 210.72,60.32 211.11,60.32 211.49,60.32 211.88,60.32 212.27,60.32 212.65,60.32 213.04,60.31 213.42,60.31 213.81,60.3 214.2,60.29 214.58,60.28 214.97,60.28 215.35,60.28 215.74,60.28 216.13,60.28 216.51,60.28 216.9,60.28 217.28,60.28 217.67,60.28 218.06,60.29 218.44,60.29 218.83,60.29 219.21,60.29 219.6,60.29 219.99,60.3 220.37,60.3 220.76,60.3 221.14,60.31 221.53,60.31 221.92,60.32 222.3,60.31 222.69,60.31 223.07,60.3 223.46,60.3 223.85,60.3 224.23,60.3 224.62,60.29 225,60.29 225.39,60.29 225.78,60.28 226.16,60.28 226.55,60.28 226.93,60.28 227.32,60.27 227.7,60.28 228.09,60.28 228.48,60.28 228.86,60.29 229.25,60.29 229.63,60.3 230.02,60.3 230.41,60.29 230.79,60.28 231.18,60.28 231.56,60.28 231.95,60.28 232.34,60.28 232.72,60.28 233.11,60.28 233.49,60.28 233.88,60.28 234.27,60.28 234.65,60.27 235.04,60.27 235.42,60.26 235.81,60.26 236.2,60.27 236.58,60.27 236.97,60.27 237.35,60.27 237.74,60.27 238.13,60.26 238.51,60.26 238.9,60.25 239.28,60.25 239.67,60.25 240.06,60.25 240.44,60.26 240.83,60.26 241.21,60.27 241.6,60.27 241.99,60.27 242.37,60.26 242.76,60.26 243.14,60.25 243.53,60.25 243.92,60.25 244.3,60.26 244.69,60.26 245.07,60.26 245.46,60.26 245.85,60.26 246.23,60.25 246.62,60.25 247,60.25 247.39,60.25 247.78,60.25 248.16,60.25 248.55,60.25 248.93,60.25 249.32,60.24 249.71,60.24 250.09,60.25 250.48,60.25 250.86,60.25 251.25,60.25 251.63,60.25 252.02,60.24 252.41,60.24 252.79,60.23 253.18,60.23 253.56,60.23 253.95,60.23 254.34,60.24 254.72,60.23 255.11,60.23 255.49,60.23 255.88,60.23 256.27,60.23 256.65,60.23 257.04,60.23 257.42,60.24 257.81,60.24 258.2,60.24 258.58,60.24 258.97,60.23 259.35,60.21 259.74,60.19 260.13,60.17 260.51,60.15 260.9,60.14 261.28,60.14 261.67,60.13 262.06,60.13" stroke-dasharray="none" stroke="rgb(228,26,28)" stroke-width="0.75" opacity="1" stroke-opacity="1" fill="none"/>
          </g>
          <g id="Fig:densplot_01.xyplot.lines.group.3.panel.1.1.1">
            <polyline id="Fig:densplot_01.xyplot.lines.group.3.panel.1.1.1.1" points="65.2,60.18 65.58,60.48 65.96,62.04 66.35,68.04 66.73,84.72 67.12,115.67 67.5,152.29 67.89,176.21 68.27,176.29 68.66,158.4 69.04,135.93 69.42,117.56 69.81,105.06 70.19,96.98 70.58,91.58 70.96,87.64 71.35,84.54 71.73,81.99 72.11,79.83 72.5,77.96 72.88,76.35 73.27,74.98 73.65,73.81 74.04,72.76 74.42,71.8 74.8,70.94 75.19,70.19 75.57,69.54 75.96,68.98 76.34,68.48 76.73,68.07 77.11,67.72 77.5,67.42 77.88,67.14 78.26,66.87 78.65,66.62 79.03,66.39 79.42,66.16 79.8,65.9 80.19,65.64 80.57,65.41 80.95,65.24 81.34,65.12 81.72,65.01 82.11,64.88 82.49,64.74 82.88,64.63 83.26,64.53 83.65,64.4 84.03,64.26 84.41,64.13 84.8,64 85.18,63.86 85.57,63.72 85.95,63.61 86.34,63.53 86.72,63.48 87.1,63.44 87.49,63.38 87.87,63.32 88.26,63.26 88.64,63.21 89.03,63.17 89.41,63.14 89.8,63.11 90.18,63.06 90.56,63 90.95,62.92 91.33,62.85 91.72,62.79 92.1,62.74 92.49,62.69 92.87,62.65 93.25,62.61 93.64,62.57 94.02,62.5 94.41,62.42 94.79,62.33 95.18,62.28 95.56,62.26 95.95,62.25 96.33,62.23 96.71,62.2 97.1,62.16 97.48,62.13 97.87,62.1 98.25,62.06 98.64,62.03 99.02,62.01 99.4,61.99 99.79,61.97 100.17,61.95 100.56,61.91 100.94,61.87 101.33,61.83 101.71,61.79 102.1,61.77 102.48,61.75 102.86,61.74 103.25,61.73 103.63,61.7 104.02,61.68 104.4,61.66 104.79,61.64 105.17,61.63 105.55,61.62 105.94,61.61 106.32,61.59 106.71,61.56 107.09,61.54 107.48,61.51 107.86,61.49 108.25,61.48 108.63,61.46 109.01,61.44 109.4,61.41 109.78,61.38 110.17,61.37 110.55,61.37 110.94,61.36 111.32,61.35 111.7,61.33 112.09,61.31 112.47,61.28 112.86,61.26 113.24,61.23 113.63,61.21 114.01,61.2 114.39,61.2 114.78,61.2 115.16,61.19 115.55,61.17 115.93,61.14 116.32,61.12 116.7,61.12 117.09,61.12 117.47,61.12 117.85,61.11 118.24,61.11 118.62,61.1 119.01,61.1 119.39,61.09 119.78,61.07 120.16,61.04 120.54,61.01 120.93,60.99 121.31,60.98 121.7,60.97 122.08,60.96 122.47,60.94 122.85,60.93 123.24,60.93 123.62,60.93 124,60.94 124.39,60.94 124.77,60.95 125.16,60.95 125.54,60.94 125.93,60.93 126.31,60.91 126.69,60.9 127.08,60.9 127.46,60.89 127.85,60.87 128.23,60.85 128.62,60.82 129,60.8 129.39,60.78 129.77,60.78 130.15,60.78 130.54,60.8 130.92,60.81 131.31,60.81 131.69,60.82 132.08,60.83 132.46,60.82 132.84,60.82 133.23,60.8 133.61,60.79 134,60.77 134.38,60.74 134.77,60.72 135.15,60.7 135.54,60.71 135.92,60.72 136.3,60.74 136.69,60.75 137.07,60.74 137.46,60.73 137.84,60.71 138.23,60.7 138.61,60.69 138.99,60.69 139.38,60.68 139.76,60.68 140.15,60.66 140.53,60.65 140.92,60.65 141.3,60.64 141.69,60.62 142.07,60.61 142.45,60.6 142.84,60.6 143.22,60.61 143.61,60.62 143.99,60.62 144.38,60.62 144.76,60.63 145.14,60.64 145.53,60.64 145.91,60.64 146.3,60.63 146.68,60.6 147.07,60.58 147.45,60.58 147.84,60.59 148.22,60.6 148.6,60.6 148.99,60.59 149.37,60.58 149.76,60.56 150.14,60.55 150.53,60.56 150.91,60.57 151.29,60.58 151.68,60.57 152.06,60.56 152.45,60.54 152.83,60.52 153.22,60.5 153.6,60.5 153.98,60.5 154.37,60.51 154.75,60.51 155.14,60.5 155.52,60.5 155.91,60.49 156.29,60.48 156.68,60.47 157.06,60.47 157.44,60.48 157.83,60.5 158.21,60.51 158.6,60.51 158.98,60.51 159.37,60.51 159.75,60.5 160.13,60.5 160.52,60.5 160.9,60.49 161.29,60.48 161.67,60.48 162.06,60.48 162.44,60.49 162.83,60.49 163.21,60.49 163.59,60.49 163.98,60.48 164.36,60.46 164.75,60.45 165.13,60.44 165.52,60.44 165.9,60.45 166.28,60.45 166.67,60.46 167.05,60.46 167.44,60.45 167.82,60.44 168.21,60.43 168.59,60.43 168.98,60.43 169.36,60.43 169.74,60.42 170.13,60.41 170.51,60.41 170.9,60.4 171.28,60.4 171.67,60.4 172.05,60.4 172.43,60.41 172.82,60.41 173.2,60.4 173.59,60.39 173.97,60.38 174.36,60.37 174.74,60.37 175.13,60.37 175.51,60.37 175.89,60.38 176.28,60.38 176.66,60.38 177.05,60.37 177.43,60.37 177.82,60.38 178.2,60.38 178.58,60.38 178.97,60.38 179.35,60.36 179.74,60.35 180.12,60.35 180.51,60.35 180.89,60.35 181.28,60.35 181.66,60.35 182.04,60.34 182.43,60.34 182.81,60.34 183.2,60.34 183.58,60.35 183.97,60.36 184.35,60.36 184.73,60.36 185.12,60.35 185.5,60.34 185.89,60.33 186.27,60.33 186.66,60.33 187.04,60.34 187.42,60.34 187.81,60.34 188.19,60.33 188.58,60.33 188.96,60.33 189.35,60.33 189.73,60.34 190.12,60.34 190.5,60.34 190.88,60.34 191.27,60.34 191.65,60.34 192.04,60.33 192.42,60.33 192.81,60.33 193.19,60.32 193.57,60.31 193.96,60.3 194.34,60.29 194.73,60.29 195.11,60.29 195.5,60.29 195.88,60.3 196.27,60.31 196.65,60.31 197.03,60.31 197.42,60.31 197.8,60.31 198.19,60.31 198.57,60.3 198.96,60.3 199.34,60.3 199.72,60.31 200.11,60.32 200.49,60.32 200.88,60.32 201.26,60.31 201.65,60.31 202.03,60.32 202.42,60.32 202.8,60.32 203.18,60.32 203.57,60.31 203.95,60.3 204.34,60.3 204.72,60.3 205.11,60.3 205.49,60.29 205.87,60.28 206.26,60.28 206.64,60.28 207.03,60.28 207.41,60.28 207.8,60.28 208.18,60.28 208.57,60.27 208.95,60.27 209.33,60.27 209.72,60.27 210.1,60.28 210.49,60.28 210.87,60.29 211.26,60.29 211.64,60.28 212.02,60.28 212.41,60.27 212.79,60.27 213.18,60.27 213.56,60.26 213.95,60.26 214.33,60.26 214.72,60.26 215.1,60.27 215.48,60.27 215.87,60.28 216.25,60.28 216.64,60.27 217.02,60.27 217.41,60.27 217.79,60.27 218.17,60.27 218.56,60.27 218.94,60.27 219.33,60.27 219.71,60.27 220.1,60.27 220.48,60.27 220.87,60.27 221.25,60.27 221.63,60.27 222.02,60.26 222.4,60.26 222.79,60.25 223.17,60.25 223.56,60.24 223.94,60.23 224.32,60.23 224.71,60.24 225.09,60.24 225.48,60.24 225.86,60.24 226.25,60.24 226.63,60.24 227.01,60.25 227.4,60.25 227.78,60.25 228.17,60.25 228.55,60.25 228.94,60.26 229.32,60.26 229.71,60.25 230.09,60.25 230.47,60.24 230.86,60.25 231.24,60.25 231.63,60.25 232.01,60.25 232.4,60.25 232.78,60.24 233.16,60.24 233.55,60.24 233.93,60.25 234.32,60.24 234.7,60.24 235.09,60.24 235.47,60.24 235.86,60.24 236.24,60.24 236.62,60.24 237.01,60.24 237.39,60.24 237.78,60.24 238.16,60.24 238.55,60.23 238.93,60.22 239.31,60.21 239.7,60.21 240.08,60.21 240.47,60.22 240.85,60.23 241.24,60.23 241.62,60.23 242.01,60.22 242.39,60.22 242.77,60.22 243.16,60.22 243.54,60.22 243.93,60.22 244.31,60.22 244.7,60.21 245.08,60.21 245.46,60.22 245.85,60.23 246.23,60.23 246.62,60.23 247,60.22 247.39,60.22 247.77,60.22 248.16,60.22 248.54,60.23 248.92,60.23 249.31,60.23 249.69,60.23 250.08,60.22 250.46,60.22 250.85,60.22 251.23,60.22 251.61,60.22 252,60.22 252.38,60.22 252.77,60.23 253.15,60.23 253.54,60.23 253.92,60.22 254.31,60.22 254.69,60.22 255.07,60.21 255.46,60.21 255.84,60.22 256.23,60.22 256.61,60.22 257,60.22 257.38,60.22 257.76,60.22 258.15,60.22 258.53,60.22 258.92,60.22 259.3,60.21 259.69,60.19 260.07,60.16 260.46,60.15 260.84,60.14 261.22,60.13 261.61,60.13" stroke-dasharray="none" stroke="rgb(228,26,28)" stroke-width="0.75" opacity="1" stroke-opacity="1" fill="none"/>
          </g>
          <g id="Fig:densplot_01.xyplot.lines.group.4.panel.1.1.1">
            <polyline id="Fig:densplot_01.xyplot.lines.group.4.panel.1.1.1.1" points="65.48,60.2 65.86,60.72 66.25,63.67 66.63,74.53 67.01,100.95 67.4,142.39 67.78,180.46 68.16,191.94 68.55,174.28 68.93,145.65 69.31,122.15 69.7,107.37 70.08,98.53 70.46,92.78 70.85,88.59 71.23,85.27 71.61,82.57 72,80.37 72.38,78.47 72.76,76.74 73.15,75.24 73.53,74 73.91,72.94 74.3,72.03 74.68,71.25 75.06,70.56 75.45,69.91 75.83,69.3 76.21,68.75 76.6,68.29 76.98,67.92 77.36,67.59 77.75,67.26 78.13,66.94 78.52,66.66 78.9,66.44 79.28,66.26 79.67,66.07 80.05,65.85 80.43,65.63 80.82,65.44 81.2,65.28 81.58,65.15 81.97,65.02 82.35,64.9 82.73,64.77 83.12,64.62 83.5,64.46 83.88,64.3 84.27,64.14 84.65,64.01 85.03,63.9 85.42,63.79 85.8,63.68 86.18,63.58 86.57,63.48 86.95,63.38 87.33,63.28 87.72,63.19 88.1,63.14 88.48,63.11 88.87,63.07 89.25,63.02 89.63,62.96 90.02,62.9 90.4,62.83 90.78,62.77 91.17,62.72 91.55,62.7 91.93,62.69 92.32,62.66 92.7,62.61 93.08,62.55 93.47,62.49 93.85,62.43 94.24,62.34 94.62,62.24 95,62.16 95.39,62.14 95.77,62.15 96.15,62.14 96.54,62.11 96.92,62.08 97.3,62.05 97.69,62.02 98.07,62 98.45,61.98 98.84,61.96 99.22,61.95 99.6,61.93 99.99,61.9 100.37,61.87 100.75,61.85 101.14,61.82 101.52,61.77 101.9,61.71 102.29,61.66 102.67,61.62 103.05,61.59 103.44,61.55 103.82,61.51 104.2,61.5 104.59,61.5 104.97,61.51 105.35,61.51 105.74,61.5 106.12,61.47 106.5,61.44 106.89,61.42 107.27,61.4 107.65,61.38 108.04,61.34 108.42,61.31 108.8,61.3 109.19,61.32 109.57,61.31 109.96,61.27 110.34,61.24 110.72,61.23 111.11,61.24 111.49,61.24 111.87,61.22 112.26,61.2 112.64,61.17 113.02,61.17 113.41,61.16 113.79,61.14 114.17,61.11 114.56,61.09 114.94,61.09 115.32,61.1 115.71,61.11 116.09,61.12 116.47,61.12 116.86,61.09 117.24,61.06 117.62,61.03 118.01,61.01 118.39,61 118.77,61.01 119.16,61.02 119.54,61.02 119.92,61.01 120.31,60.98 120.69,60.96 121.07,60.94 121.46,60.92 121.84,60.91 122.22,60.9 122.61,60.89 122.99,60.89 123.37,60.89 123.76,60.88 124.14,60.87 124.52,60.86 124.91,60.84 125.29,60.82 125.67,60.82 126.06,60.82 126.44,60.83 126.83,60.83 127.21,60.83 127.59,60.83 127.98,60.84 128.36,60.83 128.74,60.81 129.13,60.8 129.51,60.79 129.89,60.77 130.28,60.76 130.66,60.74 131.04,60.72 131.43,60.71 131.81,60.69 132.19,60.69 132.58,60.69 132.96,60.71 133.34,60.73 133.73,60.73 134.11,60.7 134.49,60.66 134.88,60.63 135.26,60.61 135.64,60.62 136.03,60.64 136.41,60.64 136.79,60.65 137.18,60.65 137.56,60.64 137.94,60.63 138.33,60.63 138.71,60.63 139.09,60.64 139.48,60.66 139.86,60.66 140.24,60.65 140.63,60.64 141.01,60.62 141.39,60.61 141.78,60.6 142.16,60.59 142.55,60.58 142.93,60.56 143.31,60.55 143.7,60.53 144.08,60.53 144.46,60.53 144.85,60.53 145.23,60.55 145.61,60.56 146,60.56 146.38,60.55 146.76,60.52 147.15,60.51 147.53,60.51 147.91,60.51 148.3,60.52 148.68,60.52 149.06,60.52 149.45,60.52 149.83,60.52 150.21,60.5 150.6,60.49 150.98,60.49 151.36,60.49 151.75,60.49 152.13,60.48 152.51,60.48 152.9,60.48 153.28,60.47 153.66,60.46 154.05,60.45 154.43,60.44 154.81,60.44 155.2,60.44 155.58,60.45 155.96,60.46 156.35,60.45 156.73,60.44 157.11,60.42 157.5,60.42 157.88,60.42 158.27,60.43 158.65,60.43 159.03,60.44 159.42,60.46 159.8,60.48 160.18,60.48 160.57,60.47 160.95,60.45 161.33,60.44 161.72,60.44 162.1,60.44 162.48,60.43 162.87,60.43 163.25,60.42 163.63,60.43 164.02,60.44 164.4,60.43 164.78,60.42 165.17,60.4 165.55,60.4 165.93,60.4 166.32,60.39 166.7,60.38 167.08,60.37 167.47,60.37 167.85,60.38 168.23,60.39 168.62,60.4 169,60.4 169.38,60.4 169.77,60.4 170.15,60.39 170.53,60.38 170.92,60.38 171.3,60.37 171.68,60.36 172.07,60.35 172.45,60.34 172.83,60.35 173.22,60.35 173.6,60.35 173.98,60.34 174.37,60.33 174.75,60.33 175.14,60.33 175.52,60.35 175.9,60.36 176.29,60.37 176.67,60.37 177.05,60.36 177.44,60.35 177.82,60.34 178.2,60.33 178.59,60.33 178.97,60.34 179.35,60.35 179.74,60.34 180.12,60.33 180.5,60.32 180.89,60.32 181.27,60.32 181.65,60.33 182.04,60.34 182.42,60.34 182.8,60.34 183.19,60.32 183.57,60.32 183.95,60.32 184.34,60.32 184.72,60.32 185.1,60.32 185.49,60.31 185.87,60.31 186.25,60.31 186.64,60.31 187.02,60.31 187.4,60.32 187.79,60.32 188.17,60.32 188.55,60.32 188.94,60.31 189.32,60.3 189.7,60.28 190.09,60.27 190.47,60.27 190.86,60.27 191.24,60.28 191.62,60.29 192.01,60.29 192.39,60.3 192.77,60.3 193.16,60.31 193.54,60.3 193.92,60.3 194.31,60.29 194.69,60.28 195.07,60.29 195.46,60.3 195.84,60.31 196.22,60.31 196.61,60.3 196.99,60.3 197.37,60.29 197.76,60.28 198.14,60.27 198.52,60.27 198.91,60.27 199.29,60.27 199.67,60.27 200.06,60.27 200.44,60.27 200.82,60.27 201.21,60.26 201.59,60.26 201.97,60.26 202.36,60.26 202.74,60.26 203.12,60.25 203.51,60.24 203.89,60.24 204.27,60.24 204.66,60.25 205.04,60.26 205.42,60.27 205.81,60.27 206.19,60.27 206.58,60.26 206.96,60.26 207.34,60.26 207.73,60.26 208.11,60.26 208.49,60.27 208.88,60.27 209.26,60.27 209.64,60.27 210.03,60.26 210.41,60.25 210.79,60.24 211.18,60.25 211.56,60.25 211.94,60.26 212.33,60.26 212.71,60.27 213.09,60.27 213.48,60.26 213.86,60.26 214.24,60.25 214.63,60.25 215.01,60.24 215.39,60.23 215.78,60.23 216.16,60.23 216.54,60.24 216.93,60.24 217.31,60.24 217.69,60.24 218.08,60.24 218.46,60.24 218.84,60.25 219.23,60.25 219.61,60.26 219.99,60.26 220.38,60.26 220.76,60.25 221.14,60.24 221.53,60.23 221.91,60.24 222.3,60.24 222.68,60.24 223.06,60.24 223.45,60.23 223.83,60.23 224.21,60.22 224.6,60.23 224.98,60.23 225.36,60.22 225.75,60.22 226.13,60.22 226.51,60.23 226.9,60.23 227.28,60.23 227.66,60.22 228.05,60.22 228.43,60.22 228.81,60.23 229.2,60.22 229.58,60.22 229.96,60.21 230.35,60.2 230.73,60.2 231.11,60.21 231.5,60.21 231.88,60.22 232.26,60.22 232.65,60.22 233.03,60.22 233.41,60.22 233.8,60.22 234.18,60.22 234.56,60.22 234.95,60.22 235.33,60.22 235.71,60.23 236.1,60.23 236.48,60.23 236.86,60.23 237.25,60.23 237.63,60.24 238.01,60.23 238.4,60.22 238.78,60.22 239.17,60.21 239.55,60.22 239.93,60.22 240.32,60.22 240.7,60.22 241.08,60.22 241.47,60.21 241.85,60.22 242.23,60.22 242.62,60.23 243,60.23 243.38,60.23 243.77,60.23 244.15,60.23 244.53,60.23 244.92,60.23 245.3,60.22 245.68,60.22 246.07,60.22 246.45,60.21 246.83,60.21 247.22,60.2 247.6,60.2 247.98,60.2 248.37,60.2 248.75,60.2 249.13,60.2 249.52,60.2 249.9,60.2 250.28,60.2 250.67,60.21 251.05,60.21 251.43,60.22 251.82,60.22 252.2,60.23 252.58,60.23 252.97,60.22 253.35,60.22 253.73,60.21 254.12,60.21 254.5,60.2 254.89,60.2 255.27,60.21 255.65,60.21 256.04,60.21 256.42,60.21 256.8,60.2 257.19,60.2 257.57,60.2 257.95,60.21 258.34,60.21 258.72,60.2 259.1,60.2 259.49,60.19 259.87,60.17 260.25,60.15 260.64,60.14 261.02,60.13 261.4,60.13" stroke-dasharray="none" stroke="rgb(228,26,28)" stroke-width="0.75" opacity="1" stroke-opacity="1" fill="none"/>
          </g>
          <g id="Fig:densplot_01.xyplot.lines.group.5.panel.1.1.1">
            <polyline id="Fig:densplot_01.xyplot.lines.group.5.panel.1.1.1.1" points="64.8,60.17 65.18,60.37 65.57,61.22 65.95,64.09 66.34,71.71 66.73,87.3 67.11,110.38 67.5,134.71 67.88,151.07 68.27,154.16 68.66,145.86 69.04,132.26 69.43,118.75 69.81,107.82 70.2,99.75 70.58,93.92 70.97,89.6 71.36,86.27 71.74,83.62 72.13,81.45 72.51,79.64 72.9,78.1 73.28,76.75 73.67,75.52 74.06,74.38 74.44,73.32 74.83,72.35 75.21,71.52 75.6,70.82 75.98,70.22 76.37,69.68 76.76,69.17 77.14,68.68 77.53,68.25 77.91,67.87 78.3,67.57 78.69,67.31 79.07,67.07 79.46,66.81 79.84,66.53 80.23,66.25 80.61,66 81,65.78 81.39,65.59 81.77,65.42 82.16,65.27 82.54,65.14 82.93,65.01 83.31,64.88 83.7,64.75 84.09,64.62 84.47,64.5 84.86,64.38 85.24,64.26 85.63,64.15 86.02,64.05 86.4,63.95 86.79,63.86 87.17,63.78 87.56,63.72 87.94,63.67 88.33,63.61 88.72,63.54 89.1,63.44 89.49,63.31 89.87,63.2 90.26,63.11 90.64,63.06 91.03,63.02 91.42,62.98 91.8,62.93 92.19,62.89 92.57,62.84 92.96,62.81 93.34,62.77 93.73,62.72 94.12,62.65 94.5,62.58 94.89,62.52 95.27,62.49 95.66,62.49 96.05,62.5 96.43,62.49 96.82,62.47 97.2,62.43 97.59,62.38 97.97,62.34 98.36,62.3 98.75,62.26 99.13,62.21 99.52,62.16 99.9,62.09 100.29,62.03 100.67,61.99 101.06,61.96 101.45,61.94 101.83,61.92 102.22,61.89 102.6,61.86 102.99,61.85 103.37,61.84 103.76,61.83 104.15,61.81 104.53,61.79 104.92,61.77 105.3,61.74 105.69,61.72 106.08,61.69 106.46,61.67 106.85,61.66 107.23,61.64 107.62,61.63 108,61.63 108.39,61.62 108.78,61.61 109.16,61.6 109.55,61.56 109.93,61.52 110.32,61.49 110.7,61.47 111.09,61.46 111.48,61.46 111.86,61.46 112.25,61.46 112.63,61.45 113.02,61.44 113.41,61.43 113.79,61.4 114.18,61.36 114.56,61.32 114.95,61.29 115.33,61.27 115.72,61.25 116.11,61.23 116.49,61.2 116.88,61.19 117.26,61.18 117.65,61.18 118.03,61.18 118.42,61.18 118.81,61.18 119.19,61.16 119.58,61.15 119.96,61.14 120.35,61.14 120.73,61.14 121.12,61.15 121.51,61.15 121.89,61.14 122.28,61.12 122.66,61.1 123.05,61.08 123.44,61.07 123.82,61.06 124.21,61.04 124.59,61.02 124.98,61 125.36,60.99 125.75,60.98 126.14,60.98 126.52,60.98 126.91,60.97 127.29,60.95 127.68,60.93 128.06,60.9 128.45,60.88 128.84,60.88 129.22,60.88 129.61,60.89 129.99,60.9 130.38,60.9 130.76,60.9 131.15,60.9 131.54,60.89 131.92,60.87 132.31,60.85 132.69,60.83 133.08,60.82 133.47,60.81 133.85,60.81 134.24,60.8 134.62,60.78 135.01,60.77 135.39,60.76 135.78,60.77 136.17,60.78 136.55,60.78 136.94,60.78 137.32,60.78 137.71,60.77 138.09,60.77 138.48,60.77 138.87,60.76 139.25,60.76 139.64,60.75 140.02,60.73 140.41,60.72 140.79,60.71 141.18,60.71 141.57,60.7 141.95,60.7 142.34,60.7 142.72,60.7 143.11,60.7 143.5,60.69 143.88,60.69 144.27,60.68 144.65,60.68 145.04,60.67 145.42,60.68 145.81,60.68 146.2,60.67 146.58,60.66 146.97,60.64 147.35,60.62 147.74,60.61 148.12,60.6 148.51,60.6 148.9,60.6 149.28,60.61 149.67,60.62 150.05,60.63 150.44,60.64 150.83,60.64 151.21,60.63 151.6,60.62 151.98,60.61 152.37,60.61 152.75,60.6 153.14,60.6 153.53,60.6 153.91,60.59 154.3,60.58 154.68,60.57 155.07,60.56 155.45,60.56 155.84,60.56 156.23,60.56 156.61,60.56 157,60.55 157.38,60.55 157.77,60.55 158.15,60.55 158.54,60.55 158.93,60.54 159.31,60.54 159.7,60.53 160.08,60.52 160.47,60.52 160.86,60.53 161.24,60.53 161.63,60.52 162.01,60.51 162.4,60.5 162.78,60.5 163.17,60.5 163.56,60.51 163.94,60.51 164.33,60.5 164.71,60.49 165.1,60.48 165.48,60.48 165.87,60.48 166.26,60.48 166.64,60.48 167.03,60.48 167.41,60.48 167.8,60.48 168.18,60.48 168.57,60.47 168.96,60.46 169.34,60.45 169.73,60.45 170.11,60.45 170.5,60.45 170.89,60.45 171.27,60.44 171.66,60.44 172.04,60.44 172.43,60.44 172.81,60.44 173.2,60.44 173.59,60.43 173.97,60.42 174.36,60.42 174.74,60.41 175.13,60.41 175.51,60.41 175.9,60.41 176.29,60.42 176.67,60.42 177.06,60.43 177.44,60.43 177.83,60.42 178.22,60.41 178.6,60.41 178.99,60.41 179.37,60.4 179.76,60.4 180.14,60.39 180.53,60.38 180.92,60.37 181.3,60.37 181.69,60.37 182.07,60.37 182.46,60.37 182.84,60.38 183.23,60.38 183.62,60.38 184,60.38 184.39,60.37 184.77,60.37 185.16,60.36 185.54,60.36 185.93,60.35 186.32,60.35 186.7,60.36 187.09,60.36 187.47,60.37 187.86,60.38 188.25,60.39 188.63,60.39 189.02,60.38 189.4,60.37 189.79,60.37 190.17,60.36 190.56,60.36 190.95,60.36 191.33,60.36 191.72,60.35 192.1,60.35 192.49,60.34 192.87,60.34 193.26,60.33 193.65,60.33 194.03,60.33 194.42,60.33 194.8,60.33 195.19,60.33 195.57,60.33 195.96,60.33 196.35,60.33 196.73,60.33 197.12,60.33 197.5,60.34 197.89,60.34 198.28,60.34 198.66,60.34 199.05,60.34 199.43,60.33 199.82,60.32 200.2,60.32 200.59,60.32 200.98,60.32 201.36,60.33 201.75,60.34 202.13,60.34 202.52,60.34 202.9,60.34 203.29,60.33 203.68,60.33 204.06,60.32 204.45,60.32 204.83,60.32 205.22,60.32 205.6,60.32 205.99,60.32 206.38,60.31 206.76,60.3 207.15,60.29 207.53,60.29 207.92,60.29 208.31,60.3 208.69,60.31 209.08,60.32 209.46,60.32 209.85,60.32 210.23,60.32 210.62,60.31 211.01,60.3 211.39,60.29 211.78,60.29 212.16,60.29 212.55,60.29 212.93,60.3 213.32,60.3 213.71,60.3 214.09,60.29 214.48,60.29 214.86,60.28 215.25,60.28 215.64,60.28 216.02,60.28 216.41,60.28 216.79,60.28 217.18,60.28 217.56,60.28 217.95,60.28 218.34,60.28 218.72,60.28 219.11,60.28 219.49,60.28 219.88,60.28 220.26,60.27 220.65,60.27 221.04,60.27 221.42,60.27 221.81,60.27 222.19,60.27 222.58,60.27 222.96,60.27 223.35,60.27 223.74,60.27 224.12,60.26 224.51,60.26 224.89,60.25 225.28,60.25 225.67,60.25 226.05,60.26 226.44,60.26 226.82,60.26 227.21,60.26 227.59,60.26 227.98,60.25 228.37,60.25 228.75,60.25 229.14,60.26 229.52,60.26 229.91,60.27 230.29,60.27 230.68,60.27 231.07,60.26 231.45,60.26 231.84,60.26 232.22,60.25 232.61,60.25 232.99,60.25 233.38,60.24 233.77,60.24 234.15,60.25 234.54,60.25 234.92,60.25 235.31,60.25 235.7,60.25 236.08,60.25 236.47,60.24 236.85,60.24 237.24,60.24 237.62,60.24 238.01,60.24 238.4,60.24 238.78,60.25 239.17,60.25 239.55,60.25 239.94,60.25 240.32,60.25 240.71,60.25 241.1,60.25 241.48,60.25 241.87,60.25 242.25,60.26 242.64,60.26 243.02,60.25 243.41,60.25 243.8,60.25 244.18,60.25 244.57,60.25 244.95,60.25 245.34,60.25 245.73,60.25 246.11,60.25 246.5,60.25 246.88,60.25 247.27,60.25 247.65,60.24 248.04,60.24 248.43,60.23 248.81,60.23 249.2,60.24 249.58,60.24 249.97,60.24 250.35,60.24 250.74,60.24 251.13,60.24 251.51,60.24 251.9,60.24 252.28,60.24 252.67,60.24 253.06,60.24 253.44,60.24 253.83,60.23 254.21,60.23 254.6,60.23 254.98,60.23 255.37,60.22 255.76,60.22 256.14,60.22 256.53,60.23 256.91,60.24 257.3,60.24 257.68,60.24 258.07,60.24 258.46,60.23 258.84,60.23 259.23,60.22 259.61,60.2 260,60.18 260.38,60.16 260.77,60.14 261.16,60.14 261.54,60.13 261.93,60.13" stroke-dasharray="none" stroke="rgb(55,126,184)" stroke-width="0.75" opacity="1" stroke-opacity="1" fill="none"/>
          </g>
          <g id="Fig:densplot_01.xyplot.lines.group.6.panel.1.1.1">
            <polyline id="Fig:densplot_01.xyplot.lines.group.6.panel.1.1.1.1" points="64.76,60.18 65.14,60.47 65.53,61.79 65.91,66.24 66.3,77.27 66.68,97.3 67.07,123.52 67.46,147.09 67.84,158.75 68.23,155.87 68.61,143.28 69,128.01 69.38,114.66 69.77,104.56 70.16,97.29 70.54,92.03 70.93,88.09 71.31,85.01 71.7,82.5 72.08,80.37 72.47,78.52 72.85,76.91 73.24,75.51 73.63,74.29 74.01,73.19 74.4,72.21 74.78,71.37 75.17,70.68 75.55,70.13 75.94,69.62 76.33,69.12 76.71,68.65 77.1,68.25 77.48,67.91 77.87,67.6 78.25,67.29 78.64,66.98 79.02,66.69 79.41,66.43 79.8,66.19 80.18,65.94 80.57,65.71 80.95,65.52 81.34,65.37 81.72,65.23 82.11,65.09 82.5,64.94 82.88,64.79 83.27,64.65 83.65,64.51 84.04,64.37 84.42,64.24 84.81,64.13 85.19,64.06 85.58,64 85.97,63.95 86.35,63.88 86.74,63.79 87.12,63.68 87.51,63.56 87.89,63.44 88.28,63.36 88.67,63.29 89.05,63.25 89.44,63.22 89.82,63.18 90.21,63.14 90.59,63.08 90.98,63.03 91.37,62.99 91.75,62.94 92.14,62.89 92.52,62.82 92.91,62.76 93.29,62.71 93.68,62.66 94.06,62.61 94.45,62.54 94.84,62.46 95.22,62.4 95.61,62.37 95.99,62.35 96.38,62.32 96.76,62.28 97.15,62.24 97.54,62.21 97.92,62.19 98.31,62.17 98.69,62.16 99.08,62.15 99.46,62.14 99.85,62.1 100.23,62.06 100.62,62.02 101.01,62 101.39,61.99 101.78,61.99 102.16,61.99 102.55,61.97 102.93,61.95 103.32,61.91 103.71,61.86 104.09,61.81 104.48,61.76 104.86,61.72 105.25,61.69 105.63,61.68 106.02,61.67 106.4,61.66 106.79,61.63 107.18,61.6 107.56,61.57 107.95,61.55 108.33,61.53 108.72,61.52 109.1,61.51 109.49,61.51 109.88,61.5 110.26,61.48 110.65,61.47 111.03,61.46 111.42,61.44 111.8,61.4 112.19,61.37 112.57,61.34 112.96,61.33 113.35,61.32 113.73,61.31 114.12,61.31 114.5,61.32 114.89,61.32 115.27,61.31 115.66,61.28 116.05,61.25 116.43,61.21 116.82,61.18 117.2,61.15 117.59,61.11 117.97,61.1 118.36,61.1 118.74,61.12 119.13,61.14 119.52,61.15 119.9,61.13 120.29,61.11 120.67,61.09 121.06,61.07 121.44,61.05 121.83,61.02 122.22,61 122.6,60.98 122.99,60.97 123.37,60.96 123.76,60.96 124.14,60.96 124.53,60.95 124.91,60.94 125.3,60.95 125.69,60.96 126.07,60.97 126.46,60.97 126.84,60.96 127.23,60.95 127.61,60.95 128,60.95 128.39,60.95 128.77,60.94 129.16,60.91 129.54,60.88 129.93,60.86 130.31,60.84 130.7,60.83 131.08,60.81 131.47,60.8 131.86,60.79 132.24,60.79 132.63,60.79 133.01,60.8 133.4,60.79 133.78,60.79 134.17,60.78 134.56,60.76 134.94,60.75 135.33,60.75 135.71,60.75 136.1,60.76 136.48,60.76 136.87,60.75 137.25,60.74 137.64,60.73 138.03,60.73 138.41,60.73 138.8,60.73 139.18,60.73 139.57,60.72 139.95,60.71 140.34,60.7 140.73,60.68 141.11,60.67 141.5,60.67 141.88,60.67 142.27,60.67 142.65,60.66 143.04,60.65 143.42,60.64 143.81,60.63 144.2,60.63 144.58,60.63 144.97,60.64 145.35,60.64 145.74,60.63 146.12,60.62 146.51,60.61 146.9,60.59 147.28,60.59 147.67,60.59 148.05,60.59 148.44,60.6 148.82,60.6 149.21,60.61 149.59,60.6 149.98,60.59 150.37,60.58 150.75,60.57 151.14,60.56 151.52,60.55 151.91,60.55 152.29,60.56 152.68,60.58 153.07,60.58 153.45,60.58 153.84,60.57 154.22,60.55 154.61,60.54 154.99,60.54 155.38,60.55 155.76,60.56 156.15,60.56 156.54,60.56 156.92,60.54 157.31,60.53 157.69,60.51 158.08,60.49 158.46,60.49 158.85,60.49 159.24,60.49 159.62,60.5 160.01,60.5 160.39,60.51 160.78,60.51 161.16,60.5 161.55,60.5 161.93,60.49 162.32,60.49 162.71,60.48 163.09,60.47 163.48,60.46 163.86,60.45 164.25,60.45 164.63,60.45 165.02,60.46 165.41,60.45 165.79,60.45 166.18,60.44 166.56,60.45 166.95,60.45 167.33,60.45 167.72,60.45 168.1,60.45 168.49,60.44 168.88,60.44 169.26,60.44 169.65,60.43 170.03,60.43 170.42,60.42 170.8,60.42 171.19,60.43 171.58,60.43 171.96,60.44 172.35,60.43 172.73,60.43 173.12,60.42 173.5,60.42 173.89,60.41 174.27,60.41 174.66,60.4 175.05,60.4 175.43,60.39 175.82,60.38 176.2,60.38 176.59,60.39 176.97,60.39 177.36,60.4 177.75,60.4 178.13,60.39 178.52,60.38 178.9,60.38 179.29,60.37 179.67,60.37 180.06,60.37 180.44,60.37 180.83,60.36 181.22,60.37 181.6,60.37 181.99,60.38 182.37,60.38 182.76,60.38 183.14,60.37 183.53,60.37 183.92,60.36 184.3,60.36 184.69,60.36 185.07,60.35 185.46,60.35 185.84,60.36 186.23,60.36 186.61,60.37 187,60.37 187.39,60.37 187.77,60.37 188.16,60.36 188.54,60.36 188.93,60.35 189.31,60.34 189.7,60.34 190.09,60.35 190.47,60.35 190.86,60.35 191.24,60.35 191.63,60.34 192.01,60.33 192.4,60.33 192.78,60.33 193.17,60.34 193.56,60.34 193.94,60.34 194.33,60.33 194.71,60.32 195.1,60.31 195.48,60.31 195.87,60.31 196.26,60.32 196.64,60.32 197.03,60.32 197.41,60.31 197.8,60.3 198.18,60.29 198.57,60.29 198.95,60.29 199.34,60.29 199.73,60.29 200.11,60.3 200.5,60.31 200.88,60.32 201.27,60.33 201.65,60.33 202.04,60.32 202.43,60.32 202.81,60.31 203.2,60.31 203.58,60.3 203.97,60.3 204.35,60.29 204.74,60.3 205.12,60.3 205.51,60.3 205.9,60.3 206.28,60.3 206.67,60.3 207.05,60.3 207.44,60.31 207.82,60.31 208.21,60.31 208.6,60.31 208.98,60.3 209.37,60.29 209.75,60.28 210.14,60.27 210.52,60.27 210.91,60.27 211.29,60.26 211.68,60.27 212.07,60.27 212.45,60.27 212.84,60.28 213.22,60.28 213.61,60.29 213.99,60.29 214.38,60.3 214.77,60.29 215.15,60.29 215.54,60.28 215.92,60.28 216.31,60.28 216.69,60.27 217.08,60.27 217.46,60.27 217.85,60.27 218.24,60.27 218.62,60.27 219.01,60.27 219.39,60.27 219.78,60.27 220.16,60.27 220.55,60.26 220.94,60.26 221.32,60.26 221.71,60.26 222.09,60.26 222.48,60.26 222.86,60.25 223.25,60.25 223.63,60.25 224.02,60.24 224.41,60.25 224.79,60.26 225.18,60.26 225.56,60.27 225.95,60.27 226.33,60.27 226.72,60.26 227.11,60.25 227.49,60.25 227.88,60.25 228.26,60.26 228.65,60.26 229.03,60.26 229.42,60.25 229.8,60.25 230.19,60.24 230.58,60.24 230.96,60.23 231.35,60.23 231.73,60.23 232.12,60.24 232.5,60.24 232.89,60.24 233.28,60.24 233.66,60.24 234.05,60.24 234.43,60.24 234.82,60.24 235.2,60.24 235.59,60.24 235.97,60.23 236.36,60.23 236.75,60.23 237.13,60.24 237.52,60.24 237.9,60.24 238.29,60.24 238.67,60.24 239.06,60.23 239.45,60.23 239.83,60.23 240.22,60.23 240.6,60.23 240.99,60.23 241.37,60.23 241.76,60.23 242.14,60.23 242.53,60.23 242.92,60.23 243.3,60.23 243.69,60.23 244.07,60.23 244.46,60.23 244.84,60.23 245.23,60.23 245.62,60.23 246,60.23 246.39,60.24 246.77,60.24 247.16,60.24 247.54,60.24 247.93,60.25 248.31,60.25 248.7,60.24 249.09,60.23 249.47,60.22 249.86,60.22 250.24,60.22 250.63,60.22 251.01,60.22 251.4,60.22 251.79,60.22 252.17,60.23 252.56,60.23 252.94,60.23 253.33,60.22 253.71,60.22 254.1,60.22 254.48,60.22 254.87,60.23 255.26,60.23 255.64,60.22 256.03,60.22 256.41,60.22 256.8,60.22 257.18,60.22 257.57,60.22 257.96,60.22 258.34,60.22 258.73,60.22 259.11,60.21 259.5,60.19 259.88,60.18 260.27,60.16 260.65,60.14 261.04,60.14 261.43,60.13 261.81,60.13" stroke-dasharray="none" stroke="rgb(55,126,184)" stroke-width="0.75" opacity="1" stroke-opacity="1" fill="none"/>
          </g>
          <g id="Fig:densplot_01.xyplot.lines.group.7.panel.1.1.1">
            <polyline id="Fig:densplot_01.xyplot.lines.group.7.panel.1.1.1.1" points="65.47,60.18 65.86,60.78 66.24,64.94 66.62,81.02 67.01,116.4 67.39,159.81 67.77,184.5 68.15,179.37 68.54,157.9 68.92,136.15 69.3,119.86 69.69,108.53 70.07,100.6 70.45,94.87 70.84,90.58 71.22,87.16 71.6,84.3 71.98,81.88 72.37,79.82 72.75,78.07 73.13,76.61 73.52,75.35 73.9,74.23 74.28,73.25 74.66,72.41 75.05,71.65 75.43,70.94 75.81,70.3 76.2,69.76 76.58,69.26 76.96,68.77 77.35,68.29 77.73,67.87 78.11,67.54 78.49,67.31 78.88,67.07 79.26,66.83 79.64,66.59 80.03,66.27 80.41,65.89 80.79,65.55 81.18,65.33 81.56,65.19 81.94,65.06 82.32,64.88 82.71,64.66 83.09,64.49 83.47,64.38 83.86,64.28 84.24,64.14 84.62,63.98 85.01,63.87 85.39,63.79 85.77,63.71 86.15,63.61 86.54,63.5 86.92,63.38 87.3,63.25 87.69,63.13 88.07,63.02 88.45,62.96 88.83,62.93 89.22,62.9 89.6,62.84 89.98,62.74 90.37,62.64 90.75,62.56 91.13,62.48 91.52,62.42 91.9,62.41 92.28,62.41 92.66,62.39 93.05,62.31 93.43,62.24 93.81,62.19 94.2,62.14 94.58,62.05 94.96,61.95 95.35,61.91 95.73,61.91 96.11,61.89 96.49,61.87 96.88,61.88 97.26,61.91 97.64,61.89 98.03,61.81 98.41,61.72 98.79,61.67 99.18,61.67 99.56,61.68 99.94,61.65 100.32,61.61 100.71,61.58 101.09,61.57 101.47,61.56 101.86,61.55 102.24,61.54 102.62,61.51 103,61.46 103.39,61.41 103.77,61.36 104.15,61.3 104.54,61.27 104.92,61.27 105.3,61.27 105.69,61.27 106.07,61.26 106.45,61.25 106.83,61.24 107.22,61.22 107.6,61.21 107.98,61.2 108.37,61.18 108.75,61.17 109.13,61.17 109.52,61.15 109.9,61.1 110.28,61.03 110.66,60.98 111.05,60.96 111.43,60.97 111.81,60.99 112.2,61.01 112.58,61.02 112.96,61.01 113.35,60.98 113.73,60.96 114.11,60.94 114.49,60.92 114.88,60.91 115.26,60.88 115.64,60.85 116.03,60.85 116.41,60.86 116.79,60.87 117.18,60.89 117.56,60.9 117.94,60.91 118.32,60.89 118.71,60.88 119.09,60.86 119.47,60.86 119.86,60.85 120.24,60.82 120.62,60.78 121,60.76 121.39,60.76 121.77,60.77 122.15,60.78 122.54,60.79 122.92,60.8 123.3,60.78 123.69,60.75 124.07,60.72 124.45,60.7 124.83,60.69 125.22,60.67 125.6,60.67 125.98,60.68 126.37,60.7 126.75,60.71 127.13,60.69 127.52,60.68 127.9,60.68 128.28,60.67 128.66,60.66 129.05,60.65 129.43,60.64 129.81,60.64 130.2,60.63 130.58,60.62 130.96,60.62 131.35,60.63 131.73,60.63 132.11,60.63 132.49,60.63 132.88,60.62 133.26,60.6 133.64,60.58 134.03,60.56 134.41,60.55 134.79,60.54 135.17,60.53 135.56,60.54 135.94,60.56 136.32,60.56 136.71,60.55 137.09,60.53 137.47,60.51 137.86,60.5 138.24,60.5 138.62,60.51 139,60.51 139.39,60.54 139.77,60.56 140.15,60.56 140.54,60.56 140.92,60.53 141.3,60.5 141.69,60.47 142.07,60.46 142.45,60.47 142.83,60.49 143.22,60.49 143.6,60.48 143.98,60.47 144.37,60.45 144.75,60.45 145.13,60.46 145.52,60.47 145.9,60.48 146.28,60.47 146.66,60.45 147.05,60.44 147.43,60.44 147.81,60.44 148.2,60.44 148.58,60.44 148.96,60.43 149.34,60.42 149.73,60.41 150.11,60.42 150.49,60.42 150.88,60.42 151.26,60.42 151.64,60.41 152.03,60.4 152.41,60.4 152.79,60.4 153.17,60.4 153.56,60.4 153.94,60.41 154.32,60.41 154.71,60.4 155.09,60.39 155.47,60.38 155.86,60.38 156.24,60.38 156.62,60.38 157,60.37 157.39,60.36 157.77,60.35 158.15,60.35 158.54,60.35 158.92,60.37 159.3,60.37 159.69,60.37 160.07,60.36 160.45,60.35 160.83,60.35 161.22,60.35 161.6,60.35 161.98,60.35 162.37,60.35 162.75,60.36 163.13,60.36 163.52,60.36 163.9,60.35 164.28,60.34 164.66,60.33 165.05,60.33 165.43,60.33 165.81,60.33 166.2,60.33 166.58,60.32 166.96,60.32 167.34,60.33 167.73,60.34 168.11,60.33 168.49,60.32 168.88,60.32 169.26,60.33 169.64,60.34 170.03,60.35 170.41,60.35 170.79,60.33 171.17,60.32 171.56,60.31 171.94,60.31 172.32,60.3 172.71,60.3 173.09,60.3 173.47,60.3 173.86,60.31 174.24,60.3 174.62,60.3 175,60.29 175.39,60.29 175.77,60.3 176.15,60.31 176.54,60.31 176.92,60.3 177.3,60.3 177.69,60.3 178.07,60.3 178.45,60.3 178.83,60.29 179.22,60.29 179.6,60.29 179.98,60.29 180.37,60.28 180.75,60.26 181.13,60.26 181.51,60.26 181.9,60.27 182.28,60.28 182.66,60.29 183.05,60.29 183.43,60.29 183.81,60.28 184.2,60.28 184.58,60.28 184.96,60.29 185.34,60.29 185.73,60.3 186.11,60.3 186.49,60.29 186.88,60.28 187.26,60.28 187.64,60.27 188.03,60.27 188.41,60.28 188.79,60.28 189.17,60.29 189.56,60.29 189.94,60.28 190.32,60.28 190.71,60.28 191.09,60.27 191.47,60.27 191.86,60.26 192.24,60.26 192.62,60.25 193,60.24 193.39,60.24 193.77,60.25 194.15,60.25 194.54,60.25 194.92,60.25 195.3,60.26 195.68,60.27 196.07,60.27 196.45,60.26 196.83,60.26 197.22,60.26 197.6,60.26 197.98,60.25 198.37,60.25 198.75,60.25 199.13,60.25 199.51,60.25 199.9,60.25 200.28,60.25 200.66,60.25 201.05,60.25 201.43,60.25 201.81,60.25 202.2,60.25 202.58,60.25 202.96,60.25 203.34,60.25 203.73,60.26 204.11,60.26 204.49,60.26 204.88,60.25 205.26,60.25 205.64,60.24 206.03,60.24 206.41,60.23 206.79,60.23 207.17,60.23 207.56,60.24 207.94,60.24 208.32,60.24 208.71,60.24 209.09,60.24 209.47,60.24 209.85,60.24 210.24,60.24 210.62,60.24 211,60.25 211.39,60.24 211.77,60.24 212.15,60.24 212.54,60.23 212.92,60.23 213.3,60.23 213.68,60.22 214.07,60.22 214.45,60.22 214.83,60.22 215.22,60.22 215.6,60.22 215.98,60.23 216.37,60.22 216.75,60.22 217.13,60.22 217.51,60.22 217.9,60.22 218.28,60.22 218.66,60.21 219.05,60.21 219.43,60.22 219.81,60.22 220.2,60.22 220.58,60.22 220.96,60.22 221.34,60.21 221.73,60.21 222.11,60.21 222.49,60.21 222.88,60.21 223.26,60.21 223.64,60.21 224.03,60.21 224.41,60.21 224.79,60.21 225.17,60.21 225.56,60.21 225.94,60.21 226.32,60.21 226.71,60.21 227.09,60.21 227.47,60.21 227.85,60.21 228.24,60.21 228.62,60.21 229,60.21 229.39,60.21 229.77,60.2 230.15,60.19 230.54,60.19 230.92,60.19 231.3,60.21 231.68,60.21 232.07,60.22 232.45,60.21 232.83,60.21 233.22,60.21 233.6,60.21 233.98,60.21 234.37,60.2 234.75,60.2 235.13,60.2 235.51,60.2 235.9,60.21 236.28,60.2 236.66,60.19 237.05,60.19 237.43,60.19 237.81,60.2 238.2,60.21 238.58,60.21 238.96,60.21 239.34,60.2 239.73,60.2 240.11,60.2 240.49,60.2 240.88,60.2 241.26,60.2 241.64,60.19 242.02,60.19 242.41,60.19 242.79,60.19 243.17,60.19 243.56,60.19 243.94,60.19 244.32,60.18 244.71,60.18 245.09,60.19 245.47,60.19 245.85,60.19 246.24,60.19 246.62,60.19 247,60.19 247.39,60.19 247.77,60.19 248.15,60.19 248.54,60.19 248.92,60.19 249.3,60.19 249.68,60.19 250.07,60.19 250.45,60.19 250.83,60.19 251.22,60.19 251.6,60.19 251.98,60.2 252.37,60.2 252.75,60.2 253.13,60.19 253.51,60.19 253.9,60.19 254.28,60.19 254.66,60.19 255.05,60.19 255.43,60.19 255.81,60.18 256.19,60.19 256.58,60.19 256.96,60.19 257.34,60.19 257.73,60.19 258.11,60.2 258.49,60.2 258.88,60.2 259.26,60.2 259.64,60.19 260.02,60.17 260.41,60.15 260.79,60.14 261.17,60.13" stroke-dasharray="none" stroke="rgb(55,126,184)" stroke-width="0.75" opacity="1" stroke-opacity="1" fill="none"/>
          </g>
          <g id="Fig:densplot_01.xyplot.lines.group.8.panel.1.1.1">
            <polyline id="Fig:densplot_01.xyplot.lines.group.8.panel.1.1.1.1" points="64.63,60.18 65.02,60.36 65.4,61.11 65.79,63.47 66.18,69.34 66.56,80.87 66.95,98.6 67.34,119.59 67.72,137.79 68.11,147.35 68.5,146.27 68.88,137.11 69.27,124.59 69.66,112.67 70.04,103.18 70.43,96.26 70.82,91.31 71.2,87.64 71.59,84.76 71.98,82.38 72.36,80.36 72.75,78.62 73.14,77.11 73.52,75.8 73.91,74.66 74.3,73.65 74.68,72.76 75.07,71.96 75.46,71.23 75.84,70.56 76.23,69.94 76.62,69.37 77,68.86 77.39,68.42 77.78,68.05 78.16,67.71 78.55,67.39 78.94,67.1 79.32,66.82 79.71,66.57 80.09,66.35 80.48,66.16 80.87,65.97 81.25,65.78 81.64,65.59 82.03,65.4 82.41,65.23 82.8,65.06 83.19,64.9 83.57,64.74 83.96,64.59 84.35,64.44 84.73,64.32 85.12,64.22 85.51,64.14 85.89,64.07 86.28,63.99 86.67,63.9 87.05,63.81 87.44,63.71 87.83,63.61 88.21,63.54 88.6,63.47 88.99,63.41 89.37,63.36 89.76,63.31 90.15,63.27 90.53,63.23 90.92,63.19 91.31,63.15 91.69,63.11 92.08,63.06 92.47,63.01 92.85,62.95 93.24,62.89 93.62,62.84 94.01,62.79 94.4,62.73 94.78,62.68 95.17,62.63 95.56,62.58 95.94,62.53 96.33,62.48 96.72,62.43 97.1,62.37 97.49,62.33 97.88,62.3 98.26,62.29 98.65,62.27 99.04,62.25 99.42,62.22 99.81,62.2 100.2,62.17 100.58,62.14 100.97,62.11 101.36,62.08 101.74,62.05 102.13,62.02 102.52,61.99 102.9,61.96 103.29,61.93 103.68,61.89 104.06,61.86 104.45,61.84 104.84,61.83 105.22,61.82 105.61,61.82 106,61.8 106.38,61.79 106.77,61.78 107.16,61.76 107.54,61.73 107.93,61.7 108.31,61.67 108.7,61.64 109.09,61.61 109.47,61.6 109.86,61.58 110.25,61.58 110.63,61.57 111.02,61.57 111.41,61.55 111.79,61.54 112.18,61.53 112.57,61.52 112.95,61.51 113.34,61.49 113.73,61.45 114.11,61.41 114.5,61.37 114.89,61.34 115.27,61.33 115.66,61.33 116.05,61.33 116.43,61.32 116.82,61.29 117.21,61.27 117.59,61.25 117.98,61.25 118.37,61.25 118.75,61.25 119.14,61.25 119.53,61.25 119.91,61.24 120.3,61.23 120.69,61.21 121.07,61.2 121.46,61.18 121.84,61.17 122.23,61.16 122.62,61.14 123,61.13 123.39,61.12 123.78,61.12 124.16,61.12 124.55,61.12 124.94,61.11 125.32,61.11 125.71,61.09 126.1,61.07 126.48,61.05 126.87,61.02 127.26,61 127.64,60.99 128.03,61 128.42,61 128.8,61.01 129.19,61 129.58,60.98 129.96,60.96 130.35,60.95 130.74,60.94 131.12,60.93 131.51,60.92 131.9,60.91 132.28,60.9 132.67,60.89 133.06,60.89 133.44,60.88 133.83,60.87 134.22,60.86 134.6,60.85 134.99,60.85 135.38,60.84 135.76,60.85 136.15,60.86 136.53,60.87 136.92,60.88 137.31,60.88 137.69,60.87 138.08,60.86 138.47,60.86 138.85,60.85 139.24,60.84 139.63,60.84 140.01,60.83 140.4,60.81 140.79,60.8 141.17,60.78 141.56,60.77 141.95,60.75 142.33,60.74 142.72,60.74 143.11,60.73 143.49,60.73 143.88,60.73 144.27,60.72 144.65,60.71 145.04,60.7 145.43,60.69 145.81,60.69 146.2,60.69 146.59,60.69 146.97,60.69 147.36,60.69 147.75,60.68 148.13,60.68 148.52,60.67 148.91,60.66 149.29,60.66 149.68,60.65 150.07,60.65 150.45,60.66 150.84,60.66 151.22,60.66 151.61,60.66 152,60.65 152.38,60.65 152.77,60.64 153.16,60.63 153.54,60.62 153.93,60.61 154.32,60.6 154.7,60.59 155.09,60.58 155.48,60.58 155.86,60.59 156.25,60.6 156.64,60.61 157.02,60.61 157.41,60.61 157.8,60.6 158.18,60.6 158.57,60.61 158.96,60.61 159.34,60.61 159.73,60.6 160.12,60.59 160.5,60.58 160.89,60.57 161.28,60.56 161.66,60.56 162.05,60.56 162.44,60.56 162.82,60.55 163.21,60.55 163.6,60.54 163.98,60.54 164.37,60.54 164.75,60.54 165.14,60.53 165.53,60.53 165.91,60.53 166.3,60.54 166.69,60.53 167.07,60.53 167.46,60.52 167.85,60.51 168.23,60.5 168.62,60.5 169.01,60.51 169.39,60.5 169.78,60.5 170.17,60.5 170.55,60.5 170.94,60.5 171.33,60.5 171.71,60.51 172.1,60.51 172.49,60.52 172.87,60.51 173.26,60.5 173.65,60.49 174.03,60.47 174.42,60.46 174.81,60.45 175.19,60.45 175.58,60.45 175.97,60.46 176.35,60.45 176.74,60.45 177.13,60.45 177.51,60.45 177.9,60.45 178.29,60.45 178.67,60.45 179.06,60.44 179.44,60.44 179.83,60.44 180.22,60.45 180.6,60.46 180.99,60.47 181.38,60.47 181.76,60.46 182.15,60.45 182.54,60.43 182.92,60.42 183.31,60.41 183.7,60.41 184.08,60.41 184.47,60.41 184.86,60.42 185.24,60.42 185.63,60.42 186.02,60.42 186.4,60.42 186.79,60.42 187.18,60.41 187.56,60.41 187.95,60.4 188.34,60.39 188.72,60.39 189.11,60.38 189.5,60.38 189.88,60.38 190.27,60.39 190.66,60.39 191.04,60.39 191.43,60.38 191.82,60.38 192.2,60.37 192.59,60.37 192.98,60.36 193.36,60.36 193.75,60.36 194.13,60.36 194.52,60.36 194.91,60.35 195.29,60.34 195.68,60.34 196.07,60.34 196.45,60.34 196.84,60.35 197.23,60.36 197.61,60.37 198,60.37 198.39,60.38 198.77,60.37 199.16,60.37 199.55,60.37 199.93,60.36 200.32,60.36 200.71,60.36 201.09,60.35 201.48,60.35 201.87,60.35 202.25,60.35 202.64,60.35 203.03,60.35 203.41,60.34 203.8,60.34 204.19,60.34 204.57,60.34 204.96,60.34 205.35,60.34 205.73,60.34 206.12,60.34 206.51,60.34 206.89,60.34 207.28,60.34 207.66,60.34 208.05,60.34 208.44,60.34 208.82,60.34 209.21,60.34 209.6,60.34 209.98,60.34 210.37,60.34 210.76,60.34 211.14,60.34 211.53,60.33 211.92,60.33 212.3,60.32 212.69,60.32 213.08,60.32 213.46,60.32 213.85,60.32 214.24,60.31 214.62,60.31 215.01,60.3 215.4,60.3 215.78,60.29 216.17,60.29 216.56,60.3 216.94,60.3 217.33,60.31 217.72,60.32 218.1,60.32 218.49,60.32 218.88,60.31 219.26,60.3 219.65,60.29 220.04,60.29 220.42,60.29 220.81,60.29 221.2,60.29 221.58,60.3 221.97,60.3 222.35,60.3 222.74,60.31 223.13,60.31 223.51,60.31 223.9,60.3 224.29,60.3 224.67,60.29 225.06,60.28 225.45,60.28 225.83,60.28 226.22,60.28 226.61,60.29 226.99,60.29 227.38,60.3 227.77,60.3 228.15,60.3 228.54,60.29 228.93,60.29 229.31,60.29 229.7,60.28 230.09,60.28 230.47,60.28 230.86,60.28 231.25,60.28 231.63,60.28 232.02,60.28 232.41,60.27 232.79,60.27 233.18,60.27 233.57,60.27 233.95,60.27 234.34,60.27 234.73,60.27 235.11,60.27 235.5,60.28 235.88,60.28 236.27,60.27 236.66,60.26 237.04,60.26 237.43,60.25 237.82,60.25 238.2,60.25 238.59,60.25 238.98,60.25 239.36,60.26 239.75,60.26 240.14,60.26 240.52,60.26 240.91,60.26 241.3,60.27 241.68,60.27 242.07,60.28 242.46,60.28 242.84,60.28 243.23,60.28 243.62,60.28 244,60.27 244.39,60.27 244.78,60.27 245.16,60.26 245.55,60.25 245.94,60.25 246.32,60.25 246.71,60.25 247.1,60.25 247.48,60.25 247.87,60.25 248.26,60.25 248.64,60.25 249.03,60.25 249.42,60.25 249.8,60.24 250.19,60.24 250.57,60.24 250.96,60.25 251.35,60.25 251.73,60.25 252.12,60.25 252.51,60.25 252.89,60.25 253.28,60.25 253.67,60.25 254.05,60.25 254.44,60.25 254.83,60.25 255.21,60.24 255.6,60.24 255.99,60.23 256.37,60.23 256.76,60.24 257.15,60.24 257.53,60.25 257.92,60.25 258.31,60.25 258.69,60.24 259.08,60.22 259.47,60.21 259.85,60.19 260.24,60.17 260.63,60.15 261.01,60.14 261.4,60.14 261.79,60.13 262.17,60.13" stroke-dasharray="none" stroke="rgb(55,126,184)" stroke-width="0.75" opacity="1" stroke-opacity="1" fill="none"/>
          </g>
          <g id="Fig:densplot_01.xyplot.lines.group.9.panel.1.1.1">
            <polyline id="Fig:densplot_01.xyplot.lines.group.9.panel.1.1.1.1" points="65.44,60.2 65.82,60.73 66.21,63.76 66.59,75.07 66.97,102.92 67.36,146.29 67.74,183.75 68.12,190.61 68.51,168.64 68.89,139.56 69.27,118.02 69.66,105.25 70.04,97.75 70.42,92.87 70.81,89.27 71.19,86.23 71.57,83.51 71.96,81.21 72.34,79.28 72.72,77.64 73.11,76.25 73.49,75.1 73.87,74.07 74.26,73.08 74.64,72.14 75.02,71.32 75.41,70.65 75.79,70.12 76.18,69.64 76.56,69.16 76.94,68.68 77.33,68.23 77.71,67.82 78.09,67.48 78.48,67.21 78.86,66.97 79.24,66.77 79.63,66.56 80.01,66.31 80.39,66.03 80.78,65.76 81.16,65.52 81.54,65.31 81.93,65.14 82.31,64.98 82.69,64.81 83.08,64.64 83.46,64.48 83.84,64.35 84.23,64.23 84.61,64.11 84.99,63.99 85.38,63.91 85.76,63.86 86.14,63.83 86.53,63.76 86.91,63.64 87.29,63.52 87.68,63.43 88.06,63.36 88.44,63.31 88.83,63.27 89.21,63.2 89.59,63.11 89.98,63.04 90.36,62.98 90.74,62.92 91.13,62.83 91.51,62.74 91.9,62.66 92.28,62.59 92.66,62.54 93.05,62.52 93.43,62.51 93.81,62.47 94.2,62.39 94.58,62.29 94.96,62.21 95.35,62.19 95.73,62.2 96.11,62.21 96.5,62.2 96.88,62.18 97.26,62.14 97.65,62.08 98.03,62.01 98.41,61.97 98.8,61.95 99.18,61.95 99.56,61.95 99.95,61.93 100.33,61.89 100.71,61.83 101.1,61.77 101.48,61.71 101.86,61.66 102.25,61.62 102.63,61.58 103.01,61.54 103.4,61.52 103.78,61.49 104.16,61.46 104.55,61.44 104.93,61.44 105.31,61.43 105.7,61.4 106.08,61.38 106.46,61.36 106.85,61.35 107.23,61.33 107.62,61.33 108,61.33 108.38,61.34 108.77,61.31 109.15,61.28 109.53,61.27 109.92,61.26 110.3,61.25 110.68,61.22 111.07,61.21 111.45,61.22 111.83,61.22 112.22,61.19 112.6,61.14 112.98,61.09 113.37,61.06 113.75,61.05 114.13,61.03 114.52,61.02 114.9,61 115.28,60.98 115.67,60.98 116.05,60.98 116.43,60.97 116.82,60.96 117.2,60.96 117.58,60.98 117.97,60.99 118.35,61 118.73,60.99 119.12,60.97 119.5,60.94 119.88,60.91 120.27,60.88 120.65,60.85 121.03,60.83 121.42,60.83 121.8,60.85 122.18,60.85 122.57,60.84 122.95,60.81 123.34,60.8 123.72,60.79 124.1,60.78 124.49,60.78 124.87,60.78 125.25,60.78 125.64,60.8 126.02,60.81 126.4,60.79 126.79,60.76 127.17,60.73 127.55,60.71 127.94,60.7 128.32,60.7 128.7,60.69 129.09,60.68 129.47,60.66 129.85,60.65 130.24,60.65 130.62,60.67 131,60.67 131.39,60.67 131.77,60.66 132.15,60.66 132.54,60.66 132.92,60.66 133.3,60.65 133.69,60.64 134.07,60.63 134.45,60.63 134.84,60.62 135.22,60.61 135.6,60.61 135.99,60.61 136.37,60.61 136.75,60.6 137.14,60.6 137.52,60.61 137.9,60.61 138.29,60.6 138.67,60.58 139.06,60.57 139.44,60.55 139.82,60.53 140.21,60.51 140.59,60.51 140.97,60.51 141.36,60.52 141.74,60.53 142.12,60.54 142.51,60.54 142.89,60.54 143.27,60.54 143.66,60.54 144.04,60.53 144.42,60.52 144.81,60.51 145.19,60.51 145.57,60.51 145.96,60.51 146.34,60.5 146.72,60.47 147.11,60.45 147.49,60.44 147.87,60.44 148.26,60.45 148.64,60.45 149.02,60.45 149.41,60.44 149.79,60.44 150.17,60.44 150.56,60.45 150.94,60.46 151.32,60.47 151.71,60.47 152.09,60.46 152.47,60.46 152.86,60.46 153.24,60.46 153.62,60.45 154.01,60.43 154.39,60.42 154.78,60.41 155.16,60.4 155.54,60.4 155.93,60.39 156.31,60.4 156.69,60.4 157.08,60.41 157.46,60.41 157.84,60.4 158.23,60.39 158.61,60.39 158.99,60.39 159.38,60.41 159.76,60.42 160.14,60.42 160.53,60.41 160.91,60.39 161.29,60.39 161.68,60.38 162.06,60.38 162.44,60.37 162.83,60.37 163.21,60.37 163.59,60.37 163.98,60.37 164.36,60.37 164.74,60.37 165.13,60.36 165.51,60.35 165.89,60.35 166.28,60.36 166.66,60.36 167.04,60.37 167.43,60.38 167.81,60.37 168.19,60.36 168.58,60.35 168.96,60.34 169.34,60.34 169.73,60.33 170.11,60.33 170.5,60.33 170.88,60.33 171.26,60.33 171.65,60.34 172.03,60.34 172.41,60.34 172.8,60.34 173.18,60.34 173.56,60.33 173.95,60.32 174.33,60.31 174.71,60.31 175.1,60.31 175.48,60.31 175.86,60.31 176.25,60.31 176.63,60.31 177.01,60.31 177.4,60.3 177.78,60.3 178.16,60.31 178.55,60.31 178.93,60.3 179.31,60.29 179.7,60.29 180.08,60.29 180.46,60.29 180.85,60.29 181.23,60.3 181.61,60.3 182,60.31 182.38,60.31 182.76,60.3 183.15,60.3 183.53,60.3 183.91,60.29 184.3,60.29 184.68,60.3 185.06,60.31 185.45,60.3 185.83,60.3 186.22,60.29 186.6,60.29 186.98,60.28 187.37,60.27 187.75,60.27 188.13,60.27 188.52,60.28 188.9,60.28 189.28,60.28 189.67,60.29 190.05,60.29 190.43,60.28 190.82,60.27 191.2,60.26 191.58,60.27 191.97,60.27 192.35,60.27 192.73,60.27 193.12,60.27 193.5,60.26 193.88,60.25 194.27,60.25 194.65,60.25 195.03,60.25 195.42,60.25 195.8,60.24 196.18,60.24 196.57,60.23 196.95,60.23 197.33,60.24 197.72,60.25 198.1,60.25 198.48,60.25 198.87,60.25 199.25,60.24 199.63,60.24 200.02,60.24 200.4,60.24 200.78,60.24 201.17,60.24 201.55,60.25 201.94,60.25 202.32,60.25 202.7,60.25 203.09,60.25 203.47,60.26 203.85,60.27 204.24,60.27 204.62,60.27 205,60.26 205.39,60.27 205.77,60.27 206.15,60.27 206.54,60.27 206.92,60.26 207.3,60.25 207.69,60.25 208.07,60.25 208.45,60.25 208.84,60.25 209.22,60.25 209.6,60.25 209.99,60.24 210.37,60.24 210.75,60.23 211.14,60.23 211.52,60.22 211.9,60.22 212.29,60.24 212.67,60.25 213.05,60.27 213.44,60.27 213.82,60.26 214.2,60.25 214.59,60.24 214.97,60.22 215.35,60.21 215.74,60.21 216.12,60.21 216.5,60.22 216.89,60.22 217.27,60.23 217.66,60.23 218.04,60.23 218.42,60.24 218.81,60.25 219.19,60.24 219.57,60.23 219.96,60.22 220.34,60.22 220.72,60.23 221.11,60.23 221.49,60.23 221.87,60.23 222.26,60.23 222.64,60.23 223.02,60.22 223.41,60.21 223.79,60.21 224.17,60.21 224.56,60.21 224.94,60.22 225.32,60.23 225.71,60.23 226.09,60.23 226.47,60.22 226.86,60.22 227.24,60.22 227.62,60.21 228.01,60.21 228.39,60.21 228.77,60.21 229.16,60.21 229.54,60.21 229.92,60.22 230.31,60.22 230.69,60.22 231.07,60.22 231.46,60.22 231.84,60.22 232.22,60.22 232.61,60.21 232.99,60.21 233.38,60.2 233.76,60.2 234.14,60.2 234.53,60.2 234.91,60.2 235.29,60.21 235.68,60.22 236.06,60.22 236.44,60.21 236.83,60.21 237.21,60.21 237.59,60.21 237.98,60.22 238.36,60.22 238.74,60.22 239.13,60.21 239.51,60.21 239.89,60.2 240.28,60.2 240.66,60.2 241.04,60.2 241.43,60.2 241.81,60.2 242.19,60.2 242.58,60.2 242.96,60.19 243.34,60.19 243.73,60.2 244.11,60.2 244.49,60.2 244.88,60.19 245.26,60.19 245.64,60.19 246.03,60.19 246.41,60.19 246.79,60.19 247.18,60.19 247.56,60.2 247.94,60.2 248.33,60.2 248.71,60.2 249.1,60.2 249.48,60.19 249.86,60.2 250.25,60.21 250.63,60.21 251.01,60.21 251.4,60.2 251.78,60.19 252.16,60.19 252.55,60.2 252.93,60.2 253.31,60.21 253.7,60.2 254.08,60.2 254.46,60.2 254.85,60.19 255.23,60.18 255.61,60.18 256,60.18 256.38,60.18 256.76,60.18 257.15,60.18 257.53,60.18 257.91,60.18 258.3,60.18 258.68,60.19 259.06,60.19 259.45,60.18 259.83,60.16 260.21,60.15 260.6,60.14 260.98,60.13 261.36,60.13" stroke-dasharray="none" stroke="rgb(77,175,74)" stroke-width="0.75" opacity="1" stroke-opacity="1" fill="none"/>
          </g>
          <g id="Fig:densplot_01.xyplot.lines.group.10.panel.1.1.1">
            <polyline id="Fig:densplot_01.xyplot.lines.group.10.panel.1.1.1.1" points="65.7,60.21 66.09,61.66 66.47,74.06 66.85,121.93 67.23,197.25 67.61,230.77 68,200.72 68.38,154.3 68.76,123.53 69.14,107.67 69.52,99.1 69.91,93.82 70.29,90.28 70.67,87.67 71.05,85.37 71.43,83.18 71.82,81.32 72.2,79.79 72.58,78.37 72.96,77.02 73.35,75.84 73.73,74.82 74.11,73.88 74.49,73 74.87,72.17 75.26,71.44 75.64,70.83 76.02,70.28 76.4,69.71 76.78,69.12 77.17,68.61 77.55,68.27 77.93,67.99 78.31,67.67 78.69,67.32 79.08,66.98 79.46,66.66 79.84,66.36 80.22,66.07 80.6,65.84 80.99,65.6 81.37,65.34 81.75,65.14 82.13,64.96 82.52,64.7 82.9,64.47 83.28,64.34 83.66,64.25 84.04,64.12 84.43,63.94 84.81,63.78 85.19,63.7 85.57,63.62 85.95,63.47 86.34,63.28 86.72,63.13 87.1,63 87.48,62.91 87.86,62.86 88.25,62.82 88.63,62.77 89.01,62.68 89.39,62.6 89.77,62.56 90.16,62.46 90.54,62.33 90.92,62.29 91.3,62.28 91.68,62.27 92.07,62.23 92.45,62.13 92.83,62.01 93.21,61.94 93.6,61.89 93.98,61.84 94.36,61.78 94.74,61.7 95.12,61.66 95.51,61.66 95.89,61.67 96.27,61.64 96.65,61.6 97.03,61.57 97.42,61.54 97.8,61.51 98.18,61.49 98.56,61.47 98.94,61.47 99.33,61.48 99.71,61.46 100.09,61.41 100.47,61.33 100.85,61.29 101.24,61.25 101.62,61.22 102,61.2 102.38,61.17 102.76,61.14 103.15,61.12 103.53,61.11 103.91,61.09 104.29,61.09 104.68,61.09 105.06,61.06 105.44,61.01 105.82,60.96 106.2,60.94 106.59,60.95 106.97,60.96 107.35,60.94 107.73,60.91 108.11,60.91 108.5,60.92 108.88,60.9 109.26,60.88 109.64,60.85 110.02,60.83 110.41,60.81 110.79,60.8 111.17,60.79 111.55,60.77 111.93,60.78 112.32,60.78 112.7,60.75 113.08,60.74 113.46,60.75 113.85,60.76 114.23,60.72 114.61,60.68 114.99,60.66 115.37,60.68 115.76,60.72 116.14,60.72 116.52,60.69 116.9,60.66 117.28,60.65 117.67,60.64 118.05,60.65 118.43,60.65 118.81,60.65 119.19,60.63 119.58,60.61 119.96,60.59 120.34,60.58 120.72,60.59 121.1,60.58 121.49,60.57 121.87,60.57 122.25,60.56 122.63,60.55 123.01,60.53 123.4,60.52 123.78,60.51 124.16,60.5 124.54,60.5 124.93,60.51 125.31,60.52 125.69,60.52 126.07,60.5 126.45,60.49 126.84,60.48 127.22,60.47 127.6,60.47 127.98,60.48 128.36,60.47 128.75,60.47 129.13,60.46 129.51,60.44 129.89,60.44 130.27,60.44 130.66,60.46 131.04,60.46 131.42,60.45 131.8,60.45 132.18,60.45 132.57,60.44 132.95,60.43 133.33,60.42 133.71,60.41 134.09,60.41 134.48,60.4 134.86,60.39 135.24,60.41 135.62,60.42 136.01,60.42 136.39,60.41 136.77,60.4 137.15,60.39 137.53,60.39 137.92,60.41 138.3,60.42 138.68,60.43 139.06,60.42 139.44,60.4 139.83,60.38 140.21,60.36 140.59,60.36 140.97,60.37 141.35,60.38 141.74,60.36 142.12,60.34 142.5,60.32 142.88,60.34 143.26,60.35 143.65,60.34 144.03,60.33 144.41,60.33 144.79,60.33 145.18,60.33 145.56,60.33 145.94,60.34 146.32,60.34 146.7,60.34 147.09,60.32 147.47,60.31 147.85,60.3 148.23,60.3 148.61,60.3 149,60.3 149.38,60.3 149.76,60.31 150.14,60.31 150.52,60.3 150.91,60.3 151.29,60.29 151.67,60.29 152.05,60.29 152.43,60.29 152.82,60.29 153.2,60.3 153.58,60.31 153.96,60.31 154.34,60.3 154.73,60.28 155.11,60.28 155.49,60.29 155.87,60.29 156.26,60.29 156.64,60.29 157.02,60.29 157.4,60.28 157.78,60.27 158.17,60.26 158.55,60.27 158.93,60.28 159.31,60.28 159.69,60.27 160.08,60.26 160.46,60.26 160.84,60.25 161.22,60.24 161.6,60.25 161.99,60.28 162.37,60.28 162.75,60.27 163.13,60.27 163.51,60.26 163.9,60.25 164.28,60.26 164.66,60.26 165.04,60.26 165.42,60.26 165.81,60.26 166.19,60.26 166.57,60.27 166.95,60.26 167.34,60.25 167.72,60.25 168.1,60.24 168.48,60.24 168.86,60.23 169.25,60.23 169.63,60.22 170.01,60.23 170.39,60.23 170.77,60.25 171.16,60.26 171.54,60.26 171.92,60.26 172.3,60.27 172.68,60.26 173.07,60.24 173.45,60.23 173.83,60.22 174.21,60.21 174.59,60.2 174.98,60.2 175.36,60.21 175.74,60.22 176.12,60.23 176.51,60.22 176.89,60.22 177.27,60.23 177.65,60.23 178.03,60.23 178.42,60.24 178.8,60.24 179.18,60.24 179.56,60.23 179.94,60.22 180.33,60.21 180.71,60.2 181.09,60.2 181.47,60.2 181.85,60.2 182.24,60.21 182.62,60.2 183,60.2 183.38,60.2 183.76,60.21 184.15,60.22 184.53,60.22 184.91,60.2 185.29,60.2 185.67,60.21 186.06,60.22 186.44,60.21 186.82,60.21 187.2,60.22 187.59,60.23 187.97,60.22 188.35,60.21 188.73,60.2 189.11,60.2 189.5,60.2 189.88,60.21 190.26,60.21 190.64,60.2 191.02,60.2 191.41,60.2 191.79,60.2 192.17,60.2 192.55,60.2 192.93,60.2 193.32,60.2 193.7,60.2 194.08,60.2 194.46,60.2 194.84,60.19 195.23,60.19 195.61,60.2 195.99,60.2 196.37,60.21 196.75,60.21 197.14,60.2 197.52,60.2 197.9,60.19 198.28,60.19 198.67,60.19 199.05,60.19 199.43,60.2 199.81,60.2 200.19,60.2 200.58,60.19 200.96,60.19 201.34,60.18 201.72,60.18 202.1,60.18 202.49,60.19 202.87,60.2 203.25,60.2 203.63,60.2 204.01,60.2 204.4,60.19 204.78,60.19 205.16,60.18 205.54,60.19 205.92,60.19 206.31,60.19 206.69,60.19 207.07,60.19 207.45,60.19 207.84,60.18 208.22,60.18 208.6,60.18 208.98,60.19 209.36,60.19 209.75,60.2 210.13,60.19 210.51,60.18 210.89,60.18 211.27,60.18 211.66,60.18 212.04,60.18 212.42,60.18 212.8,60.18 213.18,60.19 213.57,60.19 213.95,60.19 214.33,60.19 214.71,60.18 215.09,60.18 215.48,60.18 215.86,60.19 216.24,60.19 216.62,60.18 217,60.18 217.39,60.18 217.77,60.18 218.15,60.18 218.53,60.18 218.92,60.18 219.3,60.18 219.68,60.18 220.06,60.18 220.44,60.17 220.83,60.16 221.21,60.16 221.59,60.16 221.97,60.16 222.35,60.16 222.74,60.17 223.12,60.17 223.5,60.17 223.88,60.17 224.26,60.17 224.65,60.17 225.03,60.17 225.41,60.17 225.79,60.17 226.17,60.17 226.56,60.17 226.94,60.18 227.32,60.18 227.7,60.18 228.08,60.18 228.47,60.18 228.85,60.18 229.23,60.17 229.61,60.17 230,60.16 230.38,60.16 230.76,60.17 231.14,60.17 231.52,60.17 231.91,60.17 232.29,60.17 232.67,60.17 233.05,60.17 233.43,60.17 233.82,60.16 234.2,60.16 234.58,60.16 234.96,60.17 235.34,60.17 235.73,60.17 236.11,60.16 236.49,60.16 236.87,60.16 237.25,60.16 237.64,60.16 238.02,60.16 238.4,60.16 238.78,60.17 239.17,60.17 239.55,60.17 239.93,60.17 240.31,60.18 240.69,60.17 241.08,60.17 241.46,60.17 241.84,60.17 242.22,60.17 242.6,60.17 242.99,60.18 243.37,60.17 243.75,60.17 244.13,60.17 244.51,60.17 244.9,60.17 245.28,60.16 245.66,60.16 246.04,60.16 246.42,60.16 246.81,60.16 247.19,60.16 247.57,60.17 247.95,60.16 248.33,60.16 248.72,60.16 249.1,60.16 249.48,60.16 249.86,60.16 250.25,60.16 250.63,60.16 251.01,60.16 251.39,60.16 251.77,60.16 252.16,60.16 252.54,60.16 252.92,60.16 253.3,60.17 253.68,60.17 254.07,60.17 254.45,60.16 254.83,60.15 255.21,60.15 255.59,60.15 255.98,60.16 256.36,60.16 256.74,60.16 257.12,60.16 257.5,60.15 257.89,60.15 258.27,60.15 258.65,60.16 259.03,60.16 259.41,60.15 259.8,60.15 260.18,60.14 260.56,60.13 260.94,60.13" stroke-dasharray="none" stroke="rgb(77,175,74)" stroke-width="0.75" opacity="1" stroke-opacity="1" fill="none"/>
          </g>
          <g id="Fig:densplot_01.xyplot.lines.group.11.panel.1.1.1">
            <polyline id="Fig:densplot_01.xyplot.lines.group.11.panel.1.1.1.1" points="65.32,60.26 65.7,60.95 66.08,63.96 66.47,73.62 66.85,95.79 67.24,130.94 67.62,166.28 68,182.25 68.39,171.95 68.77,147.17 69.16,123.79 69.54,107.96 69.93,98.48 70.31,92.62 70.69,88.59 71.08,85.52 71.46,83.04 71.85,80.97 72.23,79.16 72.62,77.53 73,76.09 73.38,74.86 73.77,73.79 74.15,72.84 74.54,71.99 74.92,71.21 75.3,70.5 75.69,69.86 76.07,69.29 76.46,68.78 76.84,68.35 77.23,67.98 77.61,67.69 77.99,67.44 78.38,67.2 78.76,66.95 79.15,66.69 79.53,66.45 79.92,66.22 80.3,65.97 80.68,65.74 81.07,65.54 81.45,65.38 81.84,65.25 82.22,65.12 82.6,64.99 82.99,64.84 83.37,64.67 83.76,64.48 84.14,64.3 84.53,64.13 84.91,64 85.29,63.91 85.68,63.86 86.06,63.83 86.45,63.78 86.83,63.69 87.22,63.59 87.6,63.5 87.98,63.44 88.37,63.39 88.75,63.38 89.14,63.37 89.52,63.33 89.9,63.24 90.29,63.12 90.67,62.99 91.06,62.9 91.44,62.85 91.83,62.82 92.21,62.81 92.59,62.77 92.98,62.73 93.36,62.68 93.75,62.62 94.13,62.55 94.52,62.47 94.9,62.39 95.28,62.34 95.67,62.32 96.05,62.32 96.44,62.32 96.82,62.28 97.2,62.23 97.59,62.18 97.97,62.15 98.36,62.13 98.74,62.12 99.13,62.12 99.51,62.1 99.89,62.08 100.28,62.03 100.66,61.98 101.05,61.92 101.43,61.9 101.82,61.91 102.2,61.93 102.58,61.92 102.97,61.87 103.35,61.81 103.74,61.76 104.12,61.74 104.5,61.72 104.89,61.71 105.27,61.7 105.66,61.67 106.04,61.64 106.43,61.62 106.81,61.6 107.19,61.58 107.58,61.56 107.96,61.54 108.35,61.52 108.73,61.51 109.11,61.49 109.5,61.47 109.88,61.44 110.27,61.41 110.65,61.38 111.04,61.36 111.42,61.33 111.8,61.31 112.19,61.28 112.57,61.25 112.96,61.24 113.34,61.24 113.73,61.24 114.11,61.24 114.49,61.22 114.88,61.2 115.26,61.18 115.65,61.15 116.03,61.12 116.41,61.1 116.8,61.1 117.18,61.12 117.57,61.13 117.95,61.13 118.34,61.11 118.72,61.09 119.1,61.08 119.49,61.07 119.87,61.05 120.26,61.04 120.64,61.03 121.03,61.03 121.41,61.03 121.79,61.01 122.18,60.98 122.56,60.96 122.95,60.94 123.33,60.93 123.71,60.93 124.1,60.94 124.48,60.94 124.87,60.94 125.25,60.92 125.64,60.9 126.02,60.88 126.4,60.86 126.79,60.85 127.17,60.85 127.56,60.86 127.94,60.87 128.33,60.89 128.71,60.89 129.09,60.88 129.48,60.85 129.86,60.82 130.25,60.79 130.63,60.77 131.01,60.75 131.4,60.75 131.78,60.75 132.17,60.75 132.55,60.76 132.94,60.76 133.32,60.76 133.7,60.75 134.09,60.74 134.47,60.72 134.86,60.71 135.24,60.7 135.63,60.7 136.01,60.7 136.39,60.7 136.78,60.68 137.16,60.65 137.55,60.64 137.93,60.62 138.31,60.61 138.7,60.61 139.08,60.61 139.47,60.62 139.85,60.63 140.24,60.63 140.62,60.63 141,60.62 141.39,60.61 141.77,60.61 142.16,60.61 142.54,60.61 142.93,60.61 143.31,60.6 143.69,60.59 144.08,60.58 144.46,60.57 144.85,60.56 145.23,60.56 145.61,60.57 146,60.56 146.38,60.55 146.77,60.53 147.15,60.51 147.54,60.5 147.92,60.51 148.3,60.52 148.69,60.54 149.07,60.55 149.46,60.54 149.84,60.54 150.23,60.53 150.61,60.54 150.99,60.54 151.38,60.54 151.76,60.53 152.15,60.52 152.53,60.5 152.91,60.49 153.3,60.49 153.68,60.5 154.07,60.5 154.45,60.49 154.84,60.49 155.22,60.49 155.6,60.48 155.99,60.48 156.37,60.47 156.76,60.46 157.14,60.46 157.53,60.45 157.91,60.45 158.29,60.45 158.68,60.45 159.06,60.46 159.45,60.46 159.83,60.47 160.21,60.46 160.6,60.46 160.98,60.45 161.37,60.45 161.75,60.45 162.14,60.46 162.52,60.46 162.9,60.46 163.29,60.46 163.67,60.45 164.06,60.44 164.44,60.43 164.83,60.42 165.21,60.42 165.59,60.43 165.98,60.43 166.36,60.42 166.75,60.41 167.13,60.41 167.51,60.4 167.9,60.4 168.28,60.4 168.67,60.39 169.05,60.39 169.44,60.38 169.82,60.38 170.2,60.39 170.59,60.39 170.97,60.38 171.36,60.38 171.74,60.38 172.13,60.38 172.51,60.39 172.89,60.4 173.28,60.4 173.66,60.4 174.05,60.39 174.43,60.38 174.81,60.36 175.2,60.35 175.58,60.35 175.97,60.35 176.35,60.35 176.74,60.34 177.12,60.34 177.5,60.35 177.89,60.35 178.27,60.35 178.66,60.36 179.04,60.36 179.42,60.35 179.81,60.35 180.19,60.34 180.58,60.34 180.96,60.33 181.35,60.33 181.73,60.33 182.11,60.32 182.5,60.31 182.88,60.31 183.27,60.32 183.65,60.33 184.04,60.32 184.42,60.32 184.8,60.31 185.19,60.31 185.57,60.32 185.96,60.32 186.34,60.33 186.72,60.33 187.11,60.34 187.49,60.34 187.88,60.34 188.26,60.34 188.65,60.34 189.03,60.34 189.41,60.34 189.8,60.33 190.18,60.33 190.57,60.33 190.95,60.32 191.34,60.32 191.72,60.32 192.1,60.31 192.49,60.31 192.87,60.31 193.26,60.32 193.64,60.32 194.02,60.31 194.41,60.31 194.79,60.31 195.18,60.3 195.56,60.3 195.95,60.31 196.33,60.31 196.71,60.31 197.1,60.31 197.48,60.31 197.87,60.31 198.25,60.31 198.64,60.3 199.02,60.29 199.4,60.29 199.79,60.29 200.17,60.29 200.56,60.29 200.94,60.29 201.32,60.29 201.71,60.28 202.09,60.28 202.48,60.27 202.86,60.27 203.25,60.27 203.63,60.27 204.01,60.28 204.4,60.28 204.78,60.28 205.17,60.28 205.55,60.28 205.94,60.28 206.32,60.27 206.7,60.26 207.09,60.27 207.47,60.27 207.86,60.27 208.24,60.27 208.62,60.27 209.01,60.27 209.39,60.26 209.78,60.26 210.16,60.25 210.55,60.25 210.93,60.25 211.31,60.26 211.7,60.26 212.08,60.27 212.47,60.27 212.85,60.27 213.24,60.27 213.62,60.26 214,60.26 214.39,60.25 214.77,60.25 215.16,60.25 215.54,60.25 215.92,60.25 216.31,60.25 216.69,60.25 217.08,60.25 217.46,60.25 217.85,60.25 218.23,60.25 218.61,60.25 219,60.25 219.38,60.25 219.77,60.25 220.15,60.26 220.54,60.26 220.92,60.25 221.3,60.24 221.69,60.23 222.07,60.23 222.46,60.24 222.84,60.25 223.22,60.25 223.61,60.25 223.99,60.24 224.38,60.23 224.76,60.23 225.15,60.24 225.53,60.25 225.91,60.25 226.3,60.25 226.68,60.25 227.07,60.24 227.45,60.24 227.84,60.24 228.22,60.24 228.6,60.24 228.99,60.24 229.37,60.24 229.76,60.23 230.14,60.23 230.52,60.22 230.91,60.22 231.29,60.22 231.68,60.22 232.06,60.22 232.45,60.22 232.83,60.22 233.21,60.23 233.6,60.23 233.98,60.23 234.37,60.23 234.75,60.23 235.14,60.23 235.52,60.23 235.9,60.22 236.29,60.22 236.67,60.23 237.06,60.23 237.44,60.23 237.82,60.23 238.21,60.22 238.59,60.22 238.98,60.21 239.36,60.21 239.75,60.21 240.13,60.21 240.51,60.21 240.9,60.21 241.28,60.21 241.67,60.21 242.05,60.22 242.43,60.22 242.82,60.21 243.2,60.21 243.59,60.21 243.97,60.21 244.36,60.22 244.74,60.22 245.12,60.22 245.51,60.22 245.89,60.22 246.28,60.22 246.66,60.22 247.05,60.22 247.43,60.22 247.81,60.22 248.2,60.22 248.58,60.23 248.97,60.23 249.35,60.23 249.73,60.23 250.12,60.23 250.5,60.23 250.89,60.22 251.27,60.22 251.66,60.22 252.04,60.22 252.42,60.21 252.81,60.21 253.19,60.2 253.58,60.2 253.96,60.2 254.35,60.21 254.73,60.21 255.11,60.21 255.5,60.22 255.88,60.22 256.27,60.22 256.65,60.22 257.03,60.22 257.42,60.22 257.8,60.22 258.19,60.23 258.57,60.23 258.96,60.22 259.34,60.21 259.72,60.19 260.11,60.17 260.49,60.15 260.88,60.14 261.26,60.13 261.65,60.13" stroke-dasharray="none" stroke="rgb(77,175,74)" stroke-width="0.75" opacity="1" stroke-opacity="1" fill="none"/>
          </g>
          <g id="Fig:densplot_01.xyplot.lines.group.12.panel.1.1.1">
            <polyline id="Fig:densplot_01.xyplot.lines.group.12.panel.1.1.1.1" points="65.15,60.18 65.53,60.46 65.92,61.8 66.3,66.45 66.69,78.35 67.07,100.5 67.46,129.93 67.84,155.94 68.23,166.89 68.61,159.8 69,141.79 69.38,122.74 69.77,108.27 70.15,98.95 70.54,93.14 70.92,89.25 71.31,86.33 71.69,83.92 72.08,81.82 72.46,79.92 72.85,78.21 73.23,76.67 73.62,75.31 74,74.12 74.39,73.09 74.77,72.21 75.15,71.47 75.54,70.84 75.92,70.28 76.31,69.75 76.69,69.25 77.08,68.79 77.46,68.37 77.85,68 78.23,67.67 78.62,67.37 79,67.11 79.39,66.86 79.77,66.58 80.16,66.28 80.54,66 80.93,65.77 81.31,65.6 81.7,65.46 82.08,65.33 82.47,65.19 82.85,65.06 83.24,64.93 83.62,64.8 84.01,64.66 84.39,64.51 84.78,64.36 85.16,64.22 85.55,64.11 85.93,64.02 86.32,63.94 86.7,63.88 87.09,63.82 87.47,63.77 87.86,63.71 88.24,63.63 88.63,63.54 89.01,63.45 89.39,63.38 89.78,63.31 90.16,63.25 90.55,63.19 90.93,63.13 91.32,63.06 91.7,62.98 92.09,62.9 92.47,62.83 92.86,62.79 93.24,62.76 93.63,62.74 94.01,62.68 94.4,62.6 94.78,62.5 95.17,62.42 95.55,62.38 95.94,62.35 96.32,62.34 96.71,62.33 97.09,62.31 97.48,62.28 97.86,62.25 98.25,62.23 98.63,62.23 99.02,62.24 99.4,62.24 99.79,62.21 100.17,62.16 100.56,62.1 100.94,62.03 101.33,61.98 101.71,61.94 102.1,61.91 102.48,61.87 102.86,61.83 103.25,61.79 103.63,61.77 104.02,61.76 104.4,61.76 104.79,61.75 105.17,61.73 105.56,61.71 105.94,61.69 106.33,61.66 106.71,61.64 107.1,61.62 107.48,61.61 107.87,61.59 108.25,61.58 108.64,61.57 109.02,61.55 109.41,61.53 109.79,61.51 110.18,61.49 110.56,61.48 110.95,61.47 111.33,61.45 111.72,61.42 112.1,61.39 112.49,61.35 112.87,61.32 113.26,61.3 113.64,61.29 114.03,61.27 114.41,61.24 114.8,61.23 115.18,61.23 115.57,61.25 115.95,61.27 116.33,61.27 116.72,61.24 117.1,61.2 117.49,61.16 117.87,61.13 118.26,61.11 118.64,61.1 119.03,61.09 119.41,61.09 119.8,61.09 120.18,61.09 120.57,61.08 120.95,61.08 121.34,61.08 121.72,61.08 122.11,61.07 122.49,61.05 122.88,61.03 123.26,61.01 123.65,60.99 124.03,60.99 124.42,60.98 124.8,60.97 125.19,60.96 125.57,60.94 125.96,60.92 126.34,60.91 126.73,60.91 127.11,60.91 127.5,60.91 127.88,60.91 128.27,60.9 128.65,60.89 129.04,60.89 129.42,60.89 129.81,60.88 130.19,60.86 130.57,60.85 130.96,60.84 131.34,60.83 131.73,60.84 132.11,60.85 132.5,60.85 132.88,60.85 133.27,60.84 133.65,60.82 134.04,60.8 134.42,60.77 134.81,60.75 135.19,60.74 135.58,60.74 135.96,60.74 136.35,60.74 136.73,60.73 137.12,60.73 137.5,60.72 137.89,60.7 138.27,60.69 138.66,60.69 139.04,60.69 139.43,60.7 139.81,60.71 140.2,60.72 140.58,60.72 140.97,60.72 141.35,60.71 141.74,60.71 142.12,60.7 142.51,60.69 142.89,60.68 143.28,60.67 143.66,60.65 144.04,60.63 144.43,60.62 144.81,60.62 145.2,60.62 145.58,60.63 145.97,60.63 146.35,60.64 146.74,60.65 147.12,60.65 147.51,60.65 147.89,60.63 148.28,60.62 148.66,60.61 149.05,60.6 149.43,60.59 149.82,60.58 150.2,60.57 150.59,60.56 150.97,60.55 151.36,60.54 151.74,60.54 152.13,60.53 152.51,60.53 152.9,60.52 153.28,60.52 153.67,60.52 154.05,60.53 154.44,60.53 154.82,60.54 155.21,60.53 155.59,60.52 155.98,60.51 156.36,60.51 156.75,60.51 157.13,60.52 157.52,60.53 157.9,60.53 158.28,60.53 158.67,60.52 159.05,60.51 159.44,60.5 159.82,60.49 160.21,60.49 160.59,60.48 160.98,60.47 161.36,60.47 161.75,60.47 162.13,60.48 162.52,60.48 162.9,60.49 163.29,60.49 163.67,60.48 164.06,60.47 164.44,60.46 164.83,60.44 165.21,60.43 165.6,60.42 165.98,60.42 166.37,60.43 166.75,60.43 167.14,60.44 167.52,60.44 167.91,60.44 168.29,60.44 168.68,60.44 169.06,60.44 169.45,60.43 169.83,60.43 170.22,60.43 170.6,60.43 170.99,60.43 171.37,60.43 171.75,60.43 172.14,60.42 172.52,60.42 172.91,60.41 173.29,60.41 173.68,60.4 174.06,60.39 174.45,60.39 174.83,60.38 175.22,60.38 175.6,60.38 175.99,60.38 176.37,60.38 176.76,60.38 177.14,60.38 177.53,60.38 177.91,60.38 178.3,60.38 178.68,60.37 179.07,60.36 179.45,60.37 179.84,60.37 180.22,60.39 180.61,60.39 180.99,60.39 181.38,60.38 181.76,60.38 182.15,60.38 182.53,60.37 182.92,60.37 183.3,60.37 183.69,60.36 184.07,60.36 184.46,60.35 184.84,60.34 185.22,60.33 185.61,60.33 185.99,60.33 186.38,60.34 186.76,60.34 187.15,60.34 187.53,60.34 187.92,60.34 188.3,60.33 188.69,60.32 189.07,60.32 189.46,60.32 189.84,60.33 190.23,60.33 190.61,60.33 191,60.32 191.38,60.32 191.77,60.32 192.15,60.32 192.54,60.32 192.92,60.32 193.31,60.31 193.69,60.3 194.08,60.3 194.46,60.3 194.85,60.31 195.23,60.31 195.62,60.31 196,60.31 196.39,60.31 196.77,60.31 197.16,60.32 197.54,60.32 197.93,60.31 198.31,60.31 198.7,60.3 199.08,60.31 199.46,60.32 199.85,60.33 200.23,60.33 200.62,60.33 201,60.32 201.39,60.31 201.77,60.31 202.16,60.31 202.54,60.3 202.93,60.3 203.31,60.3 203.7,60.29 204.08,60.29 204.47,60.28 204.85,60.28 205.24,60.29 205.62,60.29 206.01,60.3 206.39,60.3 206.78,60.3 207.16,60.29 207.55,60.29 207.93,60.29 208.32,60.29 208.7,60.29 209.09,60.29 209.47,60.28 209.86,60.28 210.24,60.28 210.63,60.28 211.01,60.28 211.4,60.28 211.78,60.28 212.17,60.28 212.55,60.28 212.93,60.29 213.32,60.29 213.7,60.3 214.09,60.29 214.47,60.29 214.86,60.29 215.24,60.28 215.63,60.28 216.01,60.27 216.4,60.27 216.78,60.27 217.17,60.27 217.55,60.27 217.94,60.27 218.32,60.27 218.71,60.28 219.09,60.27 219.48,60.27 219.86,60.27 220.25,60.28 220.63,60.28 221.02,60.27 221.4,60.27 221.79,60.27 222.17,60.26 222.56,60.25 222.94,60.25 223.33,60.25 223.71,60.25 224.1,60.25 224.48,60.25 224.87,60.26 225.25,60.25 225.64,60.25 226.02,60.24 226.41,60.24 226.79,60.24 227.17,60.24 227.56,60.24 227.94,60.24 228.33,60.24 228.71,60.24 229.1,60.24 229.48,60.23 229.87,60.23 230.25,60.23 230.64,60.24 231.02,60.24 231.41,60.25 231.79,60.26 232.18,60.26 232.56,60.26 232.95,60.26 233.33,60.25 233.72,60.24 234.1,60.23 234.49,60.23 234.87,60.23 235.26,60.23 235.64,60.23 236.03,60.24 236.41,60.24 236.8,60.24 237.18,60.24 237.57,60.23 237.95,60.22 238.34,60.22 238.72,60.22 239.11,60.23 239.49,60.23 239.88,60.24 240.26,60.24 240.64,60.24 241.03,60.24 241.41,60.24 241.8,60.24 242.18,60.24 242.57,60.24 242.95,60.23 243.34,60.23 243.72,60.22 244.11,60.22 244.49,60.22 244.88,60.22 245.26,60.22 245.65,60.22 246.03,60.22 246.42,60.22 246.8,60.22 247.19,60.22 247.57,60.22 247.96,60.21 248.34,60.21 248.73,60.21 249.11,60.21 249.5,60.21 249.88,60.22 250.27,60.22 250.65,60.22 251.04,60.22 251.42,60.22 251.81,60.22 252.19,60.23 252.58,60.24 252.96,60.24 253.35,60.24 253.73,60.24 254.11,60.22 254.5,60.22 254.88,60.21 255.27,60.21 255.65,60.21 256.04,60.21 256.42,60.21 256.81,60.21 257.19,60.21 257.58,60.21 257.96,60.21 258.35,60.22 258.73,60.22 259.12,60.22 259.5,60.2 259.89,60.18 260.27,60.16 260.66,60.15 261.04,60.14 261.43,60.13 261.81,60.13" stroke-dasharray="none" stroke="rgb(77,175,74)" stroke-width="0.75" opacity="1" stroke-opacity="1" fill="none"/>
          </g>
        </g>
        <g id="Fig:densplot_01.panel.1.1.off.vp.2">
          <g id="Fig:densplot_01.border.panel.1.1.1">
            <rect id="Fig:densplot_01.border.panel.1.1.1.1" x="50.8" y="48.19" width="225.2" height="194.52" transform="" stroke="rgb(0,0,0)" stroke-dasharray="none" stroke-width="0.75" opacity="1" fill="none" stroke-opacity="1" fill-opacity="0"/>
          </g>
        </g>
        <g id="Fig:densplot_01..1"/>
      </g>
    </g>
  </g>
</svg>